<?plantuml 1.2026.1?><svg xmlns="http://www.w3.org/2000/svg" xmlns:xlink="http://www.w3.org/1999/xlink" contentStyleType="text/css" data-diagram-type="ACTIVITY" height="493px" preserveAspectRatio="none" style="width:1139px;height:493px;background:#FFFFFF;" version="1.1" viewBox="0 0 1139 493" width="1139px" zoomAndPan="magnify"><defs/><g><rect fill="none" height="22.4999" style="stroke:none;stroke-width:1;" width="1106.4523" x="15" y="13.63"/><ellipse cx="220.1501" cy="51.1298" fill="#F1F1F1" rx="10" ry="10" style="stroke:#181818;stroke-width:0.5;"/><path d="M218.2126,56.1298 L218.2126,47.3173 L220.572,47.3173 Q220.9001,47.3173 221.2126,47.3642 Q221.5407,47.4111 221.8376,47.5517 Q222.1345,47.6767 222.4001,47.8798 Q222.6657,48.083 222.822,48.3798 Q222.9939,48.6611 223.0564,48.9892 Q223.1189,49.3017 223.1189,49.6455 Q223.1189,49.9267 223.0564,50.2236 Q223.0095,50.5205 222.8532,50.7861 Q222.697,51.0361 222.4626,51.2236 Q222.2282,51.4111 221.947,51.5361 Q222.2907,51.6455 222.5876,51.8486 Q222.8845,52.0361 223.0876,52.3173 Q223.3064,52.5986 223.4001,52.958 Q223.4939,53.3017 223.4939,53.6455 Q223.4939,54.0048 223.4001,54.3642 Q223.322,54.7236 223.1189,55.0361 Q222.9157,55.333 222.6189,55.5517 Q222.322,55.7705 221.9782,55.9111 Q221.6501,56.0361 221.2907,56.083 Q220.9314,56.1298 220.572,56.1298 L218.2126,56.1298 Z M220.572,51.1298 Q220.7751,51.1298 220.9626,51.0986 Q221.1657,51.0517 221.3532,50.9736 Q221.5407,50.8798 221.697,50.7548 Q221.8532,50.6142 221.947,50.4423 Q222.0564,50.2548 222.0876,50.0517 Q222.1345,49.8486 222.1345,49.6455 Q222.1345,49.4423 222.0876,49.2548 Q222.0564,49.0517 221.947,48.8798 Q221.8532,48.6923 221.697,48.5517 Q221.5407,48.4111 221.3532,48.333 Q221.1657,48.2548 220.9626,48.2236 Q220.7751,48.1923 220.572,48.1923 L219.197,48.1923 L219.197,51.1298 L220.572,51.1298 Z M219.197,52.0048 L219.197,55.2392 L220.572,55.2392 Q220.8064,55.2392 221.0407,55.208 Q221.2751,55.1767 221.4939,55.0986 Q221.7282,55.0205 221.9157,54.8798 Q222.1189,54.7236 222.2439,54.5361 Q222.3845,54.3486 222.4314,54.1142 Q222.4939,53.8642 222.4939,53.6298 Q222.4939,53.3955 222.4314,53.1611 Q222.3845,52.9111 222.2439,52.7236 Q222.1189,52.5205 221.9157,52.3798 Q221.7282,52.2236 221.4939,52.1455 Q221.2751,52.0673 221.0407,52.0361 Q220.8064,52.0048 220.572,52.0048 L219.197,52.0048 Z " fill="#000000"/><polygon fill="#F1F1F1" points="183.8504,81.1298,256.4498,81.1298,268.4498,93.1298,256.4498,105.1298,183.8504,105.1298,171.8504,93.1298,183.8504,81.1298" style="stroke:#181818;stroke-width:0.5;"/><text fill="#000000" font-family="sans-serif" font-size="11" lengthAdjust="spacing" textLength="72.5994" x="183.8504" y="96.8698">&#1055;&#1086;&#1083;&#1091;&#1095;&#1072;&#1090;&#1077;&#1083;&#1100;?</text><text fill="#000000" font-family="sans-serif" font-size="11" lengthAdjust="spacing" textLength="65.9995" x="105.851" y="89.9948">&#1057;&#1086;&#1080;&#1089;&#1082;&#1072;&#1090;&#1077;&#1083;&#1100;</text><text fill="#000000" font-family="sans-serif" font-size="11" lengthAdjust="spacing" textLength="32.9997" x="268.4498" y="89.9948">&#1057;&#1086;&#1074;&#1077;&#1090;</text><rect fill="#F1F1F1" height="50.0002" rx="12.5" ry="12.5" style="stroke:#181818;stroke-width:0.5;" width="70.4004" x="21" y="125.1298"/><text fill="#000000" font-family="sans-serif" font-size="12" lengthAdjust="spacing" textLength="45.6004" x="31" y="146.7099">&#1042;&#1099;&#1076;&#1072;&#1090;&#1100;</text><text fill="#000000" font-family="sans-serif" font-size="12" lengthAdjust="spacing" textLength="50.4004" x="31" y="161.71">&#1089;&#1087;&#1088;&#1072;&#1074;&#1082;&#1091;</text><rect fill="#F1F1F1" height="50.0002" rx="12.5" ry="12.5" style="stroke:#181818;stroke-width:0.5;" width="101.6006" x="311.4495" y="125.1298"/><text fill="#000000" font-family="sans-serif" font-size="12" lengthAdjust="spacing" textLength="64.8005" x="321.4495" y="146.7099">&#1056;&#1072;&#1079;&#1086;&#1089;&#1083;&#1072;&#1090;&#1100;</text><text fill="#000000" font-family="sans-serif" font-size="12" lengthAdjust="spacing" textLength="81.6006" x="321.4495" y="161.71">&#1076;&#1080;&#1089;&#1089;&#1077;&#1088;&#1090;&#1072;&#1094;&#1080;&#1102;</text><line style="stroke:#000000;stroke-width:1.5;" x1="15" x2="15" y1="13.63" y2="481.464"/><rect fill="#F1F1F1" height="35.0001" rx="12.5" ry="12.5" style="stroke:#181818;stroke-width:0.5;" width="132.2009" x="479.4004" y="237.6298"/><text fill="#000000" font-family="sans-serif" font-size="12" lengthAdjust="spacing" textLength="112.2009" x="489.4004" y="259.2099">&#1055;&#1086;&#1083;&#1091;&#1095;&#1080;&#1090;&#1100; &#1089;&#1087;&#1088;&#1072;&#1074;&#1082;&#1091;</text><path d="M422.0502,288.255 L422.0502,347.0051 A0,0 0 0 0 422.0502,347.0051 L610.7503,347.0051 A0,0 0 0 0 610.7503,347.0051 L610.7503,321.63 L630.7503,317.63 L610.7503,313.63 L610.7503,298.255 L600.7503,288.255 L422.0502,288.255 A0,0 0 0 0 422.0502,288.255" fill="#FEFFDD" style="stroke:#181818;stroke-width:0.5;"/><path d="M600.7503,288.255 L600.7503,298.255 L610.7503,298.255 L600.7503,288.255" fill="#FEFFDD" style="stroke:#181818;stroke-width:0.5;"/><text fill="#000000" font-family="sans-serif" font-size="13" lengthAdjust="spacing" textLength="121.55" x="428.0502" y="305.8">- &#1057;&#1087;&#1088;&#1072;&#1074;&#1082;&#1072; &#1086; &#1089;&#1076;&#1072;&#1095;&#1077;</text><text fill="#000000" font-family="sans-serif" font-size="13" lengthAdjust="spacing" textLength="127.4001" x="437.1502" y="322.05">&#1076;&#1086;&#1082;&#1091;&#1084;&#1077;&#1085;&#1090;&#1086;&#1074; &#1074; &#1044;&#1040;&#1053;&#1050;</text><text fill="#000000" font-family="sans-serif" font-size="13" lengthAdjust="spacing" textLength="167.7001" x="428.0502" y="338.3001">- &#1054;&#1088;&#1080;&#1075;&#1080;&#1085;&#1072;&#1083;&#1099; &#1076;&#1086;&#1082;&#1091;&#1084;&#1077;&#1085;&#1090;&#1086;&#1074;</text><rect fill="#F1F1F1" height="50.0002" rx="12.5" ry="12.5" style="stroke:#181818;stroke-width:0.5;" width="157.4011" x="630.7503" y="292.6299"/><text fill="#000000" font-family="sans-serif" font-size="12" lengthAdjust="spacing" textLength="137.4011" x="640.7503" y="314.21">&#1054;&#1090;&#1087;&#1088;&#1072;&#1074;&#1080;&#1090;&#1100; &#1076;&#1086;&#1082;&#1091;&#1084;&#1077;&#1085;&#1090;&#1099;</text><text fill="#000000" font-family="sans-serif" font-size="12" lengthAdjust="spacing" textLength="67.2005" x="640.7503" y="329.2101">&#1057;&#1077;&#1082;&#1088;&#1077;&#1090;&#1072;&#1088;&#1102;</text><line style="stroke:#000000;stroke-width:1.5;" x1="417.0502" x2="417.0502" y1="13.63" y2="481.464"/><path d="M828.5013,210.13 L828.5013,252.6301 A0,0 0 0 0 828.5013,252.6301 L953.5013,252.6301 A0,0 0 0 0 953.5013,252.6301 L953.5013,235.3801 L973.5013,231.3801 L953.5013,227.3801 L953.5013,220.13 L943.5013,210.13 L828.5013,210.13 A0,0 0 0 0 828.5013,210.13" fill="#FEFFDD" style="stroke:#181818;stroke-width:0.5;"/><path d="M943.5013,210.13 L943.5013,220.13 L953.5013,220.13 L943.5013,210.13" fill="#FEFFDD" style="stroke:#181818;stroke-width:0.5;"/><text fill="#000000" font-family="sans-serif" font-size="13" lengthAdjust="spacing" textLength="104" x="834.5013" y="227.675">&#1047;&#1072;&#1092;&#1080;&#1082;&#1089;&#1080;&#1088;&#1086;&#1074;&#1072;&#1090;&#1100;</text><text fill="#000000" font-family="sans-serif" font-size="13" lengthAdjust="spacing" textLength="100.75" x="834.5013" y="243.9251">&#1076;&#1072;&#1090;&#1091; &#1088;&#1072;&#1089;&#1089;&#1099;&#1083;&#1082;&#1080;</text><rect fill="#F1F1F1" height="35.0001" rx="12.5" ry="12.5" style="stroke:#181818;stroke-width:0.5;" width="141.801" x="973.5013" y="213.88"/><text fill="#000000" font-family="sans-serif" font-size="12" lengthAdjust="spacing" textLength="121.801" x="983.5013" y="235.4601">&#1055;&#1086;&#1083;&#1091;&#1095;&#1080;&#1090;&#1100; &#1088;&#1072;&#1089;&#1089;&#1099;&#1083;&#1082;&#1091;</text><rect fill="#F1F1F1" height="50.0002" rx="12.5" ry="12.5" style="stroke:#181818;stroke-width:0.5;" width="164.6011" x="798.1513" y="391.4637"/><text fill="#000000" font-family="sans-serif" font-size="12" lengthAdjust="spacing" textLength="57.6005" x="808.1513" y="413.0438">&#1055;&#1086;&#1083;&#1091;&#1095;&#1080;&#1090;&#1100;</text><text fill="#000000" font-family="sans-serif" font-size="12" lengthAdjust="spacing" textLength="144.6011" x="808.1513" y="428.0439">&#1086;&#1088;&#1080;&#1075;&#1080;&#1085;&#1072;&#1083;&#1099; &#1076;&#1086;&#1082;&#1091;&#1084;&#1077;&#1085;&#1090;&#1086;&#1074;</text><ellipse cx="880.4519" cy="471.464" fill="#F1F1F1" rx="10" ry="10" style="stroke:#181818;stroke-width:0.5;"/><path d="M880.5144,476.5577 Q880.1706,476.5577 879.8269,476.4952 Q879.4831,476.4327 879.1706,476.2921 Q878.8581,476.1358 878.6081,475.9015 Q878.3581,475.6515 878.1863,475.3546 Q878.03,475.0421 877.9675,474.6983 Q877.905,474.3546 877.905,474.0108 L877.905,470.1046 Q877.905,469.7608 877.9675,469.4171 Q878.03,469.0733 878.1863,468.7765 Q878.3581,468.464 878.6081,468.214 Q878.8581,467.964 879.1706,467.8233 Q879.4831,467.6671 879.8269,467.6046 Q880.1706,467.5421 880.5144,467.5421 Q880.8425,467.5421 881.155,467.589 Q881.4831,467.6358 881.78,467.7608 Q882.0769,467.8702 882.3269,468.0733 Q882.5925,468.2608 882.7644,468.5421 Q882.9363,468.8077 883.03,469.1202 Q883.1238,469.4327 883.1238,469.7608 L883.1238,469.8077 L882.1238,469.8077 L882.1238,469.7608 Q882.1238,469.4796 881.9988,469.214 Q881.8738,468.9327 881.6394,468.7608 Q881.405,468.5733 881.1081,468.5108 Q880.8113,468.4327 880.5144,468.4327 Q880.2956,468.4327 880.0769,468.4796 Q879.8581,468.5108 879.655,468.6202 Q879.4675,468.7296 879.3113,468.8858 Q879.155,469.0421 879.0613,469.2452 Q878.9831,469.4483 878.9363,469.6671 Q878.905,469.8702 878.905,470.1046 L878.905,474.0108 Q878.905,474.2296 878.9363,474.4483 Q878.9831,474.6671 879.0613,474.8702 Q879.155,475.0577 879.3113,475.2296 Q879.4675,475.3858 879.655,475.4952 Q879.8581,475.6046 880.0769,475.6358 Q880.2956,475.6671 880.5144,475.6671 Q880.8113,475.6671 881.1081,475.6046 Q881.405,475.5421 881.6394,475.3702 Q881.8738,475.1827 881.9988,474.9015 Q882.1238,474.6202 882.1238,474.339 L882.1238,474.3077 L883.1238,474.3077 L883.1238,474.3546 Q883.1238,474.6827 883.03,474.9952 Q882.9363,475.3077 882.7644,475.5733 Q882.5925,475.839 882.3269,476.0421 Q882.0769,476.2296 881.78,476.3546 Q881.4831,476.4796 881.155,476.5108 Q880.8425,476.5577 880.5144,476.5577 Z " fill="#000000"/><line style="stroke:#000000;stroke-width:1.5;" x1="792.1513" x2="792.1513" y1="13.63" y2="481.464"/><line style="stroke:#000000;stroke-width:1.5;" x1="1119.3023" x2="1119.3023" y1="13.63" y2="481.464"/><line style="stroke:#181818;stroke-width:1;" x1="171.8504" x2="56.2002" y1="93.1298" y2="93.1298"/><line style="stroke:#181818;stroke-width:1;" x1="56.2002" x2="56.2002" y1="93.1298" y2="125.1298"/><polygon fill="#181818" points="52.2002,115.1298,56.2002,125.1298,60.2002,115.1298,56.2002,119.1298" style="stroke:#181818;stroke-width:1;"/><line style="stroke:#181818;stroke-width:1;" x1="268.4498" x2="362.2499" y1="93.1298" y2="93.1298"/><line style="stroke:#181818;stroke-width:1;" x1="362.2499" x2="362.2499" y1="93.1298" y2="125.1298"/><polygon fill="#181818" points="358.2499,115.1298,362.2499,125.1298,366.2499,115.1298,362.2499,119.1298" style="stroke:#181818;stroke-width:1;"/><line style="stroke:#181818;stroke-width:1;" x1="220.1501" x2="220.1501" y1="61.1298" y2="81.1298"/><polygon fill="#181818" points="216.1501,71.1298,220.1501,81.1298,224.1501,71.1298,220.1501,75.1298" style="stroke:#181818;stroke-width:1;"/><line style="stroke:#181818;stroke-width:1;" x1="880.4519" x2="880.4519" y1="441.464" y2="461.464"/><polygon fill="#181818" points="876.4519,451.464,880.4519,461.464,884.4519,451.464,880.4519,455.464" style="stroke:#181818;stroke-width:1;"/><line style="stroke:#181818;stroke-width:1;" x1="56.2002" x2="56.2002" y1="175.13" y2="206.3799"/><line style="stroke:#181818;stroke-width:1;" x1="56.2002" x2="545.5009" y1="206.3799" y2="206.3799"/><line style="stroke:#181818;stroke-width:1;" x1="545.5009" x2="545.5009" y1="206.3799" y2="237.6298"/><polygon fill="#181818" points="541.5009,227.6298,545.5009,237.6298,549.5009,227.6298,545.5009,231.6298" style="stroke:#181818;stroke-width:1;"/><text fill="#000000" font-family="sans-serif" font-size="11" lengthAdjust="spacing" textLength="87.9993" x="60.2002" y="187.62">&#1055;&#1086;&#1076;&#1090;&#1074;&#1077;&#1088;&#1078;&#1076;&#1077;&#1085;&#1080;&#1077;</text><text fill="#000000" font-family="sans-serif" font-size="11" lengthAdjust="spacing" textLength="52.7996" x="75.6001" y="201.3699">&#1087;&#1088;&#1080;&#1085;&#1103;&#1090;&#1080;&#1103;</text><line style="stroke:#181818;stroke-width:1;" x1="362.2499" x2="362.2499" y1="175.13" y2="194.505"/><line style="stroke:#181818;stroke-width:1;" x1="362.2499" x2="1044.4018" y1="194.505" y2="194.505"/><line style="stroke:#181818;stroke-width:1;" x1="1044.4018" x2="1044.4018" y1="194.505" y2="213.88"/><polygon fill="#181818" points="1040.4018,203.88,1044.4018,213.88,1048.4018,203.88,1044.4018,207.88" style="stroke:#181818;stroke-width:1;"/><line style="stroke:#181818;stroke-width:1;" x1="545.5009" x2="545.5009" y1="272.6299" y2="277.6299"/><line style="stroke:#181818;stroke-width:1;" x1="545.5009" x2="709.4508" y1="277.6299" y2="277.6299"/><line style="stroke:#181818;stroke-width:1;" x1="709.4508" x2="709.4508" y1="277.6299" y2="292.6299"/><polygon fill="#181818" points="705.4508,282.6299,709.4508,292.6299,713.4508,282.6299,709.4508,286.6299" style="stroke:#181818;stroke-width:1;"/><line style="stroke:#181818;stroke-width:1;" x1="709.4508" x2="709.4508" y1="342.6301" y2="376.0675"/><line style="stroke:#181818;stroke-width:1;" x1="709.4508" x2="880.4519" y1="376.0675" y2="376.0675"/><line style="stroke:#181818;stroke-width:1;" x1="880.4519" x2="880.4519" y1="376.0675" y2="391.4637"/><polygon fill="#181818" points="876.4519,381.4637,880.4519,391.4637,884.4519,381.4637,880.4519,385.4637" style="stroke:#181818;stroke-width:1;"/><text fill="#000000" font-family="sans-serif" font-size="11" lengthAdjust="spacing" textLength="61.5995" x="713.4508" y="356.2138">&#1054;&#1088;&#1080;&#1075;&#1080;&#1085;&#1072;&#1083;&#1099;</text><text fill="#000000" font-family="sans-serif" font-size="11" lengthAdjust="spacing" textLength="67.0994" x="713.4508" y="369.9637">&#1076;&#1086;&#1082;&#1091;&#1084;&#1077;&#1085;&#1090;&#1086;&#1074;</text><text fill="#000000" font-family="sans-serif" font-size="18" lengthAdjust="spacing" textLength="43.1997" x="194.4252" y="30.9999">&#1044;&#1040;&#1053;&#1050;</text><text fill="#000000" font-family="sans-serif" font-size="18" lengthAdjust="spacing" textLength="107.9993" x="550.6011" y="30.9999">&#1057;&#1086;&#1080;&#1089;&#1082;&#1072;&#1090;&#1077;&#1083;&#1100;</text><text fill="#000000" font-family="sans-serif" font-size="18" lengthAdjust="spacing" textLength="97.1993" x="907.1271" y="30.9999">&#1057;&#1077;&#1082;&#1088;&#1077;&#1090;&#1072;&#1088;&#1100;</text><?plantuml-src ZLBDJi904BxFK-oH7dW1csYYhsA9H887EVQ0rCW10iQOc9Y8-WODKjrGgQ_mxHlvpL9eKY2XsSFkp7m_CzCOptZ46rvZQPm7qcwP1jvH87U96o9r0sIyZyy2qxkAkan-CcdT7PPLCf0JFBaH5XfoOs7sp_MHOewbIq9fdXhFkI1WZeofRzPcMC4Y4yFFrrkit9Gbrar3YVS9nHIgp5aLCtMnk6eewjn6fMEL7QZF3rR-e20gBztI2cKOe34AfUw1xydQGKREla8PxX_GfxR2sN--Tj2zwKM25uRlsTEIp9P5wc4hg9Ua1eMLg7jfFFgwtUduLxjrU18pFZQjhxsGkL0F-DNfCZIIdIOcfS6cOMexEQG6XSvIlGtzLkfase7HKyvN6MP-RL-wElBaRhGNLVMbVy8EHlPXZfs_S9V7U0YbSH7y0m00?></g></svg>