<?xml version="1.0" encoding="UTF-8"?>
<svg width="195.66" height="326.92" version="1.0" xmlns="http://www.w3.org/2000/svg" xmlns:cc="http://creativecommons.org/ns#" xmlns:dc="http://purl.org/dc/elements/1.1/" xmlns:rdf="http://www.w3.org/1999/02/22-rdf-syntax-ns#">
 <metadata>
  <rdf:RDF>
   <cc:Work rdf:about="">
    <dc:format>image/svg+xml</dc:format>
    <dc:type rdf:resource="http://purl.org/dc/dcmitype/StillImage"/>
    <dc:title/>
   </cc:Work>
  </rdf:RDF>
 </metadata>
 <g transform="translate(-15.56 -411.71)">
  <g fill="#0079c2">
   <path d="m196.31 470.73c-6.9318-30.344-24.303-55.027-26.697-59.017-3.7861 5.6605-17.64 27.467-24.683 51.594-7.6926 27.003-8.8247 50.944-6.1708 74.421 2.6354 23.57 12.592 47.789 12.592 47.789 5.2893 12.62 13.214 26.261 18.373 32.942 7.5627-9.8362 24.943-39.159 30.362-77.391 3.0158-21.343 3.1457-39.994-3.7767-70.338zm-26.697 140.12c-3.4056-6.4028-8.6949-18.559-9.196-37.489-0.12994-18.188 7.173-33.87 9.3073-37.118 1.9022 3.2478 8.1937 16.889 8.9454 35.54 0.51037 18.188-5.5398 32.571-9.0568 39.067zm24.683-88.619c-0.2598 11.599-1.6425 23.848-3.4056 31.179 0.63101-12.62-0.88151-30.344-3.7767-44.263-2.8952-13.826-11.089-37.025-17.631-47.696-6.0409 10.207-13.483 30.251-17.38 47.604-3.9159 17.353-4.0273 38.417-4.0273 44.727-1.0393-5.2893-3.6376-24.312-2.9045-43.335 0.61245-15.682 4.2871-31.921 6.3008-39.345 7.6834-24.776 16.378-40.644 18.011-43.15 1.6332 2.5055 12.583 22.085 18.262 42.593 5.6512 20.508 6.7926 40.18 6.5513 51.687"/>
   <path d="m181.37 625.51h-52.698v35.355c0.0464 0 0.0835-0.0927 0.12993-0.0927 12.416-12.434 32.552-12.434 44.978 0 12.416 12.342 12.416 32.478 0 44.913-0.0556 0.0928-0.11129 0.0928-0.16698 0.18562-0.065 0-0.12993 0.0928-0.18561 0.18561-12.388 12.249-28.571 18.373-44.755 18.373-16.258 0-32.515-6.1244-44.913-18.559-21.862-21.807-24.451-55.677-7.7855-80.36 2.2456-3.3406 4.8346-6.4957 7.7855-9.465 12.397-12.434 28.655-18.559 44.913-18.559v-85c-62.469 0-113.11 50.573-113.11 113.02s50.638 113.12 113.11 113.12c32.571 0 61.913-13.826 82.55-35.819v-77.298h-29.852"/>
  </g>
 </g>
</svg>
