<?xml version="1.0" encoding="UTF-8"?>
<svg width="618.34" height="524.11" version="1.1" viewBox="0 0 618.34 524.11" xml:space="preserve" xmlns="http://www.w3.org/2000/svg" xmlns:cc="http://creativecommons.org/ns#" xmlns:dc="http://purl.org/dc/elements/1.1/" xmlns:rdf="http://www.w3.org/1999/02/22-rdf-syntax-ns#"><metadata><rdf:RDF><cc:Work rdf:about=""><dc:format>image/svg+xml</dc:format><dc:type rdf:resource="http://purl.org/dc/dcmitype/StillImage"/><dc:title/></cc:Work></rdf:RDF></metadata><defs><clipPath id="clipPath18"><path d="M 0,595.28 H 841.89 V 0 H 0 Z"/></clipPath></defs><g transform="matrix(1.3333 0 0 -1.3333 -252.09 658.91)"><g clip-path="url(#clipPath18)"><g transform="translate(502.99 249.38)"><path d="m0 0c-23.979 3.766-49.54 5.903-75.764 6.192-1.667 0.02-3.038-1.338-3.038-3.006v-83.572c0-1.789 1.564-3.154 3.353-2.974 35.301 3.566 65.092 35.468 77.869 79.569 0.496 1.731-0.65 3.514-2.42 3.791" fill="#1476c6"/></g><g transform="translate(459.81 417.26)"><path d="m0 0c24.75-14.812 44.224-43.308 53.325-78.545 0.321-1.242 1.551-2.04 2.814-1.802 35.615 6.637 67.125 16.974 91.243 30.28 1.539 0.85 1.693 3.025 0.29 4.081-7.157 5.407-15.113 10.537-23.849 15.339-12.469 6.862-26.122 12.829-40.681 17.857v19.272c0 0.109-0.027 0.212-0.034 0.328v8.304c0 11.13 9.057 20.187 20.187 20.187h15.804c0.076 0 0.153 0.019 0.237 0.026 0.078-7e-3 0.155-0.026 0.239-0.026 3.103 0 5.619 2.516 5.619 5.626v30.363c0 3.109-2.516 5.626-5.619 5.626h-109.1c-3.11 0-5.626-2.517-5.626-5.626v-30.363c0-3.11 2.516-5.626 5.626-5.626 0.155 0 0.309 0.032 0.463 0.045 0.161-0.013 0.303-0.045 0.47-0.045h15.803c11.13 0 20.186-9.057 20.186-20.187v-8.587c0-0.019-6e-3 -0.032-6e-3 -0.045v-9.224c-14.753 3.276-30.112 5.735-45.909 7.267-2.588 0.251-3.72-3.193-1.487-4.525m71.863 15.114v-10.46c0-0.109 0.027-0.219 0.027-0.328v-13.486c-1.237 0.38-2.473 0.76-3.728 1.12v26.868c1.094 10.493 8.266 19.189 17.914 22.556-8.548-5.626-14.213-15.295-14.213-26.27m-35.127 32.282h-20.636v18.275h97.849v-18.275h-19.067c-13.151 0-24.416-8.15-29.075-19.652-4.649 11.502-15.913 19.652-29.071 19.652m6.624-5.362c11.356-2.897 19.821-13.009 20.2-25.156-6e-3 -0.29-0.045-0.56-0.045-0.85v-22.768c-1.616 0.445-3.232 0.889-4.873 1.307v10.042c0 0.013 6e-3 0.026 6e-3 0.045v10.46c0 11.426-6.147 21.416-15.288 26.92" fill="#1476c6"/></g><g transform="translate(426.34 328.49)"><path d="m0 0c28.04 0.27 55.333 2.646 80.766 6.868-12.006 48.832-44.467 84.351-82.929 86.25v-90.975c0-1.19 0.978-2.156 2.163-2.143" fill="#1476c6"/></g><g transform="translate(258.25 200.76)"><path d="m0 0c12.173-6.694 25.459-12.526 39.62-17.476 0.663-0.232 1.326-0.2 1.918 0 19.266-48.104 66.327-82.188 121.24-82.188h3.084c50.28 0 95.327 31.831 112.08 79.214 0.045 0.128 0.057 0.257 0.096 0.387 17.077 5.464 33.002 12.165 47.364 20.063 7.981 4.39 15.306 9.057 21.975 13.949 1.101 0.811 0.986 2.511-0.218 3.155-24.185 12.996-55.513 23.076-90.795 29.545-0.953 0.168-1.873-0.418-2.13-1.351-9.656-35.063-29.65-63.141-54.825-77.213-1.776-0.991-0.965-3.682 1.062-3.501 12.823 1.158 25.362 2.935 37.541 5.252-11.38-16.35-29.971-26.199-50.293-26.199h-3.816c-21.9 0-41.14 11.542-51.993 28.858 7.68-3.888 15.823-6.399 24.287-7.248 1.738-0.168 3.225 1.248 3.225 2.993v83.566c0 1.667-1.371 3.025-3.038 3.007-11.419-0.13-22.703-0.639-33.801-1.45v6.54c11.136 0.805 22.446 1.307 33.885 1.429 1.635 0.02 2.954 1.346 2.954 2.974v53.93c0 1.635-1.319 2.954-2.954 2.974-11.439 0.128-22.749 0.624-33.885 1.429v6.546c11.291-0.824 22.768-1.339 34.387-1.455 1.345-0.013 2.452 1.082 2.452 2.427v90.691c-13.189-0.663-25.645-5.33-36.839-13.08l7e-3 23.843c0 11.136 9.057 20.193 20.186 20.193h15.803c0.058 0 0.109 0.013 0.174 0.019 0.058-6e-3 0.109-0.019 0.167-0.019 3.109 0 5.626 2.517 5.626 5.62v30.37c0 3.102-2.517 5.625-5.626 5.625h-162.8c-3.102 0-5.626-2.523-5.626-5.625v-30.37c0-3.103 2.524-5.62 5.626-5.62 0.019 0 0.045 7e-3 0.058 7e-3 0.026 0 0.045-7e-3 0.064-7e-3h15.803c11.13 0 20.187-9.057 20.187-20.193v-7.988c0-0.039-7e-3 -0.071-7e-3 -0.11v-22.883c-11.4-4.339-22.195-9.263-32.217-14.773-8.465-4.661-16.202-9.624-23.192-14.851-1.752-1.306-1.494-3.984 0.424-5.027 15.565-8.477 34.213-15.719 54.985-21.564v-6.759c-24.821 6.849-46.771 15.642-64.338 26.122l-0.032 0.032c-24.107-20.83-37.026-45.227-37.026-70.885 0-25.902 13.17-50.529 37.728-71.496 0.952-0.811 2.317-0.94 3.411-0.322 16.84 9.456 37.322 17.457 60.257 23.785v-6.746c-19.62-5.517-37.334-12.276-52.352-20.154-1.996-1.049-2.189-3.804-0.354-5.118 6.27-4.506 13.1-8.812 20.489-12.874m111.33 231.61v-226.66c0-40.012 32.552-72.564 72.565-72.564h3.816c27.493 0 52.301 15.236 64.75 39.767 0.136 0.258 0.227 0.528 0.311 0.805 0.919 0.213 1.828 0.438 2.748 0.663-15.198-31.799-46.991-52.037-82.652-52.037h-1.892c-50.538 0-91.658 41.113-91.658 91.651v210.34c0 0.277-0.032 0.548-0.038 0.824 0.444 19.369 16.305 34.998 35.777 34.998h13.041c-9.964-5.278-16.768-15.745-16.768-27.782m-109.59 32.282v18.275h151.55v-18.275h-38.236c-17.58 0-32.527-11.323-38.03-27.049-5.504 15.726-20.444 27.049-38.024 27.049zm24.969-4.5h12.295c19.472 0 35.333-15.629 35.777-34.998-6e-3 -0.276-0.039-0.547-0.039-0.824v-15.912c0-0.148 0.052-0.277 0.078-0.419v-194c0-53.016 43.141-96.144 96.157-96.144h1.892c38.649 0 72.984 22.646 88.245 57.934 1.101 0.283 2.189 0.585 3.289 0.881-17.045-38.776-55.693-64.325-98.544-64.325h-3.084c-65.786 0-119.32 53.524-119.32 119.32v190.14c7e-3 0.039 0.013 0.078 0.013 0.117v10.453c0 12.037-6.804 22.504-16.762 27.782" fill="#1476c6"/></g><g transform="translate(515.91 326.02)"><path d="m0 0c1.867-10.364 2.878-21.178 2.878-32.327 0-12.262-1.204-24.151-3.443-35.449-0.457-2.311 1.03-4.538 3.34-4.982 35.963-6.836 67.807-17.412 92.229-30.994 1.545-0.856 3.464-0.689 4.797 0.462 24.157 20.851 37.109 45.273 37.109 70.963 0 24.841-12.121 48.497-34.76 68.883-1.351 1.217-3.335 1.397-4.912 0.489-24.57-14.11-57.057-25.092-93.89-32.146-2.279-0.432-3.76-2.614-3.348-4.899" fill="#1476c6"/></g><g transform="translate(427.14 262.1)"><path d="m0 0c26.965-0.296 53.272-2.517 77.939-6.456 1.578-0.251 3.071 0.759 3.399 2.317 2.35 11.349 3.618 23.334 3.618 35.732 0 11.22-1.057 22.092-3 32.462-0.297 1.597-1.809 2.633-3.411 2.382-24.842-3.997-51.356-6.257-78.545-6.559-1.642-0.02-2.961-1.339-2.961-2.975v-53.929c0-1.635 1.319-2.955 2.961-2.974" fill="#1476c6"/></g></g></g></svg>
