<?plantuml 1.2026.0?><svg xmlns="http://www.w3.org/2000/svg" xmlns:xlink="http://www.w3.org/1999/xlink" contentStyleType="text/css" data-diagram-type="GANTT" height="245px" preserveAspectRatio="none" style="width:879px;height:245px;background:#FFFFFF;" version="1.1" viewBox="0 0 879 245" width="879px" zoomAndPan="magnify"><defs/><g><line style="stroke:#C0C0C0;stroke-width:1;" x1="0" x2="0" y1="6" y2="236.9988"/><line style="stroke:#C0C0C0;stroke-width:1;" x1="56" x2="56" y1="6" y2="236.9988"/><line style="stroke:#C0C0C0;stroke-width:1;" x1="112" x2="112" y1="6" y2="236.9988"/><line style="stroke:#C0C0C0;stroke-width:1;" x1="168" x2="168" y1="6" y2="236.9988"/><line style="stroke:#C0C0C0;stroke-width:1;" x1="224" x2="224" y1="6" y2="236.9988"/><line style="stroke:#C0C0C0;stroke-width:1;" x1="280" x2="280" y1="6" y2="236.9988"/><line style="stroke:#C0C0C0;stroke-width:1;" x1="336" x2="336" y1="6" y2="236.9988"/><line style="stroke:#C0C0C0;stroke-width:1;" x1="392" x2="392" y1="6" y2="236.9988"/><line style="stroke:#C0C0C0;stroke-width:1;" x1="448" x2="448" y1="6" y2="236.9988"/><line style="stroke:#C0C0C0;stroke-width:1;" x1="504" x2="504" y1="6" y2="236.9988"/><line style="stroke:#C0C0C0;stroke-width:1;" x1="560" x2="560" y1="6" y2="236.9988"/><line style="stroke:#C0C0C0;stroke-width:1;" x1="616" x2="616" y1="6" y2="236.9988"/><line style="stroke:#C0C0C0;stroke-width:1;" x1="672" x2="672" y1="6" y2="236.9988"/><line style="stroke:#C0C0C0;stroke-width:1;" x1="728" x2="728" y1="6" y2="236.9988"/><line style="stroke:#C0C0C0;stroke-width:1;" x1="784" x2="784" y1="6" y2="236.9988"/><line style="stroke:#C0C0C0;stroke-width:1;" x1="840" x2="840" y1="6" y2="236.9988"/><text fill="#000000" font-family="sans-serif" font-size="10" lengthAdjust="spacing" textLength="6" x="25" y="9.65">1</text><text fill="#000000" font-family="sans-serif" font-size="10" lengthAdjust="spacing" textLength="6" x="81" y="9.65">2</text><text fill="#000000" font-family="sans-serif" font-size="10" lengthAdjust="spacing" textLength="6" x="137" y="9.65">3</text><text fill="#000000" font-family="sans-serif" font-size="10" lengthAdjust="spacing" textLength="6" x="193" y="9.65">4</text><text fill="#000000" font-family="sans-serif" font-size="10" lengthAdjust="spacing" textLength="6" x="249" y="9.65">5</text><text fill="#000000" font-family="sans-serif" font-size="10" lengthAdjust="spacing" textLength="6" x="305" y="9.65">6</text><text fill="#000000" font-family="sans-serif" font-size="10" lengthAdjust="spacing" textLength="6" x="361" y="9.65">7</text><text fill="#000000" font-family="sans-serif" font-size="10" lengthAdjust="spacing" textLength="6" x="417" y="9.65">8</text><text fill="#000000" font-family="sans-serif" font-size="10" lengthAdjust="spacing" textLength="6" x="473" y="9.65">9</text><text fill="#000000" font-family="sans-serif" font-size="10" lengthAdjust="spacing" textLength="12" x="526" y="9.65">10</text><text fill="#000000" font-family="sans-serif" font-size="10" lengthAdjust="spacing" textLength="12" x="582" y="9.65">11</text><text fill="#000000" font-family="sans-serif" font-size="10" lengthAdjust="spacing" textLength="12" x="638" y="9.65">12</text><text fill="#000000" font-family="sans-serif" font-size="10" lengthAdjust="spacing" textLength="12" x="694" y="9.65">13</text><text fill="#000000" font-family="sans-serif" font-size="10" lengthAdjust="spacing" textLength="12" x="750" y="9.65">14</text><text fill="#000000" font-family="sans-serif" font-size="10" lengthAdjust="spacing" textLength="12" x="806" y="9.65">15</text><text fill="#000000" font-family="sans-serif" font-size="10" lengthAdjust="spacing" textLength="12" x="862" y="9.65">16</text><path d="M6,24.8749 L12,24.8749 L12,33.7499 L0,33.7499 L0,42.6248 L5,42.6248" fill="none" style="stroke:#181818;stroke-width:1.5;"/><polygon fill="#181818" points="4,38.6248,8,42.6248,4,46.6248,4,38.6248" style="stroke:#181818;stroke-width:1;"/><path d="M120,49.4998 L120,60.3747 L125,60.3747" fill="none" style="stroke:#181818;stroke-width:1.5;"/><polygon fill="#181818" points="124,56.3747,128,60.3747,124,64.3747,124,56.3747" style="stroke:#181818;stroke-width:1;"/><path d="M176,67.2497 L176,78.1246 L181,78.1246" fill="none" style="stroke:#181818;stroke-width:1.5;"/><polygon fill="#181818" points="180,74.1246,184,78.1246,180,82.1246,180,74.1246" style="stroke:#181818;stroke-width:1;"/><path d="M190,78.1246 L196,78.1246 L196,86.9996 L184,86.9996 L184,95.8745 L189,95.8745" fill="none" style="stroke:#181818;stroke-width:1.5;"/><polygon fill="#181818" points="188,91.8745,192,95.8745,188,99.8745,188,91.8745" style="stroke:#181818;stroke-width:1;"/><path d="M304,102.7495 L304,113.6244 L309,113.6244" fill="none" style="stroke:#181818;stroke-width:1.5;"/><polygon fill="#181818" points="308,109.6244,312,113.6244,308,117.6244,308,109.6244" style="stroke:#181818;stroke-width:1;"/><path d="M318,113.6244 L324,113.6244 L324,122.4994 L312,122.4994 L312,131.3743 L317,131.3743" fill="none" style="stroke:#181818;stroke-width:1.5;"/><polygon fill="#181818" points="316,127.3743,320,131.3743,316,135.3743,316,127.3743" style="stroke:#181818;stroke-width:1;"/><path d="M368,138.2493 L368,149.1242 L373,149.1242" fill="none" style="stroke:#181818;stroke-width:1.5;"/><polygon fill="#181818" points="372,145.1242,376,149.1242,372,153.1242,372,145.1242" style="stroke:#181818;stroke-width:1;"/><path d="M382,149.1242 L388,149.1242 L388,157.9992 L376,157.9992 L376,166.8741 L381,166.8741" fill="none" style="stroke:#181818;stroke-width:1.5;"/><polygon fill="#181818" points="380,162.8741,384,166.8741,380,170.8741,380,162.8741" style="stroke:#181818;stroke-width:1;"/><path d="M624,173.7491 L624,184.624 L629,184.624" fill="none" style="stroke:#181818;stroke-width:1.5;"/><polygon fill="#181818" points="628,180.624,632,184.624,628,188.624,628,180.624" style="stroke:#181818;stroke-width:1;"/><path d="M638,184.624 L644,184.624 L644,193.499 L632,193.499 L632,202.3739 L637,202.3739" fill="none" style="stroke:#181818;stroke-width:1.5;"/><polygon fill="#181818" points="636,198.3739,640,202.3739,636,206.3739,636,198.3739" style="stroke:#181818;stroke-width:1;"/><path d="M638,184.624 L644,184.624 L644,211.2489 L632,211.2489 L632,220.1238 L637,220.1238" fill="none" style="stroke:#181818;stroke-width:1.5;"/><polygon fill="#181818" points="636,216.1238,640,220.1238,636,224.1238,636,216.1238" style="stroke:#181818;stroke-width:1;"/><rect fill="#E2E2F0" height="13.7499" style="stroke:none;stroke-width:1;" width="4" x="2" y="18"/><rect fill="none" height="13.7499" style="stroke:#181818;stroke-width:1;" width="4" x="2" y="18"/><rect fill="#E2E2F0" height="13.7499" style="stroke:none;stroke-width:1;" width="116" x="10" y="35.7499"/><rect fill="none" height="13.7499" style="stroke:#181818;stroke-width:1;" width="116" x="10" y="35.7499"/><rect fill="#E2E2F0" height="13.7499" style="stroke:none;stroke-width:1;" width="52" x="130" y="53.4998"/><rect fill="none" height="13.7499" style="stroke:#181818;stroke-width:1;" width="52" x="130" y="53.4998"/><rect fill="#E2E2F0" height="13.7499" style="stroke:none;stroke-width:1;" width="4" x="186" y="71.2497"/><rect fill="none" height="13.7499" style="stroke:#181818;stroke-width:1;" width="4" x="186" y="71.2497"/><rect fill="#E2E2F0" height="13.7499" style="stroke:none;stroke-width:1;" width="116" x="194" y="88.9996"/><rect fill="none" height="13.7499" style="stroke:#181818;stroke-width:1;" width="116" x="194" y="88.9996"/><rect fill="#E2E2F0" height="13.7499" style="stroke:none;stroke-width:1;" width="4" x="314" y="106.7495"/><rect fill="none" height="13.7499" style="stroke:#181818;stroke-width:1;" width="4" x="314" y="106.7495"/><rect fill="#E2E2F0" height="13.7499" style="stroke:none;stroke-width:1;" width="52" x="322" y="124.4994"/><rect fill="none" height="13.7499" style="stroke:#181818;stroke-width:1;" width="52" x="322" y="124.4994"/><rect fill="#E2E2F0" height="13.7499" style="stroke:none;stroke-width:1;" width="4" x="378" y="142.2493"/><rect fill="none" height="13.7499" style="stroke:#181818;stroke-width:1;" width="4" x="378" y="142.2493"/><rect fill="#E2E2F0" height="13.7499" style="stroke:none;stroke-width:1;" width="244" x="386" y="159.9992"/><rect fill="none" height="13.7499" style="stroke:#181818;stroke-width:1;" width="244" x="386" y="159.9992"/><rect fill="#E2E2F0" height="13.7499" style="stroke:none;stroke-width:1;" width="4" x="634" y="177.7491"/><rect fill="none" height="13.7499" style="stroke:#181818;stroke-width:1;" width="4" x="634" y="177.7491"/><rect fill="#E2E2F0" height="13.7499" style="stroke:none;stroke-width:1;" width="36" x="642" y="195.499"/><rect fill="none" height="13.7499" style="stroke:#181818;stroke-width:1;" width="36" x="642" y="195.499"/><rect fill="#E2E2F0" height="13.7499" style="stroke:none;stroke-width:1;" width="236" x="642" y="213.2489"/><rect fill="none" height="13.7499" style="stroke:#181818;stroke-width:1;" width="236" x="642" y="213.2489"/><text fill="#000000" font-family="sans-serif" font-size="11" lengthAdjust="spacing" textLength="103.3992" x="10" y="28.6149">&#1044;&#1086;&#1082;&#1091;&#1084;&#1077;&#1085;&#1090;&#1099; &#1074; &#1044;&#1040;&#1053;&#1050;</text><text fill="#000000" font-family="sans-serif" font-size="11" lengthAdjust="spacing" textLength="146.8488" x="130" y="46.3648">&#1054;&#1078;&#1080;&#1076;&#1072;&#1085;&#1080;&#1077; &#1087;&#1086;&#1076;&#1090;&#1074;&#1077;&#1088;&#1078;&#1076;&#1077;&#1085;&#1080;&#1103;</text><text fill="#000000" font-family="sans-serif" font-size="11" lengthAdjust="spacing" textLength="109.9991" x="186" y="64.1147">&#1044;&#1086;&#1082;&#1091;&#1084;&#1077;&#1085;&#1090;&#1099; &#1074; &#1057;&#1086;&#1074;&#1077;&#1090;</text><text fill="#000000" font-family="sans-serif" font-size="11" lengthAdjust="spacing" textLength="149.5988" x="194" y="81.8646">&#1055;&#1088;&#1080;&#1085;&#1103;&#1090;&#1080;&#1077; &#1082; &#1088;&#1072;&#1089;&#1089;&#1084;&#1086;&#1090;&#1088;&#1077;&#1085;&#1080;&#1102;</text><text fill="#000000" font-family="sans-serif" font-size="11" lengthAdjust="spacing" textLength="213.9483" x="314" y="99.6145">&#1069;&#1082;&#1089;&#1087;&#1077;&#1088;&#1090;&#1085;&#1086;&#1077; &#1079;&#1072;&#1082;&#1083;&#1102;&#1095;&#1077;&#1085;&#1080;&#1077; + &#1086;&#1087;&#1087;&#1086;&#1085;&#1077;&#1085;&#1090;&#1099;</text><text fill="#000000" font-family="sans-serif" font-size="11" lengthAdjust="spacing" textLength="109.9991" x="322" y="117.3644">&#1055;&#1088;&#1080;&#1085;&#1103;&#1090;&#1080;&#1077; &#1082; &#1079;&#1072;&#1097;&#1080;&#1090;&#1077;</text><text fill="#000000" font-family="sans-serif" font-size="11" lengthAdjust="spacing" textLength="132.5489" x="378" y="135.1143">&#1055;&#1077;&#1095;&#1072;&#1090;&#1100; &#1072;&#1074;&#1090;&#1086;&#1088;&#1077;&#1092;&#1077;&#1088;&#1072;&#1090;&#1086;&#1074;</text><text fill="#000000" font-family="sans-serif" font-size="11" lengthAdjust="spacing" textLength="147.9488" x="386" y="152.8642">&#1056;&#1072;&#1089;&#1089;&#1099;&#1083;&#1082;&#1072; &#1072;&#1074;&#1090;&#1086;&#1088;&#1077;&#1092;&#1077;&#1088;&#1072;&#1090;&#1086;&#1074;</text><text fill="#000000" font-family="sans-serif" font-size="11" lengthAdjust="spacing" textLength="103.9492" x="390" y="170.6141">&#1054;&#1078;&#1080;&#1076;&#1072;&#1085;&#1080;&#1077; &#1079;&#1072;&#1097;&#1080;&#1090;&#1099;</text><text fill="#000000" font-family="sans-serif" font-size="11" lengthAdjust="spacing" textLength="42.8997" x="642" y="188.364">&#1047;&#1072;&#1097;&#1080;&#1090;&#1072;</text><text fill="#000000" font-family="sans-serif" font-size="11" lengthAdjust="spacing" textLength="195.7984" x="682" y="206.1139">&#1055;&#1086;&#1076;&#1075;&#1086;&#1090;&#1086;&#1074;&#1082;&#1072; &#1086;&#1089;&#1085;&#1086;&#1074;&#1085;&#1099;&#1093; &#1076;&#1086;&#1082;&#1091;&#1084;&#1077;&#1085;&#1090;&#1086;&#1074;</text><text fill="#000000" font-family="sans-serif" font-size="11" lengthAdjust="spacing" textLength="136.9489" x="646" y="223.8638">&#1055;&#1086;&#1076;&#1075;&#1086;&#1090;&#1086;&#1074;&#1082;&#1072; &#1076;&#1086;&#1082;&#1091;&#1084;&#1077;&#1085;&#1090;&#1086;&#1074;</text><text fill="#000000" font-family="sans-serif" font-size="10" lengthAdjust="spacing" textLength="6" x="25" y="241.6488">1</text><text fill="#000000" font-family="sans-serif" font-size="10" lengthAdjust="spacing" textLength="6" x="81" y="241.6488">2</text><text fill="#000000" font-family="sans-serif" font-size="10" lengthAdjust="spacing" textLength="6" x="137" y="241.6488">3</text><text fill="#000000" font-family="sans-serif" font-size="10" lengthAdjust="spacing" textLength="6" x="193" y="241.6488">4</text><text fill="#000000" font-family="sans-serif" font-size="10" lengthAdjust="spacing" textLength="6" x="249" y="241.6488">5</text><text fill="#000000" font-family="sans-serif" font-size="10" lengthAdjust="spacing" textLength="6" x="305" y="241.6488">6</text><text fill="#000000" font-family="sans-serif" font-size="10" lengthAdjust="spacing" textLength="6" x="361" y="241.6488">7</text><text fill="#000000" font-family="sans-serif" font-size="10" lengthAdjust="spacing" textLength="6" x="417" y="241.6488">8</text><text fill="#000000" font-family="sans-serif" font-size="10" lengthAdjust="spacing" textLength="6" x="473" y="241.6488">9</text><text fill="#000000" font-family="sans-serif" font-size="10" lengthAdjust="spacing" textLength="12" x="526" y="241.6488">10</text><text fill="#000000" font-family="sans-serif" font-size="10" lengthAdjust="spacing" textLength="12" x="582" y="241.6488">11</text><text fill="#000000" font-family="sans-serif" font-size="10" lengthAdjust="spacing" textLength="12" x="638" y="241.6488">12</text><text fill="#000000" font-family="sans-serif" font-size="10" lengthAdjust="spacing" textLength="12" x="694" y="241.6488">13</text><text fill="#000000" font-family="sans-serif" font-size="10" lengthAdjust="spacing" textLength="12" x="750" y="241.6488">14</text><text fill="#000000" font-family="sans-serif" font-size="10" lengthAdjust="spacing" textLength="12" x="806" y="241.6488">15</text><text fill="#000000" font-family="sans-serif" font-size="10" lengthAdjust="spacing" textLength="12" x="862" y="241.6488">16</text><?plantuml-src fLNDJi904BxtAURcmKZu2NepleVnqC364B5ejyJW2Qg660nuC34nKVG1J9fAbO0jhp3xHawtG0fPe9LJixFx_SpkVEaHjtJJEjKDoz8kp8fXyP9UPN35s5cr0TUrsZdaDQvRTREiDq0t6PIgDSxA6gyRInNj69ymm96umL_qq1Usw02wGDL7VCMN4p3PPRrYCWuv82mdm1j-un07wA1FNmzmGWm3OQEBdcZIvY1amg7enT756Lojzq7L46_7C0SpI9zeXtIuHo9ISGHKSKHBj8Wc89BcLBAhCln9UYroIUw8m2SbelWX_oCSYwveHrWgxWBjJMG__ioTiWU5eP1Gt9C56psLYJx9j-c8BHw0f5qw5uIsnQsyDITSewlg_ZtgL7HmJ8wTPEZLhpNtkT1ROGvudlVXgFkWnyQlyDRbaqb70TslBvU-w8Wxe1CBZxnahhYMR3ssa8t0AGTHHeQ3Ri6cYT_Xm8noaa6DSwRmabnWxn3I3N_Qh4Y1xUAnVRvMTRcGg2IXYuYIvIn58YLjYX2cZAoaNvlIZIcM5F7SBiTuUZF_JMvoEYNwYCOz-bjfkKm-cz_FPFy0?></g></svg>