<?plantuml 1.2026.0?><svg xmlns="http://www.w3.org/2000/svg" xmlns:xlink="http://www.w3.org/1999/xlink" contentStyleType="text/css" data-diagram-type="ACTIVITY" height="493px" preserveAspectRatio="none" style="width:1140px;height:493px;background:#FFFFFF;" version="1.1" viewBox="0 0 1140 493" width="1140px" zoomAndPan="magnify"><defs/><g><rect fill="none" height="22.4999" style="stroke:none;stroke-width:1;" width="1107.7523" x="15" y="13.63"/><ellipse cx="220.8001" cy="51.1298" fill="#F1F1F1" rx="10" ry="10" style="stroke:#181818;stroke-width:0.5;"/><path d="M221.222,56.1298 L218.8626,56.1298 L218.8626,47.3173 L221.222,47.3173 Q221.5501,47.3173 221.8626,47.3642 Q222.1907,47.4111 222.4876,47.5517 Q222.7845,47.6767 223.0501,47.8798 Q223.3157,48.083 223.472,48.3798 Q223.6439,48.6611 223.7064,48.9892 Q223.7689,49.3017 223.7689,49.6455 Q223.7689,49.9267 223.7064,50.2236 Q223.6595,50.5205 223.5032,50.7861 Q223.347,51.0361 223.1126,51.2236 Q222.8782,51.4111 222.597,51.5361 Q222.9407,51.6455 223.2376,51.8486 Q223.5345,52.0361 223.7376,52.3173 Q223.9564,52.5986 224.0501,52.958 Q224.1439,53.3017 224.1439,53.6455 Q224.1439,54.0048 224.0501,54.3642 Q223.972,54.7236 223.7689,55.0361 Q223.5657,55.333 223.2689,55.5517 Q222.972,55.7705 222.6282,55.9111 Q222.3001,56.0361 221.9407,56.083 Q221.5814,56.1298 221.222,56.1298 Z M219.847,51.1298 L221.222,51.1298 Q221.4251,51.1298 221.6126,51.0986 Q221.8157,51.0517 222.0032,50.9736 Q222.1907,50.8798 222.347,50.7548 Q222.5032,50.6142 222.597,50.4423 Q222.7064,50.2548 222.7376,50.0517 Q222.7845,49.8486 222.7845,49.6455 Q222.7845,49.4423 222.7376,49.2548 Q222.7064,49.0517 222.597,48.8798 Q222.5032,48.6923 222.347,48.5517 Q222.1907,48.4111 222.0032,48.333 Q221.8157,48.2548 221.6126,48.2236 Q221.4251,48.1923 221.222,48.1923 L219.847,48.1923 L219.847,51.1298 Z M219.847,55.2392 L221.222,55.2392 Q221.4564,55.2392 221.6907,55.208 Q221.9251,55.1767 222.1439,55.0986 Q222.3782,55.0205 222.5657,54.8798 Q222.7689,54.7236 222.8939,54.5361 Q223.0345,54.3486 223.0814,54.1142 Q223.1439,53.8642 223.1439,53.6298 Q223.1439,53.3955 223.0814,53.1611 Q223.0345,52.9111 222.8939,52.7236 Q222.7689,52.5205 222.5657,52.3798 Q222.3782,52.2236 222.1439,52.1455 Q221.9251,52.0673 221.6907,52.0361 Q221.4564,52.0048 221.222,52.0048 L219.847,52.0048 L219.847,55.2392 Z " fill="#000000"/><polygon fill="#F1F1F1" points="184.5004,81.1298,257.0998,81.1298,269.0998,93.1298,257.0998,105.1298,184.5004,105.1298,172.5004,93.1298,184.5004,81.1298" style="stroke:#181818;stroke-width:0.5;"/><text fill="#000000" font-family="sans-serif" font-size="11" lengthAdjust="spacing" textLength="72.5994" x="184.5004" y="96.8698">&#1055;&#1086;&#1083;&#1091;&#1095;&#1072;&#1090;&#1077;&#1083;&#1100;?</text><text fill="#000000" font-family="sans-serif" font-size="11" lengthAdjust="spacing" textLength="65.9995" x="106.501" y="89.9948">&#1057;&#1086;&#1080;&#1089;&#1082;&#1072;&#1090;&#1077;&#1083;&#1100;</text><text fill="#000000" font-family="sans-serif" font-size="11" lengthAdjust="spacing" textLength="32.9997" x="269.0998" y="89.9948">&#1057;&#1086;&#1074;&#1077;&#1090;</text><rect fill="#F1F1F1" height="50.0002" rx="12.5" ry="12.5" style="stroke:#181818;stroke-width:0.5;" width="70.4004" x="21" y="125.1298"/><text fill="#000000" font-family="sans-serif" font-size="12" lengthAdjust="spacing" textLength="45.6004" x="31" y="146.7099">&#1042;&#1099;&#1076;&#1072;&#1090;&#1100;</text><text fill="#000000" font-family="sans-serif" font-size="12" lengthAdjust="spacing" textLength="50.4004" x="31" y="161.71">&#1089;&#1087;&#1088;&#1072;&#1074;&#1082;&#1091;</text><rect fill="#F1F1F1" height="50.0002" rx="12.5" ry="12.5" style="stroke:#181818;stroke-width:0.5;" width="101.6006" x="312.0995" y="125.1298"/><text fill="#000000" font-family="sans-serif" font-size="12" lengthAdjust="spacing" textLength="64.8005" x="322.0995" y="146.7099">&#1056;&#1072;&#1079;&#1086;&#1089;&#1083;&#1072;&#1090;&#1100;</text><text fill="#000000" font-family="sans-serif" font-size="12" lengthAdjust="spacing" textLength="81.6006" x="322.0995" y="161.71">&#1076;&#1080;&#1089;&#1089;&#1077;&#1088;&#1090;&#1072;&#1094;&#1080;&#1102;</text><line style="stroke:#000000;stroke-width:1.5;" x1="15" x2="15" y1="13.63" y2="481.464"/><rect fill="#F1F1F1" height="35.0001" rx="12.5" ry="12.5" style="stroke:#181818;stroke-width:0.5;" width="132.2009" x="479.4004" y="237.6298"/><text fill="#000000" font-family="sans-serif" font-size="12" lengthAdjust="spacing" textLength="112.2009" x="489.4004" y="259.2099">&#1055;&#1086;&#1083;&#1091;&#1095;&#1080;&#1090;&#1100; &#1089;&#1087;&#1088;&#1072;&#1074;&#1082;&#1091;</text><path d="M422.7002,288.255 L422.7002,347.0051 A0,0 0 0 0 422.7002,347.0051 L611.4003,347.0051 A0,0 0 0 0 611.4003,347.0051 L611.4003,321.63 L631.4003,317.63 L611.4003,313.63 L611.4003,298.255 L601.4003,288.255 L422.7002,288.255 A0,0 0 0 0 422.7002,288.255" fill="#FEFFDD" style="stroke:#181818;stroke-width:0.5;"/><path d="M601.4003,288.255 L601.4003,298.255 L611.4003,298.255 L601.4003,288.255" fill="#FEFFDD" style="stroke:#181818;stroke-width:0.5;"/><text fill="#000000" font-family="sans-serif" font-size="13" lengthAdjust="spacing" textLength="121.55" x="428.7002" y="305.8">- &#1057;&#1087;&#1088;&#1072;&#1074;&#1082;&#1072; &#1086; &#1089;&#1076;&#1072;&#1095;&#1077;</text><text fill="#000000" font-family="sans-serif" font-size="13" lengthAdjust="spacing" textLength="127.4001" x="437.8002" y="322.05">&#1076;&#1086;&#1082;&#1091;&#1084;&#1077;&#1085;&#1090;&#1086;&#1074; &#1074; &#1044;&#1040;&#1053;&#1050;</text><text fill="#000000" font-family="sans-serif" font-size="13" lengthAdjust="spacing" textLength="167.7001" x="428.7002" y="338.3001">- &#1054;&#1088;&#1080;&#1075;&#1080;&#1085;&#1072;&#1083;&#1099; &#1076;&#1086;&#1082;&#1091;&#1084;&#1077;&#1085;&#1090;&#1086;&#1074;</text><rect fill="#F1F1F1" height="50.0002" rx="12.5" ry="12.5" style="stroke:#181818;stroke-width:0.5;" width="157.4011" x="631.4003" y="292.6299"/><text fill="#000000" font-family="sans-serif" font-size="12" lengthAdjust="spacing" textLength="137.4011" x="641.4003" y="314.21">&#1054;&#1090;&#1087;&#1088;&#1072;&#1074;&#1080;&#1090;&#1100; &#1076;&#1086;&#1082;&#1091;&#1084;&#1077;&#1085;&#1090;&#1099;</text><text fill="#000000" font-family="sans-serif" font-size="12" lengthAdjust="spacing" textLength="67.2005" x="641.4003" y="329.2101">&#1057;&#1077;&#1082;&#1088;&#1077;&#1090;&#1072;&#1088;&#1102;</text><line style="stroke:#000000;stroke-width:1.5;" x1="417.7002" x2="417.7002" y1="13.63" y2="481.464"/><path d="M828.5013,210.13 L828.5013,252.6301 A0,0 0 0 0 828.5013,252.6301 L954.8013,252.6301 A0,0 0 0 0 954.8013,252.6301 L954.8013,235.3801 L974.8013,231.3801 L954.8013,227.3801 L954.8013,220.13 L944.8013,210.13 L828.5013,210.13 A0,0 0 0 0 828.5013,210.13" fill="#FEFFDD" style="stroke:#181818;stroke-width:0.5;"/><path d="M944.8013,210.13 L944.8013,220.13 L954.8013,220.13 L944.8013,210.13" fill="#FEFFDD" style="stroke:#181818;stroke-width:0.5;"/><text fill="#000000" font-family="sans-serif" font-size="13" lengthAdjust="spacing" textLength="105.3" x="834.5013" y="227.675">&#1047;&#1072;&#1092;&#1080;&#1082;&#1089;&#1080;&#1088;&#1086;&#1074;&#1072;&#1090;&#1100;</text><text fill="#000000" font-family="sans-serif" font-size="13" lengthAdjust="spacing" textLength="100.75" x="834.5013" y="243.9251">&#1076;&#1072;&#1090;&#1091; &#1088;&#1072;&#1089;&#1089;&#1099;&#1083;&#1082;&#1080;</text><rect fill="#F1F1F1" height="35.0001" rx="12.5" ry="12.5" style="stroke:#181818;stroke-width:0.5;" width="141.801" x="974.8013" y="213.88"/><text fill="#000000" font-family="sans-serif" font-size="12" lengthAdjust="spacing" textLength="121.801" x="984.8013" y="235.4601">&#1055;&#1086;&#1083;&#1091;&#1095;&#1080;&#1090;&#1100; &#1088;&#1072;&#1089;&#1089;&#1099;&#1083;&#1082;&#1091;</text><rect fill="#F1F1F1" height="50.0002" rx="12.5" ry="12.5" style="stroke:#181818;stroke-width:0.5;" width="164.6011" x="798.8013" y="391.4637"/><text fill="#000000" font-family="sans-serif" font-size="12" lengthAdjust="spacing" textLength="57.6005" x="808.8013" y="413.0438">&#1055;&#1086;&#1083;&#1091;&#1095;&#1080;&#1090;&#1100;</text><text fill="#000000" font-family="sans-serif" font-size="12" lengthAdjust="spacing" textLength="144.6011" x="808.8013" y="428.0439">&#1086;&#1088;&#1080;&#1075;&#1080;&#1085;&#1072;&#1083;&#1099; &#1076;&#1086;&#1082;&#1091;&#1084;&#1077;&#1085;&#1090;&#1086;&#1074;</text><ellipse cx="881.1019" cy="471.464" fill="#F1F1F1" rx="10" ry="10" style="stroke:#181818;stroke-width:0.5;"/><path d="M881.1644,476.5577 Q880.8206,476.5577 880.4769,476.4952 Q880.1331,476.4327 879.8206,476.2921 Q879.5081,476.1358 879.2581,475.9015 Q879.0081,475.6515 878.8363,475.3546 Q878.68,475.0421 878.6175,474.6983 Q878.555,474.3546 878.555,474.0108 L878.555,470.1046 Q878.555,469.7608 878.6175,469.4171 Q878.68,469.0733 878.8363,468.7765 Q879.0081,468.464 879.2581,468.214 Q879.5081,467.964 879.8206,467.8233 Q880.1331,467.6671 880.4769,467.6046 Q880.8206,467.5421 881.1644,467.5421 Q881.4925,467.5421 881.805,467.589 Q882.1331,467.6358 882.43,467.7608 Q882.7269,467.8702 882.9769,468.0733 Q883.2425,468.2608 883.4144,468.5421 Q883.5863,468.8077 883.68,469.1202 Q883.7738,469.4327 883.7738,469.7608 L883.7738,469.8077 L882.7738,469.8077 L882.7738,469.7608 Q882.7738,469.4796 882.6488,469.214 Q882.5238,468.9327 882.2894,468.7608 Q882.055,468.5733 881.7581,468.5108 Q881.4613,468.4327 881.1644,468.4327 Q880.9456,468.4327 880.7269,468.4796 Q880.5081,468.5108 880.305,468.6202 Q880.1175,468.7296 879.9613,468.8858 Q879.805,469.0421 879.7113,469.2452 Q879.6331,469.4483 879.5863,469.6671 Q879.555,469.8702 879.555,470.1046 L879.555,474.0108 Q879.555,474.2296 879.5863,474.4483 Q879.6331,474.6671 879.7113,474.8702 Q879.805,475.0577 879.9613,475.2296 Q880.1175,475.3858 880.305,475.4952 Q880.5081,475.6046 880.7269,475.6358 Q880.9456,475.6671 881.1644,475.6671 Q881.4613,475.6671 881.7581,475.6046 Q882.055,475.5421 882.2894,475.3702 Q882.5238,475.1827 882.6488,474.9015 Q882.7738,474.6202 882.7738,474.339 L882.7738,474.3077 L883.7738,474.3077 L883.7738,474.3546 Q883.7738,474.6827 883.68,474.9952 Q883.5863,475.3077 883.4144,475.5733 Q883.2425,475.839 882.9769,476.0421 Q882.7269,476.2296 882.43,476.3546 Q882.1331,476.4796 881.805,476.5108 Q881.4925,476.5577 881.1644,476.5577 Z " fill="#000000"/><line style="stroke:#000000;stroke-width:1.5;" x1="792.8013" x2="792.8013" y1="13.63" y2="481.464"/><line style="stroke:#000000;stroke-width:1.5;" x1="1120.6023" x2="1120.6023" y1="13.63" y2="481.464"/><line style="stroke:#181818;stroke-width:1;" x1="172.5004" x2="56.2002" y1="93.1298" y2="93.1298"/><line style="stroke:#181818;stroke-width:1;" x1="56.2002" x2="56.2002" y1="93.1298" y2="125.1298"/><polygon fill="#181818" points="52.2002,115.1298,56.2002,125.1298,60.2002,115.1298,56.2002,119.1298" style="stroke:#181818;stroke-width:1;"/><line style="stroke:#181818;stroke-width:1;" x1="269.0998" x2="362.8999" y1="93.1298" y2="93.1298"/><line style="stroke:#181818;stroke-width:1;" x1="362.8999" x2="362.8999" y1="93.1298" y2="125.1298"/><polygon fill="#181818" points="358.8999,115.1298,362.8999,125.1298,366.8999,115.1298,362.8999,119.1298" style="stroke:#181818;stroke-width:1;"/><line style="stroke:#181818;stroke-width:1;" x1="220.8001" x2="220.8001" y1="61.1298" y2="81.1298"/><polygon fill="#181818" points="216.8001,71.1298,220.8001,81.1298,224.8001,71.1298,220.8001,75.1298" style="stroke:#181818;stroke-width:1;"/><line style="stroke:#181818;stroke-width:1;" x1="881.1019" x2="881.1019" y1="441.464" y2="461.464"/><polygon fill="#181818" points="877.1019,451.464,881.1019,461.464,885.1019,451.464,881.1019,455.464" style="stroke:#181818;stroke-width:1;"/><line style="stroke:#181818;stroke-width:1;" x1="56.2002" x2="56.2002" y1="175.13" y2="206.3799"/><line style="stroke:#181818;stroke-width:1;" x1="56.2002" x2="545.5009" y1="206.3799" y2="206.3799"/><line style="stroke:#181818;stroke-width:1;" x1="545.5009" x2="545.5009" y1="206.3799" y2="237.6298"/><polygon fill="#181818" points="541.5009,227.6298,545.5009,237.6298,549.5009,227.6298,545.5009,231.6298" style="stroke:#181818;stroke-width:1;"/><text fill="#000000" font-family="sans-serif" font-size="11" lengthAdjust="spacing" textLength="87.9993" x="60.2002" y="187.62">&#1055;&#1086;&#1076;&#1090;&#1074;&#1077;&#1088;&#1078;&#1076;&#1077;&#1085;&#1080;&#1077;</text><text fill="#000000" font-family="sans-serif" font-size="11" lengthAdjust="spacing" textLength="52.7996" x="75.6001" y="201.3699">&#1087;&#1088;&#1080;&#1085;&#1103;&#1090;&#1080;&#1103;</text><line style="stroke:#181818;stroke-width:1;" x1="362.8999" x2="362.8999" y1="175.13" y2="194.505"/><line style="stroke:#181818;stroke-width:1;" x1="362.8999" x2="1045.7018" y1="194.505" y2="194.505"/><line style="stroke:#181818;stroke-width:1;" x1="1045.7018" x2="1045.7018" y1="194.505" y2="213.88"/><polygon fill="#181818" points="1041.7018,203.88,1045.7018,213.88,1049.7018,203.88,1045.7018,207.88" style="stroke:#181818;stroke-width:1;"/><line style="stroke:#181818;stroke-width:1;" x1="545.5009" x2="545.5009" y1="272.6299" y2="277.6299"/><line style="stroke:#181818;stroke-width:1;" x1="545.5009" x2="710.1008" y1="277.6299" y2="277.6299"/><line style="stroke:#181818;stroke-width:1;" x1="710.1008" x2="710.1008" y1="277.6299" y2="292.6299"/><polygon fill="#181818" points="706.1008,282.6299,710.1008,292.6299,714.1008,282.6299,710.1008,286.6299" style="stroke:#181818;stroke-width:1;"/><line style="stroke:#181818;stroke-width:1;" x1="710.1008" x2="710.1008" y1="342.6301" y2="376.0675"/><line style="stroke:#181818;stroke-width:1;" x1="710.1008" x2="881.1019" y1="376.0675" y2="376.0675"/><line style="stroke:#181818;stroke-width:1;" x1="881.1019" x2="881.1019" y1="376.0675" y2="391.4637"/><polygon fill="#181818" points="877.1019,381.4637,881.1019,391.4637,885.1019,381.4637,881.1019,385.4637" style="stroke:#181818;stroke-width:1;"/><text fill="#000000" font-family="sans-serif" font-size="11" lengthAdjust="spacing" textLength="61.5995" x="714.1008" y="356.2138">&#1054;&#1088;&#1080;&#1075;&#1080;&#1085;&#1072;&#1083;&#1099;</text><text fill="#000000" font-family="sans-serif" font-size="11" lengthAdjust="spacing" textLength="67.0994" x="714.1008" y="369.9637">&#1076;&#1086;&#1082;&#1091;&#1084;&#1077;&#1085;&#1090;&#1086;&#1074;</text><text fill="#000000" font-family="sans-serif" font-size="18" lengthAdjust="spacing" textLength="43.1997" x="194.7502" y="30.9999">&#1044;&#1040;&#1053;&#1050;</text><text fill="#000000" font-family="sans-serif" font-size="18" lengthAdjust="spacing" textLength="107.9993" x="551.2511" y="30.9999">&#1057;&#1086;&#1080;&#1089;&#1082;&#1072;&#1090;&#1077;&#1083;&#1100;</text><text fill="#000000" font-family="sans-serif" font-size="18" lengthAdjust="spacing" textLength="97.1993" x="908.1021" y="30.9999">&#1057;&#1077;&#1082;&#1088;&#1077;&#1090;&#1072;&#1088;&#1100;</text><?plantuml-src ZLBDJi904BxFK-oH7dW1csYYhsA9H887EVQ0rCW10iQOc9Y8-WODKjrGgQ_mxHlvpL9eKY2XsSFkp7m_CzCOptZ46rvZQPm7qcwP1jvH87U96o9r0sIyZyy2qxkAkan-CcdT7PPLCf0JFBaH5XfoOs7sp_MHOewbIq9fdXhFkI1WZeofRzPcMC4Y4yFFrrkit9Gbrar3YVS9nHIgp5aLCtMnk6eewjn6fMEL7QZF3rR-e20gBztI2cKOe34AfUw1xydQGKREla8PxX_GfxR2sN--Tj2zwKM25uRlsTEIp9P5wc4hg9Ua1eMLg7jfFFgwtUduLxjrU18pFZQjhxsGkL0F-DNfCZIIdIOcfS6cOMexEQG6XSvIlGtzLkfase7HKyvN6MP-RL-wElBaRhGNLVMbVy8EHlPXZfs_S9V7U0YbSH7y0m00?></g></svg>