<svg xmlns="http://www.w3.org/2000/svg" xmlns:xlink="http://www.w3.org/1999/xlink" contentStyleType="text/css" height="714px" preserveAspectRatio="none" style="width:1298px;height:714px;background:#FFFFFF;" version="1.1" viewBox="0 0 1298 714" width="1298px" zoomAndPan="magnify"><defs/><g><rect fill="none" height="22.4999" style="stroke:none;stroke-width:1.0;" width="1265.6059" x="15" y="13.63"/><rect fill="#F1F1F1" height="50.0002" rx="12.5" ry="12.5" style="stroke:#181818;stroke-width:0.5;" width="140.001" x="21" y="314.1302"/><text fill="#000000" font-family="sans-serif" font-size="12" lengthAdjust="spacing" textLength="64.8005" x="31" y="335.7103">&#1055;&#1088;&#1086;&#1074;&#1077;&#1088;&#1080;&#1090;&#1100;</text><text fill="#000000" font-family="sans-serif" font-size="12" lengthAdjust="spacing" textLength="120.001" x="31" y="350.7104">&#1089;&#1087;&#1080;&#1089;&#1086;&#1082; &#1087;&#1091;&#1073;&#1083;&#1080;&#1082;&#1072;&#1094;&#1080;&#1081;</text><line style="stroke:#000000;stroke-width:1.5;" x1="15" x2="15" y1="13.63" y2="702.246"/><ellipse cx="410.2024" cy="51.1298" fill="#222222" rx="10" ry="10" style="stroke:#222222;stroke-width:1.0;"/><rect fill="#555555" height="6" rx="2.5" ry="2.5" style="stroke:#555555;stroke-width:1.0;" width="472.4028" x="183.001" y="81.1298"/><rect fill="#F1F1F1" height="50.0002" rx="12.5" ry="12.5" style="stroke:#181818;stroke-width:0.5;" width="101.6006" x="195.001" y="107.1298"/><text fill="#000000" font-family="sans-serif" font-size="12" lengthAdjust="spacing" textLength="79.2006" x="205.001" y="128.7099">&#1055;&#1086;&#1076;&#1075;&#1086;&#1090;&#1086;&#1074;&#1080;&#1090;&#1100;</text><text fill="#000000" font-family="sans-serif" font-size="12" lengthAdjust="spacing" textLength="81.6006" x="205.001" y="143.71">&#1076;&#1080;&#1089;&#1089;&#1077;&#1088;&#1090;&#1072;&#1094;&#1080;&#1102;</text><rect fill="#F1F1F1" height="50.0002" rx="12.5" ry="12.5" style="stroke:#181818;stroke-width:0.5;" width="101.6006" x="195.001" y="192.13"/><text fill="#000000" font-family="sans-serif" font-size="12" lengthAdjust="spacing" textLength="79.2006" x="205.001" y="213.7101">&#1055;&#1086;&#1076;&#1075;&#1086;&#1090;&#1086;&#1074;&#1080;&#1090;&#1100;</text><text fill="#000000" font-family="sans-serif" font-size="12" lengthAdjust="spacing" textLength="81.6006" x="205.001" y="228.7102">&#1072;&#1074;&#1090;&#1086;&#1088;&#1077;&#1092;&#1077;&#1088;&#1072;&#1090;</text><rect fill="#F1F1F1" height="50.0002" rx="12.5" ry="12.5" style="stroke:#181818;stroke-width:0.5;" width="168.8012" x="306.6016" y="149.6299"/><text fill="#000000" font-family="sans-serif" font-size="12" lengthAdjust="spacing" textLength="122.401" x="316.6016" y="171.21">&#1055;&#1086;&#1076;&#1075;&#1086;&#1090;&#1086;&#1074;&#1080;&#1090;&#1100; &#1086;&#1090;&#1079;&#1099;&#1074;</text><text fill="#000000" font-family="sans-serif" font-size="12" lengthAdjust="spacing" textLength="148.8012" x="316.6016" y="186.2101">&#1085;&#1072;&#1091;&#1095;&#1085;&#1086;&#1075;&#1086; &#1088;&#1091;&#1082;&#1086;&#1074;&#1086;&#1076;&#1080;&#1090;&#1077;&#1083;&#1103;</text><rect fill="#F1F1F1" height="50.0002" rx="12.5" ry="12.5" style="stroke:#181818;stroke-width:0.5;" width="140.001" x="503.4028" y="149.6299"/><text fill="#000000" font-family="sans-serif" font-size="12" lengthAdjust="spacing" textLength="79.2006" x="513.4028" y="171.21">&#1055;&#1086;&#1076;&#1075;&#1086;&#1090;&#1086;&#1074;&#1080;&#1090;&#1100;</text><text fill="#000000" font-family="sans-serif" font-size="12" lengthAdjust="spacing" textLength="120.001" x="513.4028" y="186.2101">&#1089;&#1087;&#1080;&#1089;&#1086;&#1082; &#1087;&#1091;&#1073;&#1083;&#1080;&#1082;&#1072;&#1094;&#1080;&#1081;</text><rect fill="#555555" height="6" rx="2.5" ry="2.5" style="stroke:#555555;stroke-width:1.0;" width="472.4028" x="183.001" y="262.1302"/><rect fill="#555555" height="6" rx="2.5" ry="2.5" style="stroke:#555555;stroke-width:1.0;" width="496.4028" x="171.001" y="288.1302"/><rect fill="#555555" height="6" rx="2.5" ry="2.5" style="stroke:#555555;stroke-width:1.0;" width="496.4028" x="171.001" y="384.1305"/><rect fill="#F1F1F1" height="50.0002" rx="12.5" ry="12.5" style="stroke:#181818;stroke-width:0.5;" width="183.2013" x="318.6017" y="410.1305"/><text fill="#000000" font-family="sans-serif" font-size="12" lengthAdjust="spacing" textLength="120.001" x="328.6017" y="431.7105">&#1055;&#1086;&#1076;&#1075;&#1086;&#1090;&#1086;&#1074;&#1080;&#1090;&#1100; &#1086;&#1090;&#1095;&#1105;&#1090;</text><text fill="#000000" font-family="sans-serif" font-size="12" lengthAdjust="spacing" textLength="163.2013" x="328.6017" y="446.7106">&#1086; &#1085;&#1072;&#1083;&#1080;&#1095;&#1080;&#1080; &#1079;&#1072;&#1080;&#1084;&#1089;&#1090;&#1074;&#1086;&#1074;&#1072;&#1085;&#1080;&#1081;</text><rect fill="#F1F1F1" height="50.0002" rx="12.5" ry="12.5" style="stroke:#181818;stroke-width:0.5;" width="166.4012" x="327.0018" y="557.2457"/><text fill="#000000" font-family="sans-serif" font-size="12" lengthAdjust="spacing" textLength="120.001" x="337.0018" y="578.8258">&#1055;&#1088;&#1086;&#1074;&#1077;&#1088;&#1080;&#1090;&#1100; &#1085;&#1072;&#1083;&#1080;&#1095;&#1080;&#1077;</text><text fill="#000000" font-family="sans-serif" font-size="12" lengthAdjust="spacing" textLength="146.4012" x="337.0018" y="593.8259">&#1086;&#1089;&#1090;&#1072;&#1083;&#1100;&#1085;&#1099;&#1093; &#1076;&#1086;&#1082;&#1091;&#1084;&#1077;&#1085;&#1090;&#1086;&#1074;</text><rect fill="#F1F1F1" height="35.0001" rx="12.5" ry="12.5" style="stroke:#181818;stroke-width:0.5;" width="204.8015" x="307.8016" y="627.2459"/><text fill="#000000" font-family="sans-serif" font-size="12" lengthAdjust="spacing" textLength="184.8015" x="317.8016" y="648.826">&#1054;&#1090;&#1087;&#1088;&#1072;&#1074;&#1080;&#1090;&#1100; &#1076;&#1086;&#1082;&#1091;&#1084;&#1077;&#1085;&#1090;&#1099; &#1074; &#1044;&#1040;&#1053;&#1050;</text><ellipse cx="410.2024" cy="692.246" fill="#F1F1F1" rx="10" ry="10" style="stroke:#181818;stroke-width:0.5;"/><path d="M407.4211,696.996 L409.7336,688.1835 L410.8742,688.1835 L413.1867,696.996 L412.1555,696.996 L411.593,694.746 L408.9992,694.746 L408.4524,696.996 L407.4211,696.996 Z M411.3899,693.871 L410.7024,691.121 Q410.6086,690.7147 410.4992,690.3085 Q410.4055,689.8866 410.2961,689.4647 Q410.2024,689.8866 410.093,690.3085 Q409.9992,690.7147 409.9055,691.121 L409.218,693.871 L411.3899,693.871 Z " fill="#000000"/><line style="stroke:#000000;stroke-width:1.5;" x1="165.001" x2="165.001" y1="13.63" y2="702.246"/><path d="M918.8046,317.8803 L918.8046,360.3804 A0,0 0 0 0 918.8046,360.3804 L1082.8047,360.3804 A0,0 0 0 0 1082.8047,360.3804 L1082.8047,343.1304 L1102.8047,339.1304 L1082.8047,335.1304 L1082.8047,327.8803 L1072.8047,317.8803 L918.8046,317.8803 A0,0 0 0 0 918.8046,317.8803 " fill="#FEFFDD" style="stroke:#181818;stroke-width:0.5;"/><path d="M1072.8047,317.8803 L1072.8047,327.8803 L1082.8047,327.8803 L1072.8047,317.8803 " fill="#FEFFDD" style="stroke:#181818;stroke-width:0.5;"/><text fill="#000000" font-family="sans-serif" font-size="13" lengthAdjust="spacing" textLength="143.0001" x="924.8046" y="335.4253">&#1041;&#1086;&#1083;&#1100;&#1096;&#1077; &#1076;&#1080;&#1089;&#1089;&#1077;&#1088;&#1090;&#1072;&#1094;&#1080;&#1102;</text><text fill="#000000" font-family="sans-serif" font-size="13" lengthAdjust="spacing" textLength="117.0001" x="924.8046" y="351.6754">&#1080;&#1079;&#1084;&#1077;&#1085;&#1103;&#1090;&#1100; &#1085;&#1077;&#1083;&#1100;&#1079;&#1103;</text><rect fill="#F1F1F1" height="50.0002" rx="12.5" ry="12.5" style="stroke:#181818;stroke-width:0.5;" width="171.2012" x="1102.8047" y="314.1302"/><text fill="#000000" font-family="sans-serif" font-size="12" lengthAdjust="spacing" textLength="151.2012" x="1112.8047" y="335.7103">&#1055;&#1088;&#1086;&#1074;&#1077;&#1088;&#1080;&#1090;&#1100; &#1076;&#1080;&#1089;&#1089;&#1077;&#1088;&#1090;&#1072;&#1094;&#1080;&#1102;</text><text fill="#000000" font-family="sans-serif" font-size="12" lengthAdjust="spacing" textLength="69.6006" x="1112.8047" y="350.7104">&#1085;&#1072; &#1087;&#1083;&#1072;&#1075;&#1080;&#1072;&#1090;</text><path d="M676.4038,494.7456 L676.4038,537.2457 A0,0 0 0 0 676.4038,537.2457 L861.2038,537.2457 A0,0 0 0 0 861.2038,537.2457 L861.2038,519.9957 L881.2038,515.9957 L861.2038,511.9957 L861.2038,504.7456 L851.2038,494.7456 L676.4038,494.7456 A0,0 0 0 0 676.4038,494.7456 " fill="#FEFFDD" style="stroke:#181818;stroke-width:0.5;"/><path d="M851.2038,494.7456 L851.2038,504.7456 L861.2038,504.7456 L851.2038,494.7456 " fill="#FEFFDD" style="stroke:#181818;stroke-width:0.5;"/><text fill="#000000" font-family="sans-serif" font-size="13" lengthAdjust="spacing" textLength="132.6001" x="682.4038" y="512.2907">&#1055;&#1086;&#1089;&#1083;&#1077; &#1101;&#1090;&#1086;&#1075;&#1086; &#1084;&#1086;&#1078;&#1085;&#1086;</text><text fill="#000000" font-family="sans-serif" font-size="13" lengthAdjust="spacing" textLength="163.8001" x="682.4038" y="528.5407">&#1079;&#1072;&#1074;&#1077;&#1088;&#1096;&#1072;&#1090;&#1100; &#1072;&#1089;&#1087;&#1080;&#1088;&#1072;&#1085;&#1090;&#1091;&#1088;&#1091;</text><rect fill="#F1F1F1" height="35.0001" rx="12.5" ry="12.5" style="stroke:#181818;stroke-width:0.5;" width="262.4019" x="881.2038" y="498.4956"/><text fill="#000000" font-family="sans-serif" font-size="12" lengthAdjust="spacing" textLength="242.4019" x="891.2038" y="520.0757">&#1055;&#1086;&#1076;&#1075;&#1086;&#1090;&#1086;&#1074;&#1080;&#1090;&#1100; &#1079;&#1072;&#1082;&#1083;&#1102;&#1095;&#1077;&#1085;&#1080;&#1077; &#1086;&#1088;&#1075;&#1072;&#1085;&#1080;&#1079;&#1072;&#1094;&#1080;&#1080;</text><line style="stroke:#000000;stroke-width:1.5;" x1="671.4038" x2="671.4038" y1="13.63" y2="702.246"/><line style="stroke:#000000;stroke-width:1.5;" x1="1278.0059" x2="1278.0059" y1="13.63" y2="702.246"/><line style="stroke:#181818;stroke-width:1.0;" x1="245.8013" x2="245.8013" y1="157.13" y2="192.13"/><polygon fill="#181818" points="241.8013,182.13,245.8013,192.13,249.8013,182.13,245.8013,186.13" style="stroke:#181818;stroke-width:1.0;"/><line style="stroke:#181818;stroke-width:1.0;" x1="245.8013" x2="245.8013" y1="87.1298" y2="107.1298"/><polygon fill="#181818" points="241.8013,97.1298,245.8013,107.1298,249.8013,97.1298,245.8013,101.1298" style="stroke:#181818;stroke-width:1.0;"/><line style="stroke:#181818;stroke-width:1.0;" x1="391.0022" x2="391.0022" y1="87.1298" y2="149.6299"/><polygon fill="#181818" points="387.0022,139.6299,391.0022,149.6299,395.0022,139.6299,391.0022,143.6299" style="stroke:#181818;stroke-width:1.0;"/><line style="stroke:#181818;stroke-width:1.0;" x1="573.4033" x2="573.4033" y1="87.1298" y2="149.6299"/><polygon fill="#181818" points="569.4033,139.6299,573.4033,149.6299,577.4033,139.6299,573.4033,143.6299" style="stroke:#181818;stroke-width:1.0;"/><line style="stroke:#181818;stroke-width:1.0;" x1="245.8013" x2="245.8013" y1="242.1302" y2="262.1302"/><polygon fill="#181818" points="241.8013,252.1302,245.8013,262.1302,249.8013,252.1302,245.8013,256.1302" style="stroke:#181818;stroke-width:1.0;"/><line style="stroke:#181818;stroke-width:1.0;" x1="391.0022" x2="391.0022" y1="199.6301" y2="262.1302"/><polygon fill="#181818" points="387.0022,252.1302,391.0022,262.1302,395.0022,252.1302,391.0022,256.1302" style="stroke:#181818;stroke-width:1.0;"/><line style="stroke:#181818;stroke-width:1.0;" x1="573.4033" x2="573.4033" y1="199.6301" y2="262.1302"/><polygon fill="#181818" points="569.4033,252.1302,573.4033,262.1302,577.4033,252.1302,573.4033,256.1302" style="stroke:#181818;stroke-width:1.0;"/><line style="stroke:#181818;stroke-width:1.0;" x1="410.2024" x2="410.2024" y1="61.1298" y2="81.1298"/><polygon fill="#181818" points="406.2024,71.1298,410.2024,81.1298,414.2024,71.1298,410.2024,75.1298" style="stroke:#181818;stroke-width:1.0;"/><line style="stroke:#181818;stroke-width:1.0;" x1="410.2024" x2="410.2024" y1="268.1302" y2="288.1302"/><polygon fill="#181818" points="406.2024,278.1302,410.2024,288.1302,414.2024,278.1302,410.2024,282.1302" style="stroke:#181818;stroke-width:1.0;"/><line style="stroke:#181818;stroke-width:1.0;" x1="410.2024" x2="410.2024" y1="390.1305" y2="410.1305"/><polygon fill="#181818" points="406.2024,400.1305,410.2024,410.1305,414.2024,400.1305,410.2024,404.1305" style="stroke:#181818;stroke-width:1.0;"/><line style="stroke:#181818;stroke-width:1.0;" x1="410.2024" x2="410.2024" y1="607.2459" y2="627.2459"/><polygon fill="#181818" points="406.2024,617.2459,410.2024,627.2459,414.2024,617.2459,410.2024,621.2459" style="stroke:#181818;stroke-width:1.0;"/><line style="stroke:#181818;stroke-width:1.0;" x1="410.2024" x2="410.2024" y1="662.246" y2="682.246"/><polygon fill="#181818" points="406.2024,672.246,410.2024,682.246,414.2024,672.246,410.2024,676.246" style="stroke:#181818;stroke-width:1.0;"/><line style="stroke:#181818;stroke-width:1.0;" x1="236.6017" x2="236.6017" y1="294.1302" y2="298.1302"/><line style="stroke:#181818;stroke-width:1.0;" x1="236.6017" x2="91.0005" y1="298.1302" y2="298.1302"/><line style="stroke:#181818;stroke-width:1.0;" x1="91.0005" x2="91.0005" y1="298.1302" y2="314.1302"/><polygon fill="#181818" points="87.0005,304.1302,91.0005,314.1302,95.0005,304.1302,91.0005,308.1302" style="stroke:#181818;stroke-width:1.0;"/><line style="stroke:#181818;stroke-width:1.0;" x1="586.2029" x2="586.2029" y1="294.1302" y2="298.1302"/><line style="stroke:#181818;stroke-width:1.0;" x1="586.2029" x2="1188.4053" y1="298.1302" y2="298.1302"/><line style="stroke:#181818;stroke-width:1.0;" x1="1188.4053" x2="1188.4053" y1="298.1302" y2="314.1302"/><polygon fill="#181818" points="1184.4053,304.1302,1188.4053,314.1302,1192.4053,304.1302,1188.4053,308.1302" style="stroke:#181818;stroke-width:1.0;"/><line style="stroke:#181818;stroke-width:1.0;" x1="91.0005" x2="91.0005" y1="364.1305" y2="370.1305"/><line style="stroke:#181818;stroke-width:1.0;" x1="91.0005" x2="236.6017" y1="370.1305" y2="370.1305"/><line style="stroke:#181818;stroke-width:1.0;" x1="236.6017" x2="236.6017" y1="370.1305" y2="384.1305"/><polygon fill="#181818" points="232.6017,374.1305,236.6017,384.1305,240.6017,374.1305,236.6017,378.1305" style="stroke:#181818;stroke-width:1.0;"/><line style="stroke:#181818;stroke-width:1.0;" x1="1188.4053" x2="1188.4053" y1="364.1305" y2="370.1305"/><line style="stroke:#181818;stroke-width:1.0;" x1="1188.4053" x2="586.2029" y1="370.1305" y2="370.1305"/><line style="stroke:#181818;stroke-width:1.0;" x1="586.2029" x2="586.2029" y1="370.1305" y2="384.1305"/><polygon fill="#181818" points="582.2029,374.1305,586.2029,384.1305,590.2029,374.1305,586.2029,378.1305" style="stroke:#181818;stroke-width:1.0;"/><line style="stroke:#181818;stroke-width:1.0;" x1="410.2024" x2="410.2024" y1="460.1307" y2="483.4956"/><line style="stroke:#181818;stroke-width:1.0;" x1="410.2024" x2="1012.4048" y1="483.4956" y2="483.4956"/><line style="stroke:#181818;stroke-width:1.0;" x1="1012.4048" x2="1012.4048" y1="483.4956" y2="498.4956"/><polygon fill="#181818" points="1008.4048,488.4956,1012.4048,498.4956,1016.4048,488.4956,1012.4048,492.4956" style="stroke:#181818;stroke-width:1.0;"/><text fill="#000000" font-family="sans-serif" font-size="11" lengthAdjust="spacing" textLength="171.5986" x="414.2024" y="476.9956">+ &#1042;&#1099;&#1087;&#1080;&#1089;&#1082;&#1080; &#1080;&#1079; &#1091;&#1095;&#1105;&#1085;&#1086;&#1075;&#1086; &#1089;&#1086;&#1074;&#1077;&#1090;&#1072;</text><line style="stroke:#181818;stroke-width:1.0;" x1="1012.4048" x2="1012.4048" y1="533.4957" y2="542.2457"/><line style="stroke:#181818;stroke-width:1.0;" x1="1012.4048" x2="410.2024" y1="542.2457" y2="542.2457"/><line style="stroke:#181818;stroke-width:1.0;" x1="410.2024" x2="410.2024" y1="542.2457" y2="557.2457"/><polygon fill="#181818" points="406.2024,547.2457,410.2024,557.2457,414.2024,547.2457,410.2024,551.2457" style="stroke:#181818;stroke-width:1.0;"/><text fill="#000000" font-family="sans-serif" font-size="18" lengthAdjust="spacing" textLength="32.3998" x="73.8006" y="30.9999">&#1053;&#1048;&#1063;</text><text fill="#000000" font-family="sans-serif" font-size="18" lengthAdjust="spacing" textLength="107.9993" x="364.2027" y="30.9999">&#1057;&#1086;&#1080;&#1089;&#1082;&#1072;&#1090;&#1077;&#1083;&#1100;</text><text fill="#000000" font-family="sans-serif" font-size="18" lengthAdjust="spacing" textLength="79.1995" x="935.1051" y="30.9999">&#1050;&#1072;&#1092;&#1077;&#1076;&#1088;&#1072;</text><!--SRC=[ZLFBIiDG5DpVhxXBHVm10uAVKl2122rebrtKr1UqMYikH51nvJP6OsDhqb-OyqVEEKbzOA9ksfoRSsVcp9nqS8ChF7HS1_V8aSe-9eWaH8Af3FJuckK1osVf8ghjssitTjjkixMxurPmnuvdF27d-nmnkqCPE1xn6YycqkMBI8vOdmNr_H5YFI1leWgKNyB0I7nZgx7ThBlghHnB7x53nbizEUP_hdsUv3rgr-RS91Kp3Fy3xAX-PiFdc7ZCYFI8ALBpWkFWDN0RpNLlFjXFP-ul4Jc08kaW_qRxekb751MGljfaSu4CH8yuKreOsMorDnn6H624SeAazdQACTv8dCcmOCcAtEdnq0Osg9hL-33ajxJaM4OIEkQZKjK5HfOYzMIE-F16MQ555hFE2dEMLvSyBXZph6HbEwLwpLj6dudlboPneg3IncfPoZpX36UKaXXducqTdqe9upAdTEubWKWsPP-S6fRIqxaSBwh66QJ5HRkZWYKgjw2he3pgwOB-QMfbzb-TIvngqP4jg4pwSgZvSjMuPqMODgr-WBTyd9c2-7EFldLAtoFskCGv5_ewS0jhY-y0]--></g></svg>