<svg xmlns="http://www.w3.org/2000/svg" xmlns:xlink="http://www.w3.org/1999/xlink" contentStyleType="text/css" height="2276px" preserveAspectRatio="none" style="width:1126px;height:2276px;background:#FFFFFF;" version="1.1" viewBox="0 0 1126 2276" width="1126px" zoomAndPan="magnify"><defs/><g><rect fill="none" height="22.4999" style="stroke:none;stroke-width:1.0;" width="1093.9993" x="15" y="13.63"/><ellipse cx="192.2003" cy="348.7549" fill="#F1F1F1" rx="10" ry="10" style="stroke:#181818;stroke-width:0.5;"/><path d="M189.4191,353.5049 L191.7316,344.6924 L192.8722,344.6924 L195.1847,353.5049 L194.1535,353.5049 L193.591,351.2549 L190.9972,351.2549 L190.4503,353.5049 L189.4191,353.5049 Z M193.3878,350.3799 L192.7003,347.6299 Q192.6066,347.2237 192.4972,346.8174 Q192.4035,346.3955 192.2941,345.9737 Q192.2003,346.3955 192.091,346.8174 Q191.9972,347.2237 191.9035,347.6299 L191.216,350.3799 L193.3878,350.3799 Z " fill="#000000"/><rect fill="#F1F1F1" height="35.0001" rx="12.5" ry="12.5" style="stroke:#181818;stroke-width:0.5;" width="159.2011" x="112.5998" y="378.7549"/><text fill="#000000" font-family="sans-serif" font-size="12" lengthAdjust="spacing" textLength="139.2011" x="122.5998" y="400.335">&#1055;&#1088;&#1086;&#1074;&#1077;&#1088;&#1080;&#1090;&#1100; &#1076;&#1086;&#1082;&#1091;&#1084;&#1077;&#1085;&#1090;&#1099;</text><ellipse cx="192.2003" cy="443.755" fill="#F1F1F1" rx="10" ry="10" style="stroke:#181818;stroke-width:0.5;"/><path d="M192.6222,448.755 L190.2628,448.755 L190.2628,439.9425 L192.6222,439.9425 Q192.9503,439.9425 193.2628,439.9894 Q193.591,440.0363 193.8878,440.1769 Q194.1847,440.3019 194.4503,440.505 Q194.716,440.7082 194.8722,441.005 Q195.0441,441.2863 195.1066,441.6144 Q195.1691,441.9269 195.1691,442.2707 Q195.1691,442.5519 195.1066,442.8488 Q195.0597,443.1457 194.9035,443.4113 Q194.7472,443.6613 194.5128,443.8488 Q194.2785,444.0363 193.9972,444.1613 Q194.341,444.2707 194.6378,444.4738 Q194.9347,444.6613 195.1378,444.9425 Q195.3566,445.2238 195.4503,445.5832 Q195.5441,445.9269 195.5441,446.2707 Q195.5441,446.63 195.4503,446.9894 Q195.3722,447.3488 195.1691,447.6613 Q194.966,447.9582 194.6691,448.1769 Q194.3722,448.3957 194.0285,448.5363 Q193.7003,448.6613 193.341,448.7082 Q192.9816,448.755 192.6222,448.755 Z M191.2472,443.755 L192.6222,443.755 Q192.8253,443.755 193.0128,443.7238 Q193.216,443.6769 193.4035,443.5988 Q193.591,443.505 193.7472,443.38 Q193.9035,443.2394 193.9972,443.0675 Q194.1066,442.88 194.1378,442.6769 Q194.1847,442.4738 194.1847,442.2707 Q194.1847,442.0675 194.1378,441.88 Q194.1066,441.6769 193.9972,441.505 Q193.9035,441.3175 193.7472,441.1769 Q193.591,441.0363 193.4035,440.9582 Q193.216,440.88 193.0128,440.8488 Q192.8253,440.8175 192.6222,440.8175 L191.2472,440.8175 L191.2472,443.755 Z M191.2472,447.8644 L192.6222,447.8644 Q192.8566,447.8644 193.091,447.8332 Q193.3253,447.8019 193.5441,447.7238 Q193.7785,447.6457 193.966,447.505 Q194.1691,447.3488 194.2941,447.1613 Q194.4347,446.9738 194.4816,446.7394 Q194.5441,446.4894 194.5441,446.255 Q194.5441,446.0207 194.4816,445.7863 Q194.4347,445.5363 194.2941,445.3488 Q194.1691,445.1457 193.966,445.005 Q193.7785,444.8488 193.5441,444.7707 Q193.3253,444.6925 193.091,444.6613 Q192.8566,444.63 192.6222,444.63 L191.2472,444.63 L191.2472,447.8644 Z " fill="#000000"/><rect fill="none" height="378.7401" style="stroke:#000000;stroke-width:1.5;" width="367.6009" x="21" y="463.755"/><path d="M263.399,463.755 L263.399,474.255 L253.399,484.255 L21,484.255 " fill="none" style="stroke:#000000;stroke-width:1.5;"/><text fill="#000000" font-family="sans-serif" font-size="14" lengthAdjust="spacing" textLength="232.399" x="24" y="478.265">&#1055;&#1086;&#1089;&#1083;&#1077; &#1087;&#1088;&#1080;&#1105;&#1084;&#1072; &#1076;&#1086;&#1082;&#1091;&#1084;&#1077;&#1085;&#1090;&#1086;&#1074; &#1044;&#1040;&#1053;&#1050;</text><polygon fill="#F1F1F1" points="155.9006,501.255,228.5,501.255,240.5,513.255,228.5,525.255,155.9006,525.255,143.9006,513.255,155.9006,501.255" style="stroke:#181818;stroke-width:0.5;"/><text fill="#000000" font-family="sans-serif" font-size="11" lengthAdjust="spacing" textLength="72.5994" x="155.9006" y="516.9949">&#1055;&#1086;&#1083;&#1091;&#1095;&#1072;&#1090;&#1077;&#1083;&#1100;?</text><text fill="#000000" font-family="sans-serif" font-size="11" lengthAdjust="spacing" textLength="65.9995" x="77.9012" y="510.12">&#1057;&#1086;&#1080;&#1089;&#1082;&#1072;&#1090;&#1077;&#1083;&#1100;</text><text fill="#000000" font-family="sans-serif" font-size="11" lengthAdjust="spacing" textLength="32.9997" x="240.5" y="510.12">&#1057;&#1086;&#1074;&#1077;&#1090;</text><rect fill="#F1F1F1" height="35.0001" rx="12.5" ry="12.5" style="stroke:#181818;stroke-width:0.5;" width="120.8008" x="33" y="545.255"/><text fill="#000000" font-family="sans-serif" font-size="12" lengthAdjust="spacing" textLength="100.8008" x="43" y="566.835">&#1042;&#1099;&#1076;&#1072;&#1090;&#1100; &#1089;&#1087;&#1088;&#1072;&#1074;&#1082;&#1091;</text><rect fill="#F1F1F1" height="35.0001" rx="12.5" ry="12.5" style="stroke:#181818;stroke-width:0.5;" width="171.2012" x="205.3997" y="545.255"/><text fill="#000000" font-family="sans-serif" font-size="12" lengthAdjust="spacing" textLength="151.2012" x="215.3997" y="566.835">&#1056;&#1072;&#1079;&#1086;&#1089;&#1083;&#1072;&#1090;&#1100; &#1076;&#1080;&#1089;&#1089;&#1077;&#1088;&#1090;&#1072;&#1094;&#1080;&#1102;</text><rect fill="none" height="224.5004" style="stroke:#000000;stroke-width:1.5;" width="277.5989" x="53.4009" y="1822.205"/><path d="M320.9998,1822.205 L320.9998,1832.705 L310.9998,1842.705 L53.4009,1842.705 " fill="none" style="stroke:#000000;stroke-width:1.5;"/><text fill="#000000" font-family="sans-serif" font-size="14" lengthAdjust="spacing" textLength="257.5989" x="56.4009" y="1836.715">&#1055;&#1086;&#1076;&#1075;&#1086;&#1090;&#1086;&#1074;&#1082;&#1072; &#1076;&#1086;&#1082;&#1091;&#1084;&#1077;&#1085;&#1090;&#1086;&#1074; &#1087;&#1086; &#1079;&#1072;&#1097;&#1080;&#1090;&#1077;</text><rect fill="#F1F1F1" height="35.0001" rx="12.5" ry="12.5" style="stroke:#181818;stroke-width:0.5;" width="159.2011" x="112.5998" y="1999.7054"/><text fill="#000000" font-family="sans-serif" font-size="12" lengthAdjust="spacing" textLength="139.2011" x="122.5998" y="2021.2855">&#1055;&#1088;&#1086;&#1074;&#1077;&#1088;&#1080;&#1090;&#1100; &#1076;&#1086;&#1082;&#1091;&#1084;&#1077;&#1085;&#1090;&#1099;</text><ellipse cx="192.2003" cy="2076.7055" fill="#F1F1F1" rx="10" ry="10" style="stroke:#181818;stroke-width:0.5;"/><path d="M192.0128,2081.7055 L192.0128,2072.893 L192.9972,2072.893 L192.9972,2081.7055 L192.0128,2081.7055 Z " fill="#000000"/><line style="stroke:#000000;stroke-width:1.5;" x1="15" x2="15" y1="13.63" y2="2264.6955"/><ellipse cx="581.6002" cy="51.1298" fill="#222222" rx="10" ry="10" style="stroke:#222222;stroke-width:1.0;"/><rect fill="none" height="206.1351" style="stroke:#000000;stroke-width:1.5;" width="336.9986" x="410.6009" y="72.6198"/><path d="M742.5995,72.6198 L742.5995,83.1197 L732.5995,93.1197 L410.6009,93.1197 " fill="none" style="stroke:#000000;stroke-width:1.5;"/><text fill="#000000" font-family="sans-serif" font-size="14" lengthAdjust="spacing" textLength="321.9986" x="413.6009" y="87.1298">&#1055;&#1086;&#1076;&#1075;&#1086;&#1090;&#1086;&#1074;&#1082;&#1072; &#1087;&#1077;&#1088;&#1074;&#1080;&#1095;&#1085;&#1086;&#1075;&#1086; &#1087;&#1072;&#1082;&#1077;&#1090;&#1072; &#1076;&#1086;&#1082;&#1091;&#1084;&#1077;&#1085;&#1090;&#1086;&#1074;</text><rect fill="#F1F1F1" height="50.0002" rx="12.5" ry="12.5" style="stroke:#181818;stroke-width:0.5;" width="171.2012" x="495.9996" y="110.1197"/><text fill="#000000" font-family="sans-serif" font-size="12" lengthAdjust="spacing" textLength="151.2012" x="505.9996" y="131.6998">&#1055;&#1086;&#1076;&#1075;&#1086;&#1090;&#1086;&#1074;&#1080;&#1090;&#1100; &#1087;&#1077;&#1088;&#1074;&#1080;&#1095;&#1085;&#1099;&#1081;</text><text fill="#000000" font-family="sans-serif" font-size="12" lengthAdjust="spacing" textLength="115.2009" x="505.9996" y="146.6999">&#1087;&#1072;&#1082;&#1077;&#1090; &#1076;&#1086;&#1082;&#1091;&#1084;&#1077;&#1085;&#1090;&#1086;&#1074;</text><rect fill="#F1F1F1" height="50.0002" rx="12.5" ry="12.5" style="stroke:#181818;stroke-width:0.5;" width="156.8011" x="503.1996" y="216.7547"/><text fill="#000000" font-family="sans-serif" font-size="12" lengthAdjust="spacing" textLength="136.8011" x="513.1996" y="238.3348">&#1054;&#1090;&#1087;&#1088;&#1072;&#1074;&#1080;&#1090;&#1100; &#1087;&#1077;&#1088;&#1074;&#1080;&#1095;&#1085;&#1099;&#1081;</text><text fill="#000000" font-family="sans-serif" font-size="12" lengthAdjust="spacing" textLength="81.6006" x="513.1996" y="253.3349">&#1087;&#1072;&#1082;&#1077;&#1090; &#1074; &#1044;&#1040;&#1053;&#1050;</text><ellipse cx="581.6002" cy="308.7549" fill="#F1F1F1" rx="10" ry="10" style="stroke:#181818;stroke-width:0.5;"/><path d="M578.8189,313.5049 L581.1314,304.6924 L582.2721,304.6924 L584.5846,313.5049 L583.5533,313.5049 L582.9908,311.2549 L580.3971,311.2549 L579.8502,313.5049 L578.8189,313.5049 Z M582.7877,310.3799 L582.1002,307.6299 Q582.0064,307.2237 581.8971,306.8174 Q581.8033,306.3955 581.6939,305.9737 Q581.6002,306.3955 581.4908,306.8174 Q581.3971,307.2237 581.3033,307.6299 L580.6158,310.3799 L582.7877,310.3799 Z " fill="#000000"/><rect fill="none" height="378.7401" style="stroke:#000000;stroke-width:1.5;" width="360.9986" x="398.6009" y="463.755"/><path d="M640.9999,463.755 L640.9999,474.255 L630.9999,484.255 L398.6009,484.255 " fill="none" style="stroke:#000000;stroke-width:1.5;"/><text fill="#000000" font-family="sans-serif" font-size="14" lengthAdjust="spacing" textLength="232.399" x="401.6009" y="478.265">&#1055;&#1086;&#1089;&#1083;&#1077; &#1087;&#1088;&#1080;&#1105;&#1084;&#1072; &#1076;&#1086;&#1082;&#1091;&#1084;&#1077;&#1085;&#1090;&#1086;&#1074; &#1044;&#1040;&#1053;&#1050;</text><rect fill="#F1F1F1" height="35.0001" rx="12.5" ry="12.5" style="stroke:#181818;stroke-width:0.5;" width="132.8009" x="416.3998" y="642.7549"/><text fill="#000000" font-family="sans-serif" font-size="12" lengthAdjust="spacing" textLength="112.8009" x="426.3998" y="664.3349">&#1055;&#1086;&#1083;&#1091;&#1095;&#1080;&#1090;&#1100; &#1089;&#1087;&#1088;&#1072;&#1074;&#1082;&#1091;</text><rect fill="#F1F1F1" height="35.0001" rx="12.5" ry="12.5" style="stroke:#181818;stroke-width:0.5;" width="212.0015" x="475.5994" y="697.755"/><text fill="#000000" font-family="sans-serif" font-size="12" lengthAdjust="spacing" textLength="192.0015" x="485.5994" y="719.335">&#1054;&#1090;&#1087;&#1088;&#1072;&#1074;&#1080;&#1090;&#1100; &#1076;&#1086;&#1082;&#1091;&#1084;&#1077;&#1085;&#1090;&#1099; &#1074; &#1057;&#1086;&#1074;&#1077;&#1090;</text><ellipse cx="581.6002" cy="1048.4852" fill="#F1F1F1" rx="10" ry="10" style="stroke:#181818;stroke-width:0.5;"/><path d="M582.0377,1053.4852 L579.6627,1053.4852 L579.6627,1044.6727 L582.0377,1044.6727 Q582.4127,1044.6727 582.7721,1044.7352 Q583.1471,1044.782 583.4752,1044.9383 Q583.8033,1045.0945 584.0846,1045.3602 Q584.3658,1045.6102 584.5377,1045.9383 Q584.7096,1046.2664 584.7721,1046.6414 Q584.8346,1047.0008 584.8346,1047.3602 L584.8346,1050.782 Q584.8346,1051.157 584.7721,1051.5164 Q584.7096,1051.8758 584.5377,1052.2039 Q584.3658,1052.532 584.0846,1052.7977 Q583.8033,1053.0477 583.4752,1053.2039 Q583.1471,1053.3602 582.7721,1053.4227 Q582.4127,1053.4852 582.0377,1053.4852 Z M580.6471,1052.5945 L582.0377,1052.5945 Q582.2877,1052.5945 582.5221,1052.5633 Q582.7564,1052.5164 582.9752,1052.407 Q583.1939,1052.2977 583.3658,1052.1258 Q583.5377,1051.9539 583.6471,1051.7352 Q583.7564,1051.5008 583.8033,1051.2664 Q583.8502,1051.032 583.8502,1050.782 L583.8502,1047.3602 Q583.8502,1047.1258 583.8033,1046.8914 Q583.7564,1046.6414 583.6471,1046.4227 Q583.5377,1046.2039 583.3658,1046.032 Q583.1939,1045.8602 582.9752,1045.7508 Q582.7564,1045.6414 582.5221,1045.5945 Q582.2877,1045.5477 582.0377,1045.5477 L580.6471,1045.5477 L580.6471,1052.5945 Z " fill="#000000"/><rect fill="none" height="99.5001" style="stroke:#000000;stroke-width:1.5;" width="260.799" x="451.2007" y="1096.37"/><path d="M701.9997,1096.37 L701.9997,1106.8699 L691.9997,1116.8699 L451.2007,1116.8699 " fill="none" style="stroke:#000000;stroke-width:1.5;"/><text fill="#000000" font-family="sans-serif" font-size="14" lengthAdjust="spacing" textLength="240.799" x="454.2007" y="1110.8799">&#1055;&#1086;&#1089;&#1083;&#1077; &#1087;&#1088;&#1080;&#1085;&#1103;&#1090;&#1080;&#1103; &#1082; &#1088;&#1072;&#1089;&#1089;&#1084;&#1086;&#1090;&#1088;&#1077;&#1085;&#1080;&#1102;</text><rect fill="#F1F1F1" height="50.0002" rx="12.5" ry="12.5" style="stroke:#181818;stroke-width:0.5;" width="152.001" x="505.5997" y="1133.8699"/><text fill="#000000" font-family="sans-serif" font-size="12" lengthAdjust="spacing" textLength="132.001" x="515.5997" y="1155.45">&#1055;&#1086;&#1083;&#1091;&#1095;&#1080;&#1090;&#1100; &#1084;&#1072;&#1090;&#1077;&#1088;&#1080;&#1072;&#1083;&#1099;</text><text fill="#000000" font-family="sans-serif" font-size="12" lengthAdjust="spacing" textLength="93.6007" x="515.5997" y="1170.4501">&#1087;&#1086; &#1086;&#1087;&#1087;&#1086;&#1085;&#1077;&#1085;&#1090;&#1072;&#1084;</text><ellipse cx="581.6002" cy="1259.2349" fill="#F1F1F1" rx="10" ry="10" style="stroke:#181818;stroke-width:0.5;"/><path d="M579.2564,1264.2349 L579.2564,1255.4224 L584.2408,1255.4224 L584.2408,1256.2974 L580.2408,1256.2974 L580.2408,1259.2037 L583.4752,1259.2037 L583.4752,1260.0943 L580.2408,1260.0943 L580.2408,1263.3443 L584.2408,1263.3443 L584.2408,1264.2349 L579.2564,1264.2349 Z " fill="#000000"/><ellipse cx="581.6002" cy="1475.2249" fill="#F1F1F1" rx="10" ry="10" style="stroke:#181818;stroke-width:0.5;"/><path d="M579.1783,1480.2249 L579.1783,1471.4124 L583.7408,1471.4124 L583.7408,1472.2874 L580.1783,1472.2874 L580.1783,1475.1937 L582.9752,1475.1937 L582.9752,1476.0843 L580.1783,1476.0843 L580.1783,1480.2249 L579.1783,1480.2249 Z " fill="#000000"/><rect fill="none" height="139.5001" style="stroke:#000000;stroke-width:1.5;" width="179.2011" x="491.9996" y="1496.7149"/><path d="M658.799,1496.7149 L658.799,1507.2148 L648.799,1517.2148 L491.9996,1517.2148 " fill="none" style="stroke:#000000;stroke-width:1.5;"/><text fill="#000000" font-family="sans-serif" font-size="14" lengthAdjust="spacing" textLength="156.7993" x="494.9996" y="1511.2248">&#1055;&#1086;&#1076;&#1075;&#1086;&#1090;&#1086;&#1074;&#1082;&#1072; &#1082; &#1079;&#1072;&#1097;&#1080;&#1090;&#1077;</text><rect fill="#F1F1F1" height="35.0001" rx="12.5" ry="12.5" style="stroke:#181818;stroke-width:0.5;" width="159.2011" x="501.9996" y="1534.2148"/><text fill="#000000" font-family="sans-serif" font-size="12" lengthAdjust="spacing" textLength="139.2011" x="511.9996" y="1555.7949">&#1056;&#1072;&#1079;&#1086;&#1089;&#1083;&#1072;&#1090;&#1100; &#1084;&#1072;&#1090;&#1077;&#1088;&#1080;&#1072;&#1083;&#1099;</text><ellipse cx="581.6002" cy="2116.7055" fill="#F1F1F1" rx="10" ry="10" style="stroke:#181818;stroke-width:0.5;"/><path d="M581.4127,2121.7055 L581.4127,2112.893 L582.3971,2112.893 L582.3971,2121.7055 L581.4127,2121.7055 Z " fill="#000000"/><rect fill="none" height="84.5" style="stroke:#000000;stroke-width:1.5;" width="157.1994" x="503.0005" y="2138.1955"/><path d="M650.1999,2138.1955 L650.1999,2148.6954 L640.1999,2158.6954 L503.0005,2158.6954 " fill="none" style="stroke:#000000;stroke-width:1.5;"/><text fill="#000000" font-family="sans-serif" font-size="14" lengthAdjust="spacing" textLength="137.1994" x="506.0005" y="2152.7054">&#1054;&#1078;&#1080;&#1076;&#1072;&#1085;&#1080;&#1077; &#1076;&#1080;&#1087;&#1083;&#1086;&#1084;&#1072;</text><rect fill="#F1F1F1" height="35.0001" rx="12.5" ry="12.5" style="stroke:#181818;stroke-width:0.5;" width="108.8007" x="527.1998" y="2175.6954"/><text fill="#000000" font-family="sans-serif" font-size="12" lengthAdjust="spacing" textLength="88.8007" x="537.1998" y="2197.2755">&#1046;&#1076;&#1072;&#1090;&#1100; &#1076;&#1080;&#1087;&#1083;&#1086;&#1084;</text><ellipse cx="581.6002" cy="2253.6955" fill="none" rx="11" ry="11" style="stroke:#222222;stroke-width:1.0;"/><ellipse cx="581.6002" cy="2253.6955" fill="#222222" rx="6" ry="6" style="stroke:#222222;stroke-width:1.0;"/><line style="stroke:#000000;stroke-width:1.5;" x1="392.6009" x2="392.6009" y1="13.63" y2="2264.6955"/><rect fill="none" height="378.7401" style="stroke:#000000;stroke-width:1.5;" width="332.7999" x="769.5995" y="463.755"/><path d="M1011.9985,463.755 L1011.9985,474.255 L1001.9985,484.255 L769.5995,484.255 " fill="none" style="stroke:#000000;stroke-width:1.5;"/><text fill="#000000" font-family="sans-serif" font-size="14" lengthAdjust="spacing" textLength="232.399" x="772.5995" y="478.265">&#1055;&#1086;&#1089;&#1083;&#1077; &#1087;&#1088;&#1080;&#1105;&#1084;&#1072; &#1076;&#1086;&#1082;&#1091;&#1084;&#1077;&#1085;&#1090;&#1086;&#1074; &#1044;&#1040;&#1053;&#1050;</text><rect fill="#F1F1F1" height="35.0001" rx="12.5" ry="12.5" style="stroke:#181818;stroke-width:0.5;" width="142.401" x="947.9984" y="615.2551"/><text fill="#000000" font-family="sans-serif" font-size="12" lengthAdjust="spacing" textLength="122.401" x="957.9984" y="636.8351">&#1055;&#1086;&#1083;&#1091;&#1095;&#1080;&#1090;&#1100; &#1088;&#1072;&#1089;&#1089;&#1099;&#1083;&#1082;&#1091;</text><rect fill="#F1F1F1" height="50.0002" rx="12.5" ry="12.5" style="stroke:#181818;stroke-width:0.5;" width="166.4012" x="837.1983" y="780.4949"/><text fill="#000000" font-family="sans-serif" font-size="12" lengthAdjust="spacing" textLength="57.6005" x="847.1983" y="802.075">&#1055;&#1086;&#1083;&#1091;&#1095;&#1080;&#1090;&#1100;</text><text fill="#000000" font-family="sans-serif" font-size="12" lengthAdjust="spacing" textLength="146.4012" x="847.1983" y="817.0751">&#1086;&#1088;&#1080;&#1075;&#1080;&#1085;&#1072;&#1083;&#1099; &#1076;&#1086;&#1082;&#1091;&#1084;&#1077;&#1085;&#1090;&#1086;&#1074;</text><ellipse cx="920.3989" cy="872.4951" fill="#F1F1F1" rx="10" ry="10" style="stroke:#181818;stroke-width:0.5;"/><path d="M920.4614,877.5889 Q920.1177,877.5889 919.7739,877.5264 Q919.4302,877.4639 919.1177,877.3233 Q918.8052,877.167 918.5552,876.9326 Q918.3052,876.6826 918.1333,876.3858 Q917.977,876.0733 917.9145,875.7295 Q917.852,875.3858 917.852,875.042 L917.852,871.1358 Q917.852,870.792 917.9145,870.4483 Q917.977,870.1045 918.1333,869.8076 Q918.3052,869.4951 918.5552,869.2451 Q918.8052,868.9951 919.1177,868.8545 Q919.4302,868.6983 919.7739,868.6358 Q920.1177,868.5733 920.4614,868.5733 Q920.7895,868.5733 921.102,868.6201 Q921.4302,868.667 921.727,868.792 Q922.0239,868.9014 922.2739,869.1045 Q922.5395,869.292 922.7114,869.5733 Q922.8833,869.8389 922.977,870.1514 Q923.0708,870.4639 923.0708,870.792 L923.0708,870.8389 L922.0708,870.8389 L922.0708,870.792 Q922.0708,870.5108 921.9458,870.2451 Q921.8208,869.9639 921.5864,869.792 Q921.352,869.6045 921.0552,869.542 Q920.7583,869.4639 920.4614,869.4639 Q920.2427,869.4639 920.0239,869.5108 Q919.8052,869.542 919.602,869.6514 Q919.4145,869.7608 919.2583,869.917 Q919.102,870.0733 919.0083,870.2764 Q918.9302,870.4795 918.8833,870.6983 Q918.852,870.9014 918.852,871.1358 L918.852,875.042 Q918.852,875.2608 918.8833,875.4795 Q918.9302,875.6983 919.0083,875.9014 Q919.102,876.0889 919.2583,876.2608 Q919.4145,876.417 919.602,876.5264 Q919.8052,876.6358 920.0239,876.667 Q920.2427,876.6983 920.4614,876.6983 Q920.7583,876.6983 921.0552,876.6358 Q921.352,876.5733 921.5864,876.4014 Q921.8208,876.2139 921.9458,875.9326 Q922.0708,875.6514 922.0708,875.3701 L922.0708,875.3389 L923.0708,875.3389 L923.0708,875.3858 Q923.0708,875.7139 922.977,876.0264 Q922.8833,876.3389 922.7114,876.6045 Q922.5395,876.8701 922.2739,877.0733 Q922.0239,877.2608 921.727,877.3858 Q921.4302,877.5108 921.102,877.542 Q920.7895,877.5889 920.4614,877.5889 Z " fill="#000000"/><rect fill="none" height="84.5" style="stroke:#000000;stroke-width:1.5;" width="213.1992" x="813.7993" y="893.9851"/><path d="M1016.9985,893.9851 L1016.9985,904.485 L1006.9985,914.485 L813.7993,914.485 " fill="none" style="stroke:#000000;stroke-width:1.5;"/><text fill="#000000" font-family="sans-serif" font-size="14" lengthAdjust="spacing" textLength="193.1992" x="816.7993" y="908.4951">&#1055;&#1088;&#1080;&#1085;&#1103;&#1090;&#1080;&#1077; &#1082; &#1088;&#1072;&#1089;&#1089;&#1084;&#1086;&#1090;&#1088;&#1077;&#1085;&#1080;&#1102;</text><rect fill="#F1F1F1" height="35.0001" rx="12.5" ry="12.5" style="stroke:#181818;stroke-width:0.5;" width="178.4012" x="831.1983" y="931.485"/><text fill="#000000" font-family="sans-serif" font-size="12" lengthAdjust="spacing" textLength="158.4012" x="841.1983" y="953.0651">&#1055;&#1088;&#1080;&#1085;&#1103;&#1090;&#1100; &#1082; &#1088;&#1072;&#1089;&#1089;&#1084;&#1086;&#1090;&#1088;&#1077;&#1085;&#1080;&#1102;</text><ellipse cx="920.3989" cy="1008.4852" fill="#F1F1F1" rx="10" ry="10" style="stroke:#181818;stroke-width:0.5;"/><path d="M920.8364,1013.4852 L918.4614,1013.4852 L918.4614,1004.6727 L920.8364,1004.6727 Q921.2114,1004.6727 921.5708,1004.7352 Q921.9458,1004.782 922.2739,1004.9383 Q922.602,1005.0945 922.8833,1005.3602 Q923.1645,1005.6102 923.3364,1005.9383 Q923.5083,1006.2664 923.5708,1006.6414 Q923.6333,1007.0008 923.6333,1007.3602 L923.6333,1010.782 Q923.6333,1011.157 923.5708,1011.5164 Q923.5083,1011.8758 923.3364,1012.2039 Q923.1645,1012.532 922.8833,1012.7977 Q922.602,1013.0477 922.2739,1013.2039 Q921.9458,1013.3602 921.5708,1013.4227 Q921.2114,1013.4852 920.8364,1013.4852 Z M919.4458,1012.5945 L920.8364,1012.5945 Q921.0864,1012.5945 921.3208,1012.5633 Q921.5552,1012.5164 921.7739,1012.407 Q921.9927,1012.2977 922.1645,1012.1258 Q922.3364,1011.9539 922.4458,1011.7352 Q922.5552,1011.5008 922.602,1011.2664 Q922.6489,1011.032 922.6489,1010.782 L922.6489,1007.3602 Q922.6489,1007.1258 922.602,1006.8914 Q922.5552,1006.6414 922.4458,1006.4227 Q922.3364,1006.2039 922.1645,1006.032 Q921.9927,1005.8602 921.7739,1005.7508 Q921.5552,1005.6414 921.3208,1005.5945 Q921.0864,1005.5477 920.8364,1005.5477 L919.4458,1005.5477 L919.4458,1012.5945 Z " fill="#000000"/><ellipse cx="920.3989" cy="1299.2349" fill="#F1F1F1" rx="10" ry="10" style="stroke:#181818;stroke-width:0.5;"/><path d="M918.0552,1304.2349 L918.0552,1295.4224 L923.0395,1295.4224 L923.0395,1296.2974 L919.0395,1296.2974 L919.0395,1299.2037 L922.2739,1299.2037 L922.2739,1300.0943 L919.0395,1300.0943 L919.0395,1303.3443 L923.0395,1303.3443 L923.0395,1304.2349 L918.0552,1304.2349 Z " fill="#000000"/><rect fill="none" height="84.5" style="stroke:#000000;stroke-width:1.5;" width="159.9994" x="840.3992" y="1320.7249"/><path d="M990.3986,1320.7249 L990.3986,1331.2248 L980.3986,1341.2248 L840.3992,1341.2248 " fill="none" style="stroke:#000000;stroke-width:1.5;"/><text fill="#000000" font-family="sans-serif" font-size="14" lengthAdjust="spacing" textLength="139.9994" x="843.3992" y="1335.2348">&#1055;&#1088;&#1080;&#1085;&#1103;&#1090;&#1080;&#1077; &#1082; &#1079;&#1072;&#1097;&#1080;&#1090;&#1077;</text><rect fill="#F1F1F1" height="35.0001" rx="12.5" ry="12.5" style="stroke:#181818;stroke-width:0.5;" width="132.8009" x="853.9985" y="1358.2248"/><text fill="#000000" font-family="sans-serif" font-size="12" lengthAdjust="spacing" textLength="112.8009" x="863.9985" y="1379.8049">&#1055;&#1088;&#1080;&#1085;&#1103;&#1090;&#1100; &#1082; &#1079;&#1072;&#1097;&#1080;&#1090;&#1077;</text><ellipse cx="920.3989" cy="1435.2249" fill="#F1F1F1" rx="10" ry="10" style="stroke:#181818;stroke-width:0.5;"/><path d="M917.977,1440.2249 L917.977,1431.4124 L922.5395,1431.4124 L922.5395,1432.2874 L918.977,1432.2874 L918.977,1435.1937 L921.7739,1435.1937 L921.7739,1436.0843 L918.977,1436.0843 L918.977,1440.2249 L917.977,1440.2249 Z " fill="#000000"/><rect fill="none" height="139.5001" style="stroke:#000000;stroke-width:1.5;" width="179.2011" x="830.7984" y="1496.7149"/><path d="M997.5977,1496.7149 L997.5977,1507.2148 L987.5977,1517.2148 L830.7984,1517.2148 " fill="none" style="stroke:#000000;stroke-width:1.5;"/><text fill="#000000" font-family="sans-serif" font-size="14" lengthAdjust="spacing" textLength="156.7993" x="833.7984" y="1511.2248">&#1055;&#1086;&#1076;&#1075;&#1086;&#1090;&#1086;&#1074;&#1082;&#1072; &#1082; &#1079;&#1072;&#1097;&#1080;&#1090;&#1077;</text><rect fill="#F1F1F1" height="35.0001" rx="12.5" ry="12.5" style="stroke:#181818;stroke-width:0.5;" width="130.4009" x="855.1985" y="1589.2149"/><text fill="#000000" font-family="sans-serif" font-size="12" lengthAdjust="spacing" textLength="110.4009" x="865.1985" y="1610.795">&#1055;&#1086;&#1083;&#1091;&#1095;&#1080;&#1090;&#1100; &#1086;&#1090;&#1079;&#1099;&#1074;&#1099;</text><ellipse cx="920.3989" cy="1666.215" fill="#F1F1F1" rx="10" ry="10" style="stroke:#181818;stroke-width:0.5;"/><path d="M919.5708,1671.3088 Q919.2583,1671.3088 918.9302,1671.2307 Q918.6177,1671.1682 918.352,1670.9963 Q918.0864,1670.8244 917.8833,1670.5744 Q917.6802,1670.3088 917.5552,1670.0119 Q917.4458,1669.715 917.3989,1669.4025 Q917.352,1669.0744 917.352,1668.7619 L917.352,1664.8557 Q917.352,1664.5119 917.4145,1664.1682 Q917.477,1663.8244 917.6333,1663.5275 Q917.8052,1663.215 918.0552,1662.965 Q918.3052,1662.715 918.6177,1662.5744 Q918.9302,1662.4182 919.2739,1662.3557 Q919.6177,1662.2932 919.9614,1662.2932 Q920.2895,1662.2932 920.602,1662.34 Q920.9302,1662.3869 921.227,1662.5119 Q921.5239,1662.6213 921.7739,1662.8244 Q922.0395,1663.0119 922.2114,1663.2932 Q922.3833,1663.5588 922.477,1663.8713 Q922.5708,1664.1838 922.5708,1664.5119 L922.5708,1664.5588 L921.5708,1664.5588 L921.5708,1664.5119 Q921.5708,1664.2307 921.4458,1663.965 Q921.3208,1663.6838 921.0864,1663.5119 Q920.852,1663.3244 920.5552,1663.2619 Q920.2583,1663.1838 919.9614,1663.1838 Q919.7427,1663.1838 919.5239,1663.2307 Q919.3052,1663.2619 919.102,1663.3713 Q918.9145,1663.4807 918.7583,1663.6369 Q918.602,1663.7932 918.5083,1663.9963 Q918.4302,1664.1994 918.3833,1664.4182 Q918.352,1664.6213 918.352,1664.8557 L918.352,1668.7619 Q918.352,1668.9807 918.3833,1669.1994 Q918.4302,1669.4182 918.5083,1669.6213 Q918.602,1669.8088 918.7583,1669.9807 Q918.9145,1670.1369 919.102,1670.2463 Q919.2895,1670.3557 919.5083,1670.3869 Q919.7427,1670.4182 919.9458,1670.4182 Q920.1645,1670.4182 920.3833,1670.3869 Q920.6177,1670.3557 920.8052,1670.2463 Q920.9927,1670.1369 921.1333,1669.9807 Q921.2895,1669.8088 921.3833,1669.6213 Q921.477,1669.4182 921.5083,1669.1994 Q921.5395,1668.9807 921.5395,1668.7619 L921.5395,1667.2932 L919.9927,1667.2932 L919.9927,1666.4025 L922.5395,1666.4025 L922.5395,1671.215 L921.6645,1671.215 L921.6645,1669.7463 Q921.5708,1670.1057 921.3677,1670.4182 Q921.1802,1670.715 920.8989,1670.9338 Q920.6177,1671.1369 920.2739,1671.215 Q919.9302,1671.3088 919.5708,1671.3088 Z " fill="#000000"/><rect fill="none" height="84.5" style="stroke:#000000;stroke-width:1.5;" width="148.0009" x="846.3985" y="1686.215"/><path d="M909.5983,1686.215 L909.5983,1696.715 L899.5983,1706.715 L846.3985,1706.715 " fill="none" style="stroke:#000000;stroke-width:1.5;"/><text fill="#000000" font-family="sans-serif" font-size="14" lengthAdjust="spacing" textLength="53.1998" x="849.3985" y="1700.725">&#1047;&#1072;&#1097;&#1080;&#1090;&#1072;</text><rect fill="#F1F1F1" height="35.0001" rx="12.5" ry="12.5" style="stroke:#181818;stroke-width:0.5;" width="128.0009" x="856.3985" y="1723.715"/><text fill="#000000" font-family="sans-serif" font-size="12" lengthAdjust="spacing" textLength="108.0009" x="866.3985" y="1745.295">&#1055;&#1088;&#1086;&#1074;&#1077;&#1089;&#1090;&#1080; &#1079;&#1072;&#1097;&#1080;&#1090;&#1091;</text><ellipse cx="920.3989" cy="1800.7151" fill="#F1F1F1" rx="10" ry="10" style="stroke:#181818;stroke-width:0.5;"/><path d="M917.9614,1805.7151 L917.9614,1796.9026 L918.9458,1796.9026 L918.9458,1800.7307 L922.0395,1800.7307 L922.0395,1796.9026 L923.0395,1796.9026 L923.0395,1805.7151 L922.0395,1805.7151 L922.0395,1801.6057 L918.9458,1801.6057 L918.9458,1805.7151 L917.9614,1805.7151 Z " fill="#000000"/><rect fill="none" height="224.5004" style="stroke:#000000;stroke-width:1.5;" width="277.5989" x="781.5995" y="1822.205"/><path d="M1049.1984,1822.205 L1049.1984,1832.705 L1039.1984,1842.705 L781.5995,1842.705 " fill="none" style="stroke:#000000;stroke-width:1.5;"/><text fill="#000000" font-family="sans-serif" font-size="14" lengthAdjust="spacing" textLength="257.5989" x="784.5995" y="1836.715">&#1055;&#1086;&#1076;&#1075;&#1086;&#1090;&#1086;&#1074;&#1082;&#1072; &#1076;&#1086;&#1082;&#1091;&#1084;&#1077;&#1085;&#1090;&#1086;&#1074; &#1087;&#1086; &#1079;&#1072;&#1097;&#1080;&#1090;&#1077;</text><rect fill="#F1F1F1" height="50.0002" rx="12.5" ry="12.5" style="stroke:#181818;stroke-width:0.5;" width="190.4014" x="825.1982" y="1859.705"/><text fill="#000000" font-family="sans-serif" font-size="12" lengthAdjust="spacing" textLength="170.4014" x="835.1982" y="1881.2851">&#1055;&#1086;&#1076;&#1075;&#1086;&#1090;&#1086;&#1074;&#1080;&#1090;&#1100; &#1087;&#1077;&#1088;&#1074;&#1099;&#1081; &#1087;&#1072;&#1082;&#1077;&#1090;</text><text fill="#000000" font-family="sans-serif" font-size="12" lengthAdjust="spacing" textLength="144.0011" x="835.1982" y="1896.2852">&#1076;&#1086;&#1082;&#1091;&#1084;&#1077;&#1085;&#1090;&#1086;&#1074; &#1087;&#1086; &#1079;&#1072;&#1097;&#1080;&#1090;&#1077;</text><rect fill="#F1F1F1" height="50.0002" rx="12.5" ry="12.5" style="stroke:#181818;stroke-width:0.5;" width="159.2011" x="840.7984" y="1929.7052"/><text fill="#000000" font-family="sans-serif" font-size="12" lengthAdjust="spacing" textLength="105.6008" x="850.7984" y="1951.2853">&#1055;&#1086;&#1076;&#1075;&#1086;&#1090;&#1086;&#1074;&#1080;&#1090;&#1100; &#1074;&#1089;&#1077;</text><text fill="#000000" font-family="sans-serif" font-size="12" lengthAdjust="spacing" textLength="139.2011" x="850.7984" y="1966.2854">&#1076;&#1086;&#1082;&#1091;&#1084;&#1077;&#1085;&#1090;&#1099; &#1087;&#1086; &#1079;&#1072;&#1097;&#1080;&#1090;&#1077;</text><line style="stroke:#000000;stroke-width:1.5;" x1="763.5995" x2="763.5995" y1="13.63" y2="2264.6955"/><line style="stroke:#000000;stroke-width:1.5;" x1="1106.3993" x2="1106.3993" y1="13.63" y2="2264.6955"/><line style="stroke:#181818;stroke-width:1.0;" x1="192.2003" x2="192.2003" y1="358.7549" y2="378.7549"/><polygon fill="#181818" points="188.2003,368.7549,192.2003,378.7549,196.2003,368.7549,192.2003,372.7549" style="stroke:#181818;stroke-width:1.0;"/><line style="stroke:#181818;stroke-width:1.0;" x1="192.2003" x2="192.2003" y1="413.755" y2="433.755"/><polygon fill="#181818" points="188.2003,423.755,192.2003,433.755,196.2003,423.755,192.2003,427.755" style="stroke:#181818;stroke-width:1.0;"/><line style="stroke:#181818;stroke-width:1.0;" x1="143.9006" x2="93.4004" y1="513.255" y2="513.255"/><line style="stroke:#181818;stroke-width:1.0;" x1="93.4004" x2="93.4004" y1="513.255" y2="545.255"/><polygon fill="#181818" points="89.4004,535.255,93.4004,545.255,97.4004,535.255,93.4004,539.255" style="stroke:#181818;stroke-width:1.0;"/><line style="stroke:#181818;stroke-width:1.0;" x1="240.5" x2="291.0003" y1="513.255" y2="513.255"/><line style="stroke:#181818;stroke-width:1.0;" x1="291.0003" x2="291.0003" y1="513.255" y2="545.255"/><polygon fill="#181818" points="287.0003,535.255,291.0003,545.255,295.0003,535.255,291.0003,539.255" style="stroke:#181818;stroke-width:1.0;"/><line style="stroke:#181818;stroke-width:1.0;" x1="192.2003" x2="192.2003" y1="453.755" y2="501.255"/><polygon fill="#181818" points="188.2003,491.255,192.2003,501.255,196.2003,491.255,192.2003,495.255" style="stroke:#181818;stroke-width:1.0;"/><line style="stroke:#181818;stroke-width:1.0;" x1="192.2003" x2="192.2003" y1="2034.7055" y2="2066.7055"/><polygon fill="#181818" points="188.2003,2056.7055,192.2003,2066.7055,196.2003,2056.7055,192.2003,2060.7055" style="stroke:#181818;stroke-width:1.0;"/><line style="stroke:#181818;stroke-width:1.0;" x1="581.6002" x2="581.6002" y1="160.1199" y2="216.7547"/><polygon fill="#181818" points="577.6002,206.7547,581.6002,216.7547,585.6002,206.7547,581.6002,210.7547" style="stroke:#181818;stroke-width:1.0;"/><text fill="#000000" font-family="sans-serif" font-size="11" lengthAdjust="spacing" textLength="61.5995" x="585.6002" y="182.3698">&#1055;&#1077;&#1088;&#1074;&#1080;&#1095;&#1085;&#1099;&#1081;</text><text fill="#000000" font-family="sans-serif" font-size="11" lengthAdjust="spacing" textLength="32.9997" x="585.6002" y="196.1197">&#1087;&#1072;&#1082;&#1077;&#1090;</text><line style="stroke:#181818;stroke-width:1.0;" x1="581.6002" x2="581.6002" y1="61.1298" y2="110.1197"/><polygon fill="#181818" points="577.6002,100.1197,581.6002,110.1197,585.6002,100.1197,581.6002,104.1197" style="stroke:#181818;stroke-width:1.0;"/><line style="stroke:#181818;stroke-width:1.0;" x1="581.6002" x2="581.6002" y1="266.7549" y2="298.7549"/><polygon fill="#181818" points="577.6002,288.7549,581.6002,298.7549,585.6002,288.7549,581.6002,292.7549" style="stroke:#181818;stroke-width:1.0;"/><line style="stroke:#181818;stroke-width:1.0;" x1="581.6002" x2="581.6002" y1="1058.4852" y2="1133.8699"/><polygon fill="#181818" points="577.6002,1123.8699,581.6002,1133.8699,585.6002,1123.8699,581.6002,1127.8699" style="stroke:#181818;stroke-width:1.0;"/><text fill="#000000" font-family="sans-serif" font-size="11" lengthAdjust="spacing" textLength="57.1995" x="585.6002" y="1080.735">&#1047;&#1072;&#1087;&#1088;&#1086;&#1089; &#1087;&#1086;</text><text fill="#000000" font-family="sans-serif" font-size="11" lengthAdjust="spacing" textLength="68.1994" x="585.6002" y="1094.4849">&#1086;&#1087;&#1087;&#1086;&#1085;&#1077;&#1085;&#1090;&#1072;&#1084;</text><line style="stroke:#181818;stroke-width:1.0;" x1="581.6002" x2="581.6002" y1="1183.8701" y2="1249.2349"/><polygon fill="#181818" points="577.6002,1239.2349,581.6002,1249.2349,585.6002,1239.2349,581.6002,1243.2349" style="stroke:#181818;stroke-width:1.0;"/><text fill="#000000" font-family="sans-serif" font-size="11" lengthAdjust="spacing" textLength="63.7995" x="585.6002" y="1213.985">&#1057;&#1074;&#1077;&#1076;&#1077;&#1085;&#1080;&#1103; &#1080;</text><text fill="#000000" font-family="sans-serif" font-size="11" lengthAdjust="spacing" textLength="52.7996" x="585.6002" y="1227.7349">&#1089;&#1086;&#1075;&#1083;&#1072;&#1089;&#1080;&#1103;</text><line style="stroke:#181818;stroke-width:1.0;" x1="581.6002" x2="581.6002" y1="1485.2249" y2="1534.2148"/><polygon fill="#181818" points="577.6002,1524.2148,581.6002,1534.2148,585.6002,1524.2148,581.6002,1528.2148" style="stroke:#181818;stroke-width:1.0;"/><line style="stroke:#181818;stroke-width:1.0;" x1="581.6002" x2="581.6002" y1="2126.7055" y2="2175.6954"/><polygon fill="#181818" points="577.6002,2165.6954,581.6002,2175.6954,585.6002,2165.6954,581.6002,2169.6954" style="stroke:#181818;stroke-width:1.0;"/><line style="stroke:#181818;stroke-width:1.0;" x1="581.6002" x2="581.6002" y1="2210.6955" y2="2242.6955"/><polygon fill="#181818" points="577.6002,2232.6955,581.6002,2242.6955,585.6002,2232.6955,581.6002,2236.6955" style="stroke:#181818;stroke-width:1.0;"/><line style="stroke:#181818;stroke-width:1.0;" x1="920.3989" x2="920.3989" y1="830.4951" y2="862.4951"/><polygon fill="#181818" points="916.3989,852.4951,920.3989,862.4951,924.3989,852.4951,920.3989,856.4951" style="stroke:#181818;stroke-width:1.0;"/><line style="stroke:#181818;stroke-width:1.0;" x1="920.3989" x2="920.3989" y1="882.4951" y2="931.485"/><polygon fill="#181818" points="916.3989,921.485,920.3989,931.485,924.3989,921.485,920.3989,925.485" style="stroke:#181818;stroke-width:1.0;"/><line style="stroke:#181818;stroke-width:1.0;" x1="920.3989" x2="920.3989" y1="966.4852" y2="998.4852"/><polygon fill="#181818" points="916.3989,988.4852,920.3989,998.4852,924.3989,988.4852,920.3989,992.4852" style="stroke:#181818;stroke-width:1.0;"/><line style="stroke:#181818;stroke-width:1.0;" x1="920.3989" x2="920.3989" y1="1309.2349" y2="1358.2248"/><polygon fill="#181818" points="916.3989,1348.2248,920.3989,1358.2248,924.3989,1348.2248,920.3989,1352.2248" style="stroke:#181818;stroke-width:1.0;"/><line style="stroke:#181818;stroke-width:1.0;" x1="920.3989" x2="920.3989" y1="1393.2249" y2="1425.2249"/><polygon fill="#181818" points="916.3989,1415.2249,920.3989,1425.2249,924.3989,1415.2249,920.3989,1419.2249" style="stroke:#181818;stroke-width:1.0;"/><line style="stroke:#181818;stroke-width:1.0;" x1="920.3989" x2="920.3989" y1="1624.215" y2="1656.215"/><polygon fill="#181818" points="916.3989,1646.215,920.3989,1656.215,924.3989,1646.215,920.3989,1650.215" style="stroke:#181818;stroke-width:1.0;"/><line style="stroke:#181818;stroke-width:1.0;" x1="920.3989" x2="920.3989" y1="1676.215" y2="1723.715"/><polygon fill="#181818" points="916.3989,1713.715,920.3989,1723.715,924.3989,1713.715,920.3989,1717.715" style="stroke:#181818;stroke-width:1.0;"/><line style="stroke:#181818;stroke-width:1.0;" x1="920.3989" x2="920.3989" y1="1758.7151" y2="1790.7151"/><polygon fill="#181818" points="916.3989,1780.7151,920.3989,1790.7151,924.3989,1780.7151,920.3989,1784.7151" style="stroke:#181818;stroke-width:1.0;"/><line style="stroke:#181818;stroke-width:1.0;" x1="920.3989" x2="920.3989" y1="1909.7052" y2="1929.7052"/><polygon fill="#181818" points="916.3989,1919.7052,920.3989,1929.7052,924.3989,1919.7052,920.3989,1923.7052" style="stroke:#181818;stroke-width:1.0;"/><line style="stroke:#181818;stroke-width:1.0;" x1="920.3989" x2="920.3989" y1="1810.7151" y2="1859.705"/><polygon fill="#181818" points="916.3989,1849.705,920.3989,1859.705,924.3989,1849.705,920.3989,1853.705" style="stroke:#181818;stroke-width:1.0;"/><line style="stroke:#181818;stroke-width:1.0;" x1="581.6002" x2="581.6002" y1="318.7549" y2="323.7549"/><line style="stroke:#181818;stroke-width:1.0;" x1="581.6002" x2="192.2003" y1="323.7549" y2="323.7549"/><line style="stroke:#181818;stroke-width:1.0;" x1="192.2003" x2="192.2003" y1="323.7549" y2="338.7549"/><polygon fill="#181818" points="188.2003,328.7549,192.2003,338.7549,196.2003,328.7549,192.2003,332.7549" style="stroke:#181818;stroke-width:1.0;"/><line style="stroke:#181818;stroke-width:1.0;" x1="93.4004" x2="93.4004" y1="580.2551" y2="611.505"/><line style="stroke:#181818;stroke-width:1.0;" x1="93.4004" x2="482.8002" y1="611.505" y2="611.505"/><line style="stroke:#181818;stroke-width:1.0;" x1="482.8002" x2="482.8002" y1="611.505" y2="642.7549"/><polygon fill="#181818" points="478.8002,632.7549,482.8002,642.7549,486.8002,632.7549,482.8002,636.7549" style="stroke:#181818;stroke-width:1.0;"/><text fill="#000000" font-family="sans-serif" font-size="11" lengthAdjust="spacing" textLength="87.9993" x="97.4004" y="592.745">&#1055;&#1086;&#1076;&#1090;&#1074;&#1077;&#1088;&#1078;&#1076;&#1077;&#1085;&#1080;&#1077;</text><text fill="#000000" font-family="sans-serif" font-size="11" lengthAdjust="spacing" textLength="52.7996" x="97.4004" y="606.4949">&#1087;&#1088;&#1080;&#1085;&#1103;&#1090;&#1080;&#1103;</text><line style="stroke:#181818;stroke-width:1.0;" x1="291.0003" x2="291.0003" y1="580.2551" y2="597.7551"/><line style="stroke:#181818;stroke-width:1.0;" x1="291.0003" x2="1019.1989" y1="597.7551" y2="597.7551"/><line style="stroke:#181818;stroke-width:1.0;" x1="1019.1989" x2="1019.1989" y1="597.7551" y2="615.2551"/><polygon fill="#181818" points="1015.1989,605.2551,1019.1989,615.2551,1023.1989,605.2551,1019.1989,609.2551" style="stroke:#181818;stroke-width:1.0;"/><line style="stroke:#181818;stroke-width:1.0;" x1="482.8002" x2="482.8002" y1="677.755" y2="682.755"/><line style="stroke:#181818;stroke-width:1.0;" x1="482.8002" x2="581.6002" y1="682.755" y2="682.755"/><line style="stroke:#181818;stroke-width:1.0;" x1="581.6002" x2="581.6002" y1="682.755" y2="697.755"/><polygon fill="#181818" points="577.6002,687.755,581.6002,697.755,585.6002,687.755,581.6002,691.755" style="stroke:#181818;stroke-width:1.0;"/><line style="stroke:#181818;stroke-width:1.0;" x1="581.6002" x2="581.6002" y1="732.7551" y2="764.005"/><line style="stroke:#181818;stroke-width:1.0;" x1="581.6002" x2="920.3989" y1="764.005" y2="764.005"/><line style="stroke:#181818;stroke-width:1.0;" x1="920.3989" x2="920.3989" y1="764.005" y2="780.4949"/><polygon fill="#181818" points="916.3989,770.4949,920.3989,780.4949,924.3989,770.4949,920.3989,774.4949" style="stroke:#181818;stroke-width:1.0;"/><text fill="#000000" font-family="sans-serif" font-size="11" lengthAdjust="spacing" textLength="61.5995" x="585.6002" y="745.245">&#1054;&#1088;&#1080;&#1075;&#1080;&#1085;&#1072;&#1083;&#1099;</text><text fill="#000000" font-family="sans-serif" font-size="11" lengthAdjust="spacing" textLength="68.1994" x="585.6002" y="758.9949">&#1076;&#1086;&#1082;&#1091;&#1084;&#1077;&#1085;&#1090;&#1086;&#1074;</text><line style="stroke:#181818;stroke-width:1.0;" x1="920.3989" x2="920.3989" y1="1018.4852" y2="1023.4852"/><line style="stroke:#181818;stroke-width:1.0;" x1="920.3989" x2="581.6002" y1="1023.4852" y2="1023.4852"/><line style="stroke:#181818;stroke-width:1.0;" x1="581.6002" x2="581.6002" y1="1023.4852" y2="1038.4852"/><polygon fill="#181818" points="577.6002,1028.4852,581.6002,1038.4852,585.6002,1028.4852,581.6002,1032.4852" style="stroke:#181818;stroke-width:1.0;"/><line style="stroke:#181818;stroke-width:1.0;" x1="581.6002" x2="581.6002" y1="1269.2349" y2="1274.2349"/><line style="stroke:#181818;stroke-width:1.0;" x1="581.6002" x2="920.3989" y1="1274.2349" y2="1274.2349"/><line style="stroke:#181818;stroke-width:1.0;" x1="920.3989" x2="920.3989" y1="1274.2349" y2="1289.2349"/><polygon fill="#181818" points="916.3989,1279.2349,920.3989,1289.2349,924.3989,1279.2349,920.3989,1283.2349" style="stroke:#181818;stroke-width:1.0;"/><line style="stroke:#181818;stroke-width:1.0;" x1="920.3989" x2="920.3989" y1="1445.2249" y2="1450.2249"/><line style="stroke:#181818;stroke-width:1.0;" x1="920.3989" x2="581.6002" y1="1450.2249" y2="1450.2249"/><line style="stroke:#181818;stroke-width:1.0;" x1="581.6002" x2="581.6002" y1="1450.2249" y2="1465.2249"/><polygon fill="#181818" points="577.6002,1455.2249,581.6002,1465.2249,585.6002,1455.2249,581.6002,1459.2249" style="stroke:#181818;stroke-width:1.0;"/><line style="stroke:#181818;stroke-width:1.0;" x1="581.6002" x2="581.6002" y1="1569.2149" y2="1574.2149"/><line style="stroke:#181818;stroke-width:1.0;" x1="581.6002" x2="920.3989" y1="1574.2149" y2="1574.2149"/><line style="stroke:#181818;stroke-width:1.0;" x1="920.3989" x2="920.3989" y1="1574.2149" y2="1589.2149"/><polygon fill="#181818" points="916.3989,1579.2149,920.3989,1589.2149,924.3989,1579.2149,920.3989,1583.2149" style="stroke:#181818;stroke-width:1.0;"/><line style="stroke:#181818;stroke-width:1.0;" x1="920.3989" x2="920.3989" y1="1979.7054" y2="1984.7054"/><line style="stroke:#181818;stroke-width:1.0;" x1="920.3989" x2="192.2003" y1="1984.7054" y2="1984.7054"/><line style="stroke:#181818;stroke-width:1.0;" x1="192.2003" x2="192.2003" y1="1984.7054" y2="1999.7054"/><polygon fill="#181818" points="188.2003,1989.7054,192.2003,1999.7054,196.2003,1989.7054,192.2003,1993.7054" style="stroke:#181818;stroke-width:1.0;"/><line style="stroke:#181818;stroke-width:1.0;" x1="192.2003" x2="192.2003" y1="2086.7055" y2="2091.7055"/><line style="stroke:#181818;stroke-width:1.0;" x1="192.2003" x2="581.6002" y1="2091.7055" y2="2091.7055"/><line style="stroke:#181818;stroke-width:1.0;" x1="581.6002" x2="581.6002" y1="2091.7055" y2="2106.7055"/><polygon fill="#181818" points="577.6002,2096.7055,581.6002,2106.7055,585.6002,2096.7055,581.6002,2100.7055" style="stroke:#181818;stroke-width:1.0;"/><text fill="#000000" font-family="sans-serif" font-size="18" lengthAdjust="spacing" textLength="43.1997" x="182.2006" y="30.9999">&#1044;&#1040;&#1053;&#1050;</text><text fill="#000000" font-family="sans-serif" font-size="18" lengthAdjust="spacing" textLength="107.9993" x="524.1005" y="30.9999">&#1057;&#1086;&#1080;&#1089;&#1082;&#1072;&#1090;&#1077;&#1083;&#1100;</text><text fill="#000000" font-family="sans-serif" font-size="18" lengthAdjust="spacing" textLength="53.9996" x="907.9996" y="30.9999">&#1057;&#1086;&#1074;&#1077;&#1090;</text><!--SRC=[ZLNBRjD05DtxAxoC5_n0BHNnAlGVka4YXOWehPgmow999H1ArG92L48Yq3-mqhWrSUhymfq_ufpn8vDundILpDp7EVVSEzT3-IvVv9Vy77f3kPPC4ZMIXKHgBB6awdpezGUlJmRUsvEZ3yU-_8R7N6uaWpsJ6JrzMKciJd58r2UvnpNCl8nWZU47Zpbk5-fCbaXwduTwExLaYHghywrqQY9_3thhRDPSeVTebzmQuaBWJU6zWalqOAoPNyeJUktU6r-huBMU112hqer758CyB8BvYkHRJDKaz5fF0qDAI9rAx6jIYVeAHxjM5GklS-Ytj6wfEWFbgasF0t_mhjs3qT93qlk6ukQy0Z5OIna0L8g7NY0WB-0Mla2NH68AGdhWSWbxeYv3rwJi6CmIAvAXMhlRRnTqYJacoJ_ml2jaYKeD0OCBiE8egOyuNvGCTA0L5vWCGz5fZlo-q-tg5dOEtVGj0rBheHwA2ZmNRwe5kg58Y4tL1A9PnxIPDgAoxKoEUJU6yTbweim-SQuMbH28nYl3INTLNHG3MtYpKBVl1jhpm2KVJOxHNizE8oTAUOMo6OC4V9qPDS4l_i4f5o2IPMZfELyFsMZ0iWihhY9h0e9TinNbg9DSSj03Bsum3k0edtQZ-XV1PWjvuHOVinofpwGdiKrmqxu1i-SMUIzeNCKrKCkJgkdqt-UaCUxmc6PqDeY-hDXSLQZHnZ8SKGw35D-YaU1LSpdMNQXxkYLjuvU4Uztu8DaVPprlw4uyuqQgv-5phMSnbjv3FnE6GllkMTYln9jYOoVSx_dErciJJ5A4BNL3VbJBtpIPGFt1qV4_]--></g></svg>