<svg xmlns="http://www.w3.org/2000/svg" xmlns:xlink="http://www.w3.org/1999/xlink" contentStyleType="text/css" height="1509px" preserveAspectRatio="none" style="width:956px;height:1509px;background:#FFFFFF;" version="1.1" viewBox="0 0 956 1509" width="956px" zoomAndPan="magnify"><defs/><g><rect fill="none" height="22.4999" style="stroke:none;stroke-width:1.0;" width="923.5964" x="15" y="13.63"/><rect fill="none" height="264.9801" style="stroke:#000000;stroke-width:1.5;" width="252.399" x="33.5999" y="275.2448"/><path d="M275.9989,275.2448 L275.9989,285.7447 L265.9989,295.7447 L33.5999,295.7447 " fill="none" style="stroke:#000000;stroke-width:1.5;"/><text fill="#000000" font-family="sans-serif" font-size="14" lengthAdjust="spacing" textLength="232.399" x="36.5999" y="289.7547">&#1055;&#1086;&#1089;&#1083;&#1077; &#1087;&#1088;&#1080;&#1105;&#1084;&#1072; &#1076;&#1086;&#1082;&#1091;&#1084;&#1077;&#1085;&#1090;&#1086;&#1074; &#1044;&#1040;&#1053;&#1050;</text><rect fill="#F1F1F1" height="35.0001" rx="12.5" ry="12.5" style="stroke:#181818;stroke-width:0.5;" width="202.4015" x="58.5987" y="312.7447"/><text fill="#000000" font-family="sans-serif" font-size="12" lengthAdjust="spacing" textLength="182.4015" x="68.5987" y="334.3248">&#1055;&#1088;&#1086;&#1074;&#1077;&#1088;&#1082;&#1072; &#1087;&#1077;&#1088;&#1074;&#1080;&#1095;&#1085;&#1086;&#1075;&#1086; &#1087;&#1072;&#1082;&#1077;&#1090;&#1072;</text><rect fill="none" height="224.5004" style="stroke:#000000;stroke-width:1.5;" width="276.9989" x="21" y="1134.6846"/><path d="M288.5989,1134.6846 L288.5989,1145.1846 L278.5989,1155.1846 L21,1155.1846 " fill="none" style="stroke:#000000;stroke-width:1.5;"/><text fill="#000000" font-family="sans-serif" font-size="14" lengthAdjust="spacing" textLength="257.5989" x="24" y="1149.1946">&#1055;&#1086;&#1076;&#1075;&#1086;&#1090;&#1086;&#1074;&#1082;&#1072; &#1076;&#1086;&#1082;&#1091;&#1084;&#1077;&#1085;&#1090;&#1086;&#1074; &#1087;&#1086; &#1079;&#1072;&#1097;&#1080;&#1090;&#1077;</text><rect fill="#F1F1F1" height="35.0001" rx="12.5" ry="12.5" style="stroke:#181818;stroke-width:0.5;" width="156.8011" x="81.3989" y="1312.185"/><text fill="#000000" font-family="sans-serif" font-size="12" lengthAdjust="spacing" textLength="136.8011" x="91.3989" y="1333.7651">&#1055;&#1088;&#1086;&#1074;&#1077;&#1088;&#1082;&#1072; &#1076;&#1086;&#1082;&#1091;&#1084;&#1077;&#1085;&#1090;&#1086;&#1074;</text><line style="stroke:#000000;stroke-width:1.5;" x1="15" x2="15" y1="13.63" y2="1497.1751"/><ellipse cx="478.9982" cy="51.1298" fill="#222222" rx="10" ry="10" style="stroke:#222222;stroke-width:1.0;"/><rect fill="none" height="191.135" style="stroke:#000000;stroke-width:1.5;" width="336.9986" x="307.9989" y="72.6198"/><path d="M639.9975,72.6198 L639.9975,83.1197 L629.9975,93.1197 L307.9989,93.1197 " fill="none" style="stroke:#000000;stroke-width:1.5;"/><text fill="#000000" font-family="sans-serif" font-size="14" lengthAdjust="spacing" textLength="321.9986" x="310.9989" y="87.1298">&#1055;&#1086;&#1076;&#1075;&#1086;&#1090;&#1086;&#1074;&#1082;&#1072; &#1087;&#1077;&#1088;&#1074;&#1080;&#1095;&#1085;&#1086;&#1075;&#1086; &#1087;&#1072;&#1082;&#1077;&#1090;&#1072; &#1076;&#1086;&#1082;&#1091;&#1084;&#1077;&#1085;&#1090;&#1086;&#1074;</text><rect fill="#F1F1F1" height="35.0001" rx="12.5" ry="12.5" style="stroke:#181818;stroke-width:0.5;" width="216.8016" x="370.5974" y="110.1197"/><text fill="#000000" font-family="sans-serif" font-size="12" lengthAdjust="spacing" textLength="196.8016" x="380.5974" y="131.6998">&#1055;&#1086;&#1076;&#1075;&#1086;&#1090;&#1086;&#1074;&#1082;&#1072; &#1087;&#1077;&#1088;&#1074;&#1080;&#1095;&#1085;&#1086;&#1075;&#1086; &#1087;&#1072;&#1082;&#1077;&#1090;&#1072;</text><rect fill="#F1F1F1" height="50.0002" rx="12.5" ry="12.5" style="stroke:#181818;stroke-width:0.5;" width="154.4011" x="401.7977" y="201.7546"/><text fill="#000000" font-family="sans-serif" font-size="12" lengthAdjust="spacing" textLength="134.4011" x="411.7977" y="223.3347">&#1054;&#1090;&#1087;&#1088;&#1072;&#1074;&#1082;&#1072; &#1087;&#1077;&#1088;&#1074;&#1080;&#1095;&#1085;&#1086;&#1075;&#1086;</text><text fill="#000000" font-family="sans-serif" font-size="12" lengthAdjust="spacing" textLength="88.8007" x="411.7977" y="238.3348">&#1087;&#1072;&#1082;&#1077;&#1090;&#1072; &#1074; &#1044;&#1040;&#1053;&#1050;</text><rect fill="none" height="264.9801" style="stroke:#000000;stroke-width:1.5;" width="252.399" x="352.7987" y="275.2448"/><path d="M595.1977,275.2448 L595.1977,285.7447 L585.1977,295.7447 L352.7987,295.7447 " fill="none" style="stroke:#000000;stroke-width:1.5;"/><text fill="#000000" font-family="sans-serif" font-size="14" lengthAdjust="spacing" textLength="232.399" x="355.7987" y="289.7547">&#1055;&#1086;&#1089;&#1083;&#1077; &#1087;&#1088;&#1080;&#1105;&#1084;&#1072; &#1076;&#1086;&#1082;&#1091;&#1084;&#1077;&#1085;&#1090;&#1086;&#1074; &#1044;&#1040;&#1053;&#1050;</text><rect fill="#F1F1F1" height="35.0001" rx="12.5" ry="12.5" style="stroke:#181818;stroke-width:0.5;" width="185.6013" x="386.1976" y="395.4847"/><text fill="#000000" font-family="sans-serif" font-size="12" lengthAdjust="spacing" textLength="165.6013" x="396.1976" y="417.0648">&#1055;&#1086;&#1083;&#1091;&#1095;&#1077;&#1085;&#1080;&#1077; &#1087;&#1086;&#1076;&#1090;&#1074;&#1077;&#1088;&#1078;&#1076;&#1077;&#1085;&#1080;&#1103;</text><rect fill="none" height="87.885" style="stroke:#000000;stroke-width:1.5;" width="282.4019" x="337.7973" y="671.7147"/><path d="M588.5962,671.7147 L588.5962,682.2146 L578.5962,692.2146 L337.7973,692.2146 " fill="none" style="stroke:#000000;stroke-width:1.5;"/><text fill="#000000" font-family="sans-serif" font-size="14" lengthAdjust="spacing" textLength="240.799" x="340.7973" y="686.2246">&#1055;&#1086;&#1089;&#1083;&#1077; &#1087;&#1088;&#1080;&#1085;&#1103;&#1090;&#1080;&#1103; &#1082; &#1088;&#1072;&#1089;&#1089;&#1084;&#1086;&#1090;&#1088;&#1077;&#1085;&#1080;&#1102;</text><rect fill="#F1F1F1" height="35.0001" rx="12.5" ry="12.5" style="stroke:#181818;stroke-width:0.5;" width="262.4019" x="347.7973" y="709.2146"/><text fill="#000000" font-family="sans-serif" font-size="12" lengthAdjust="spacing" textLength="242.4019" x="357.7973" y="730.7947">&#1055;&#1086;&#1083;&#1091;&#1095;&#1077;&#1085;&#1080;&#1077; &#1084;&#1072;&#1090;&#1077;&#1088;&#1080;&#1072;&#1083;&#1086;&#1074; &#1087;&#1086; &#1086;&#1087;&#1087;&#1086;&#1085;&#1077;&#1085;&#1090;&#1072;&#1084;</text><rect fill="none" height="139.5001" style="stroke:#000000;stroke-width:1.5;" width="179.2011" x="389.3977" y="889.1945"/><path d="M556.197,889.1945 L556.197,899.6944 L546.197,909.6944 L389.3977,909.6944 " fill="none" style="stroke:#000000;stroke-width:1.5;"/><text fill="#000000" font-family="sans-serif" font-size="14" lengthAdjust="spacing" textLength="156.7993" x="392.3977" y="903.7044">&#1055;&#1086;&#1076;&#1075;&#1086;&#1090;&#1086;&#1074;&#1082;&#1072; &#1082; &#1079;&#1072;&#1097;&#1080;&#1090;&#1077;</text><rect fill="#F1F1F1" height="35.0001" rx="12.5" ry="12.5" style="stroke:#181818;stroke-width:0.5;" width="159.2011" x="399.3977" y="926.6944"/><text fill="#000000" font-family="sans-serif" font-size="12" lengthAdjust="spacing" textLength="139.2011" x="409.3977" y="948.2745">&#1056;&#1072;&#1089;&#1089;&#1099;&#1083;&#1082;&#1072; &#1084;&#1072;&#1090;&#1077;&#1088;&#1080;&#1072;&#1083;&#1086;&#1074;</text><rect fill="none" height="84.5" style="stroke:#000000;stroke-width:1.5;" width="157.6009" x="400.1978" y="1370.6751"/><path d="M547.3972,1370.6751 L547.3972,1381.175 L537.3972,1391.175 L400.1978,1391.175 " fill="none" style="stroke:#000000;stroke-width:1.5;"/><text fill="#000000" font-family="sans-serif" font-size="14" lengthAdjust="spacing" textLength="137.1994" x="403.1978" y="1385.185">&#1054;&#1078;&#1080;&#1076;&#1072;&#1085;&#1080;&#1077; &#1076;&#1080;&#1087;&#1083;&#1086;&#1084;&#1072;</text><rect fill="#F1F1F1" height="35.0001" rx="12.5" ry="12.5" style="stroke:#181818;stroke-width:0.5;" width="137.6009" x="410.1978" y="1408.175"/><text fill="#000000" font-family="sans-serif" font-size="12" lengthAdjust="spacing" textLength="117.6009" x="420.1978" y="1429.7551">&#1054;&#1078;&#1080;&#1076;&#1072;&#1085;&#1080;&#1077; &#1076;&#1080;&#1087;&#1083;&#1086;&#1084;&#1072;</text><ellipse cx="478.9982" cy="1486.1751" fill="none" rx="11" ry="11" style="stroke:#222222;stroke-width:1.0;"/><ellipse cx="478.9982" cy="1486.1751" fill="#222222" rx="6" ry="6" style="stroke:#222222;stroke-width:1.0;"/><line style="stroke:#000000;stroke-width:1.5;" x1="301.9989" x2="301.9989" y1="13.63" y2="1497.1751"/><rect fill="none" height="264.9801" style="stroke:#000000;stroke-width:1.5;" width="252.399" x="667.5975" y="275.2448"/><path d="M909.9965,275.2448 L909.9965,285.7447 L899.9965,295.7447 L667.5975,295.7447 " fill="none" style="stroke:#000000;stroke-width:1.5;"/><text fill="#000000" font-family="sans-serif" font-size="14" lengthAdjust="spacing" textLength="232.399" x="670.5975" y="289.7547">&#1055;&#1086;&#1089;&#1083;&#1077; &#1087;&#1088;&#1080;&#1105;&#1084;&#1072; &#1076;&#1086;&#1082;&#1091;&#1084;&#1077;&#1085;&#1090;&#1086;&#1074; &#1044;&#1040;&#1053;&#1050;</text><rect fill="#F1F1F1" height="50.0002" rx="12.5" ry="12.5" style="stroke:#181818;stroke-width:0.5;" width="171.2012" x="708.1964" y="478.2247"/><text fill="#000000" font-family="sans-serif" font-size="12" lengthAdjust="spacing" textLength="64.8005" x="718.1964" y="499.8048">&#1055;&#1086;&#1083;&#1091;&#1095;&#1077;&#1085;&#1080;&#1077;</text><text fill="#000000" font-family="sans-serif" font-size="12" lengthAdjust="spacing" textLength="151.2012" x="718.1964" y="514.8049">&#1086;&#1088;&#1080;&#1075;&#1080;&#1085;&#1072;&#1083;&#1086;&#1074; &#1076;&#1086;&#1082;&#1091;&#1084;&#1077;&#1085;&#1090;&#1086;&#1074;</text><rect fill="none" height="87.885" style="stroke:#000000;stroke-width:1.5;" width="213.1992" x="687.1974" y="551.7149"/><path d="M890.3965,551.7149 L890.3965,562.2148 L880.3965,572.2148 L687.1974,572.2148 " fill="none" style="stroke:#000000;stroke-width:1.5;"/><text fill="#000000" font-family="sans-serif" font-size="14" lengthAdjust="spacing" textLength="193.1992" x="690.1974" y="566.2248">&#1055;&#1088;&#1080;&#1085;&#1103;&#1090;&#1080;&#1077; &#1082; &#1088;&#1072;&#1089;&#1089;&#1084;&#1086;&#1090;&#1088;&#1077;&#1085;&#1080;&#1102;</text><rect fill="#F1F1F1" height="35.0001" rx="12.5" ry="12.5" style="stroke:#181818;stroke-width:0.5;" width="185.6013" x="700.9963" y="589.2148"/><text fill="#000000" font-family="sans-serif" font-size="12" lengthAdjust="spacing" textLength="165.6013" x="710.9963" y="610.7949">&#1055;&#1088;&#1080;&#1085;&#1103;&#1090;&#1080;&#1077; &#1082; &#1088;&#1072;&#1089;&#1089;&#1084;&#1086;&#1090;&#1088;&#1077;&#1085;&#1080;&#1102;</text><rect fill="none" height="84.5" style="stroke:#000000;stroke-width:1.5;" width="160.0009" x="713.7965" y="793.2045"/><path d="M863.7959,793.2045 L863.7959,803.7044 L853.7959,813.7044 L713.7965,813.7044 " fill="none" style="stroke:#000000;stroke-width:1.5;"/><text fill="#000000" font-family="sans-serif" font-size="14" lengthAdjust="spacing" textLength="139.9994" x="716.7965" y="807.7144">&#1055;&#1088;&#1080;&#1085;&#1103;&#1090;&#1080;&#1077; &#1082; &#1079;&#1072;&#1097;&#1080;&#1090;&#1077;</text><rect fill="#F1F1F1" height="35.0001" rx="12.5" ry="12.5" style="stroke:#181818;stroke-width:0.5;" width="140.0009" x="723.7965" y="830.7044"/><text fill="#000000" font-family="sans-serif" font-size="12" lengthAdjust="spacing" textLength="120.0009" x="733.7965" y="852.2845">&#1055;&#1088;&#1080;&#1085;&#1103;&#1090;&#1080;&#1077; &#1082; &#1079;&#1072;&#1097;&#1080;&#1090;&#1077;</text><rect fill="none" height="139.5001" style="stroke:#000000;stroke-width:1.5;" width="179.2011" x="704.1964" y="889.1945"/><path d="M870.9957,889.1945 L870.9957,899.6944 L860.9957,909.6944 L704.1964,909.6944 " fill="none" style="stroke:#000000;stroke-width:1.5;"/><text fill="#000000" font-family="sans-serif" font-size="14" lengthAdjust="spacing" textLength="156.7993" x="707.1964" y="903.7044">&#1055;&#1086;&#1076;&#1075;&#1086;&#1090;&#1086;&#1074;&#1082;&#1072; &#1082; &#1079;&#1072;&#1097;&#1080;&#1090;&#1077;</text><rect fill="#F1F1F1" height="35.0001" rx="12.5" ry="12.5" style="stroke:#181818;stroke-width:0.5;" width="142.401" x="722.5965" y="981.6945"/><text fill="#000000" font-family="sans-serif" font-size="12" lengthAdjust="spacing" textLength="122.401" x="732.5965" y="1003.2746">&#1055;&#1086;&#1083;&#1091;&#1095;&#1077;&#1085;&#1080;&#1077; &#1086;&#1090;&#1079;&#1099;&#1074;&#1086;&#1074;</text><rect fill="none" height="84.5" style="stroke:#000000;stroke-width:1.5;" width="85.6004" x="750.9968" y="1038.6946"/><path d="M814.1966,1038.6946 L814.1966,1049.1946 L804.1966,1059.1946 L750.9968,1059.1946 " fill="none" style="stroke:#000000;stroke-width:1.5;"/><text fill="#000000" font-family="sans-serif" font-size="14" lengthAdjust="spacing" textLength="53.1998" x="753.9968" y="1053.2046">&#1047;&#1072;&#1097;&#1080;&#1090;&#1072;</text><rect fill="#F1F1F1" height="35.0001" rx="12.5" ry="12.5" style="stroke:#181818;stroke-width:0.5;" width="65.6004" x="760.9968" y="1076.1946"/><text fill="#000000" font-family="sans-serif" font-size="12" lengthAdjust="spacing" textLength="45.6004" x="770.9968" y="1097.7746">&#1047;&#1072;&#1097;&#1080;&#1090;&#1072;</text><rect fill="none" height="224.5004" style="stroke:#000000;stroke-width:1.5;" width="276.9989" x="654.9975" y="1134.6846"/><path d="M922.5964,1134.6846 L922.5964,1145.1846 L912.5964,1155.1846 L654.9975,1155.1846 " fill="none" style="stroke:#000000;stroke-width:1.5;"/><text fill="#000000" font-family="sans-serif" font-size="14" lengthAdjust="spacing" textLength="257.5989" x="657.9975" y="1149.1946">&#1055;&#1086;&#1076;&#1075;&#1086;&#1090;&#1086;&#1074;&#1082;&#1072; &#1076;&#1086;&#1082;&#1091;&#1084;&#1077;&#1085;&#1090;&#1086;&#1074; &#1087;&#1086; &#1079;&#1072;&#1097;&#1080;&#1090;&#1077;</text><rect fill="#F1F1F1" height="50.0002" rx="12.5" ry="12.5" style="stroke:#181818;stroke-width:0.5;" width="195.2014" x="696.1963" y="1172.1846"/><text fill="#000000" font-family="sans-serif" font-size="12" lengthAdjust="spacing" textLength="175.2014" x="706.1963" y="1193.7647">&#1055;&#1086;&#1076;&#1075;&#1086;&#1090;&#1086;&#1074;&#1082;&#1072; &#1087;&#1077;&#1088;&#1074;&#1086;&#1075;&#1086; &#1087;&#1072;&#1082;&#1077;&#1090;&#1072;</text><text fill="#000000" font-family="sans-serif" font-size="12" lengthAdjust="spacing" textLength="144.0011" x="706.1963" y="1208.7648">&#1076;&#1086;&#1082;&#1091;&#1084;&#1077;&#1085;&#1090;&#1086;&#1074; &#1087;&#1086; &#1079;&#1072;&#1097;&#1080;&#1090;&#1077;</text><rect fill="#F1F1F1" height="50.0002" rx="12.5" ry="12.5" style="stroke:#181818;stroke-width:0.5;" width="164.0011" x="711.7964" y="1242.1848"/><text fill="#000000" font-family="sans-serif" font-size="12" lengthAdjust="spacing" textLength="105.6008" x="721.7964" y="1263.7649">&#1055;&#1086;&#1076;&#1075;&#1086;&#1090;&#1086;&#1074;&#1082;&#1072; &#1074;&#1089;&#1077;&#1093;</text><text fill="#000000" font-family="sans-serif" font-size="12" lengthAdjust="spacing" textLength="144.0011" x="721.7964" y="1278.765">&#1076;&#1086;&#1082;&#1091;&#1084;&#1077;&#1085;&#1090;&#1086;&#1074; &#1087;&#1086; &#1079;&#1072;&#1097;&#1080;&#1090;&#1077;</text><line style="stroke:#000000;stroke-width:1.5;" x1="648.9975" x2="648.9975" y1="13.63" y2="1497.1751"/><line style="stroke:#000000;stroke-width:1.5;" x1="935.9965" x2="935.9965" y1="13.63" y2="1497.1751"/><line style="stroke:#181818;stroke-width:1.0;" x1="478.9982" x2="478.9982" y1="145.1198" y2="201.7546"/><polygon fill="#181818" points="474.9982,191.7546,478.9982,201.7546,482.9982,191.7546,478.9982,195.7546" style="stroke:#181818;stroke-width:1.0;"/><text fill="#000000" font-family="sans-serif" font-size="11" lengthAdjust="spacing" textLength="61.5995" x="482.9982" y="167.3697">&#1055;&#1077;&#1088;&#1074;&#1080;&#1095;&#1085;&#1099;&#1081;</text><text fill="#000000" font-family="sans-serif" font-size="11" lengthAdjust="spacing" textLength="32.9997" x="482.9982" y="181.1196">&#1087;&#1072;&#1082;&#1077;&#1090;</text><line style="stroke:#181818;stroke-width:1.0;" x1="478.9982" x2="478.9982" y1="61.1298" y2="110.1197"/><polygon fill="#181818" points="474.9982,100.1197,478.9982,110.1197,482.9982,100.1197,478.9982,104.1197" style="stroke:#181818;stroke-width:1.0;"/><line style="stroke:#181818;stroke-width:1.0;" x1="478.9982" x2="478.9982" y1="1443.1751" y2="1475.1751"/><polygon fill="#181818" points="474.9982,1465.1751,478.9982,1475.1751,482.9982,1465.1751,478.9982,1469.1751" style="stroke:#181818;stroke-width:1.0;"/><line style="stroke:#181818;stroke-width:1.0;" x1="793.797" x2="793.797" y1="528.2249" y2="589.2148"/><polygon fill="#181818" points="789.797,579.2148,793.797,589.2148,797.797,579.2148,793.797,583.2148" style="stroke:#181818;stroke-width:1.0;"/><line style="stroke:#181818;stroke-width:1.0;" x1="793.797" x2="793.797" y1="1016.6946" y2="1076.1946"/><polygon fill="#181818" points="789.797,1066.1946,793.797,1076.1946,797.797,1066.1946,793.797,1070.1946" style="stroke:#181818;stroke-width:1.0;"/><line style="stroke:#181818;stroke-width:1.0;" x1="793.797" x2="793.797" y1="1222.1848" y2="1242.1848"/><polygon fill="#181818" points="789.797,1232.1848,793.797,1242.1848,797.797,1232.1848,793.797,1236.1848" style="stroke:#181818;stroke-width:1.0;"/><line style="stroke:#181818;stroke-width:1.0;" x1="793.797" x2="793.797" y1="1111.1947" y2="1172.1846"/><polygon fill="#181818" points="789.797,1162.1846,793.797,1172.1846,797.797,1162.1846,793.797,1166.1846" style="stroke:#181818;stroke-width:1.0;"/><line style="stroke:#181818;stroke-width:1.0;" x1="159.7994" x2="159.7994" y1="347.7448" y2="378.9947"/><line style="stroke:#181818;stroke-width:1.0;" x1="159.7994" x2="478.9982" y1="378.9947" y2="378.9947"/><line style="stroke:#181818;stroke-width:1.0;" x1="478.9982" x2="478.9982" y1="378.9947" y2="395.4847"/><polygon fill="#181818" points="474.9982,385.4847,478.9982,395.4847,482.9982,385.4847,478.9982,389.4847" style="stroke:#181818;stroke-width:1.0;"/><text fill="#000000" font-family="sans-serif" font-size="11" lengthAdjust="spacing" textLength="87.9993" x="163.7994" y="360.2348">&#1055;&#1086;&#1076;&#1090;&#1074;&#1077;&#1088;&#1078;&#1076;&#1077;&#1085;&#1080;&#1077;</text><text fill="#000000" font-family="sans-serif" font-size="11" lengthAdjust="spacing" textLength="52.7996" x="163.7994" y="373.9847">&#1087;&#1088;&#1080;&#1085;&#1103;&#1090;&#1080;&#1103;</text><line style="stroke:#181818;stroke-width:1.0;" x1="478.9982" x2="478.9982" y1="430.4848" y2="461.7347"/><line style="stroke:#181818;stroke-width:1.0;" x1="478.9982" x2="793.797" y1="461.7347" y2="461.7347"/><line style="stroke:#181818;stroke-width:1.0;" x1="793.797" x2="793.797" y1="461.7347" y2="478.2247"/><polygon fill="#181818" points="789.797,468.2247,793.797,478.2247,797.797,468.2247,793.797,472.2247" style="stroke:#181818;stroke-width:1.0;"/><text fill="#000000" font-family="sans-serif" font-size="11" lengthAdjust="spacing" textLength="61.5995" x="482.9982" y="442.9748">&#1054;&#1088;&#1080;&#1075;&#1080;&#1085;&#1072;&#1083;&#1099;</text><text fill="#000000" font-family="sans-serif" font-size="11" lengthAdjust="spacing" textLength="68.1994" x="482.9982" y="456.7247">&#1076;&#1086;&#1082;&#1091;&#1084;&#1077;&#1085;&#1090;&#1086;&#1074;</text><line style="stroke:#181818;stroke-width:1.0;" x1="478.9982" x2="478.9982" y1="251.7548" y2="268.7548"/><line style="stroke:#181818;stroke-width:1.0;" x1="478.9982" x2="159.7994" y1="268.7548" y2="268.7548"/><line style="stroke:#181818;stroke-width:1.0;" x1="159.7994" x2="159.7994" y1="268.7548" y2="312.7447"/><polygon fill="#181818" points="155.7994,302.7447,159.7994,312.7447,163.7994,302.7447,159.7994,306.7447" style="stroke:#181818;stroke-width:1.0;"/><line style="stroke:#181818;stroke-width:1.0;" x1="793.797" x2="793.797" y1="624.2149" y2="666.7147"/><line style="stroke:#181818;stroke-width:1.0;" x1="793.797" x2="478.9982" y1="666.7147" y2="666.7147"/><line style="stroke:#181818;stroke-width:1.0;" x1="478.9982" x2="478.9982" y1="666.7147" y2="709.2146"/><polygon fill="#181818" points="474.9982,699.2146,478.9982,709.2146,482.9982,699.2146,478.9982,703.2146" style="stroke:#181818;stroke-width:1.0;"/><text fill="#000000" font-family="sans-serif" font-size="11" lengthAdjust="spacing" textLength="57.1995" x="797.797" y="646.4648">&#1047;&#1072;&#1087;&#1088;&#1086;&#1089; &#1087;&#1086;</text><text fill="#000000" font-family="sans-serif" font-size="11" lengthAdjust="spacing" textLength="68.1994" x="797.797" y="660.2147">&#1086;&#1087;&#1087;&#1086;&#1085;&#1077;&#1085;&#1090;&#1072;&#1084;</text><line style="stroke:#181818;stroke-width:1.0;" x1="478.9982" x2="478.9982" y1="744.2147" y2="786.7145"/><line style="stroke:#181818;stroke-width:1.0;" x1="478.9982" x2="793.797" y1="786.7145" y2="786.7145"/><line style="stroke:#181818;stroke-width:1.0;" x1="793.797" x2="793.797" y1="786.7145" y2="830.7044"/><polygon fill="#181818" points="789.797,820.7044,793.797,830.7044,797.797,820.7044,793.797,824.7044" style="stroke:#181818;stroke-width:1.0;"/><text fill="#000000" font-family="sans-serif" font-size="11" lengthAdjust="spacing" textLength="63.7995" x="482.9982" y="766.4646">&#1057;&#1074;&#1077;&#1076;&#1077;&#1085;&#1080;&#1103; &#1080;</text><text fill="#000000" font-family="sans-serif" font-size="11" lengthAdjust="spacing" textLength="52.7996" x="482.9982" y="780.2145">&#1089;&#1086;&#1075;&#1083;&#1072;&#1089;&#1080;&#1103;</text><line style="stroke:#181818;stroke-width:1.0;" x1="478.9982" x2="478.9982" y1="961.6945" y2="966.6945"/><line style="stroke:#181818;stroke-width:1.0;" x1="478.9982" x2="793.797" y1="966.6945" y2="966.6945"/><line style="stroke:#181818;stroke-width:1.0;" x1="793.797" x2="793.797" y1="966.6945" y2="981.6945"/><polygon fill="#181818" points="789.797,971.6945,793.797,981.6945,797.797,971.6945,793.797,975.6945" style="stroke:#181818;stroke-width:1.0;"/><line style="stroke:#181818;stroke-width:1.0;" x1="793.797" x2="793.797" y1="865.7045" y2="882.7045"/><line style="stroke:#181818;stroke-width:1.0;" x1="793.797" x2="478.9982" y1="882.7045" y2="882.7045"/><line style="stroke:#181818;stroke-width:1.0;" x1="478.9982" x2="478.9982" y1="882.7045" y2="926.6944"/><polygon fill="#181818" points="474.9982,916.6944,478.9982,926.6944,482.9982,916.6944,478.9982,920.6944" style="stroke:#181818;stroke-width:1.0;"/><line style="stroke:#181818;stroke-width:1.0;" x1="793.797" x2="793.797" y1="1292.185" y2="1297.185"/><line style="stroke:#181818;stroke-width:1.0;" x1="793.797" x2="159.7994" y1="1297.185" y2="1297.185"/><line style="stroke:#181818;stroke-width:1.0;" x1="159.7994" x2="159.7994" y1="1297.185" y2="1312.185"/><polygon fill="#181818" points="155.7994,1302.185,159.7994,1312.185,163.7994,1302.185,159.7994,1306.185" style="stroke:#181818;stroke-width:1.0;"/><line style="stroke:#181818;stroke-width:1.0;" x1="159.7994" x2="159.7994" y1="1347.1851" y2="1364.1851"/><line style="stroke:#181818;stroke-width:1.0;" x1="159.7994" x2="478.9982" y1="1364.1851" y2="1364.1851"/><line style="stroke:#181818;stroke-width:1.0;" x1="478.9982" x2="478.9982" y1="1364.1851" y2="1408.175"/><polygon fill="#181818" points="474.9982,1398.175,478.9982,1408.175,482.9982,1398.175,478.9982,1402.175" style="stroke:#181818;stroke-width:1.0;"/><text fill="#000000" font-family="sans-serif" font-size="18" lengthAdjust="spacing" textLength="43.1997" x="136.8996" y="30.9999">&#1044;&#1040;&#1053;&#1050;</text><text fill="#000000" font-family="sans-serif" font-size="18" lengthAdjust="spacing" textLength="107.9993" x="421.4986" y="30.9999">&#1057;&#1086;&#1080;&#1089;&#1082;&#1072;&#1090;&#1077;&#1083;&#1100;</text><text fill="#000000" font-family="sans-serif" font-size="18" lengthAdjust="spacing" textLength="53.9996" x="765.4972" y="30.9999">&#1057;&#1086;&#1074;&#1077;&#1090;</text><!--SRC=[dLH1Ji905Dtt57C1Bs0JJyB6HECE2E2k2u4OOp2YYGc9YIWtQ0gLIajxXJytylsPqexfj1HNpNJUV- -_zsV6epTweGzwznoFLfHI9CUq8rzEAAHOFddES7Gv63atWzvjNz0d41jQKuhzb0962ieeb7TOHFA1zlYDRVxfOpS43eWD_kxab1AGxdMfS_u_CjSvk-0-39ISqK-dMu9SS2-1pG3n6tZD6eO4uX26wrnthuJoR3X7CZ65Gl56yXLkxDOA6aHQf0kxA6ERtCT9Lf4Ibhhm6u8GeeX2RfyxWUmS-v6SktKpr5d7SWgbl9gLhCHCmxfBnRrcVhGKondqB6OFcimoiIgXBltBfKEoabLpDorospl1OvLZU4puw62b-txECsw9RZ7ZCjb6MKvh0LzS0mALB9l6bpFUv_vyIauRKA8HgfCYjOmFYPMQsrZn7Cf92eewNMZnsOgvUptUDY7J5lX7uD51PSJDS7korQjk5R54ywLpnpMFTQ4bcEF7K2ZnBLY2cgEsA9hnGM2isXgolWLgOARF8mzVzHsmNxmgirj77I3JKDwtvsb-juvSt9evvi4jyT94eF0FKzdWawaX9YhtPe0fD1pr-hy0]--></g></svg>