<svg xmlns="http://www.w3.org/2000/svg" xmlns:xlink="http://www.w3.org/1999/xlink" contentStyleType="text/css" data-diagram-type="GANTT" height="245px" preserveAspectRatio="none" style="width:880px;height:245px;background:#FFFFFF;" version="1.1" viewBox="0 0 880 245" width="880px" zoomAndPan="magnify"><defs/><g><line style="stroke:#C0C0C0;stroke-width:1;" x1="0" x2="0" y1="6" y2="236.9988"/><line style="stroke:#C0C0C0;stroke-width:1;" x1="112" x2="112" y1="6" y2="236.9988"/><line style="stroke:#C0C0C0;stroke-width:1;" x1="224" x2="224" y1="6" y2="236.9988"/><line style="stroke:#C0C0C0;stroke-width:1;" x1="336" x2="336" y1="6" y2="236.9988"/><line style="stroke:#C0C0C0;stroke-width:1;" x1="448" x2="448" y1="6" y2="236.9988"/><line style="stroke:#C0C0C0;stroke-width:1;" x1="560" x2="560" y1="6" y2="236.9988"/><line style="stroke:#C0C0C0;stroke-width:1;" x1="672" x2="672" y1="6" y2="236.9988"/><line style="stroke:#C0C0C0;stroke-width:1;" x1="784" x2="784" y1="6" y2="236.9988"/><text fill="#000000" font-family="sans-serif" font-size="10" lengthAdjust="spacing" textLength="6" x="25" y="9.65">1</text><text fill="#000000" font-family="sans-serif" font-size="10" lengthAdjust="spacing" textLength="6" x="137" y="9.65">3</text><text fill="#000000" font-family="sans-serif" font-size="10" lengthAdjust="spacing" textLength="6" x="249" y="9.65">5</text><text fill="#000000" font-family="sans-serif" font-size="10" lengthAdjust="spacing" textLength="6" x="361" y="9.65">7</text><text fill="#000000" font-family="sans-serif" font-size="10" lengthAdjust="spacing" textLength="6" x="473" y="9.65">9</text><text fill="#000000" font-family="sans-serif" font-size="10" lengthAdjust="spacing" textLength="12" x="582" y="9.65">11</text><text fill="#000000" font-family="sans-serif" font-size="10" lengthAdjust="spacing" textLength="12" x="694" y="9.65">13</text><text fill="#000000" font-family="sans-serif" font-size="10" lengthAdjust="spacing" textLength="12" x="806" y="9.65">15</text><path d="M6,24.8749 L12,24.8749 L12,33.7499 L0,33.7499 L0,42.6248 L5,42.6248 " fill="transparent" style="stroke:#181818;stroke-width:1.5;"/><polygon fill="#181818" points="4,38.6248,8,42.6248,4,46.6248,4,38.6248" style="stroke:#181818;stroke-width:1;"/><path d="M120,49.4998 L120,60.3747 L125,60.3747 " fill="transparent" style="stroke:#181818;stroke-width:1.5;"/><polygon fill="#181818" points="124,56.3747,128,60.3747,124,64.3747,124,56.3747" style="stroke:#181818;stroke-width:1;"/><path d="M176,67.2497 L176,78.1246 L181,78.1246 " fill="transparent" style="stroke:#181818;stroke-width:1.5;"/><polygon fill="#181818" points="180,74.1246,184,78.1246,180,82.1246,180,74.1246" style="stroke:#181818;stroke-width:1;"/><path d="M190,78.1246 L196,78.1246 L196,86.9996 L184,86.9996 L184,95.8745 L189,95.8745 " fill="transparent" style="stroke:#181818;stroke-width:1.5;"/><polygon fill="#181818" points="188,91.8745,192,95.8745,188,99.8745,188,91.8745" style="stroke:#181818;stroke-width:1;"/><path d="M304,102.7495 L304,113.6244 L309,113.6244 " fill="transparent" style="stroke:#181818;stroke-width:1.5;"/><polygon fill="#181818" points="308,109.6244,312,113.6244,308,117.6244,308,109.6244" style="stroke:#181818;stroke-width:1;"/><path d="M318,113.6244 L324,113.6244 L324,122.4994 L312,122.4994 L312,131.3743 L317,131.3743 " fill="transparent" style="stroke:#181818;stroke-width:1.5;"/><polygon fill="#181818" points="316,127.3743,320,131.3743,316,135.3743,316,127.3743" style="stroke:#181818;stroke-width:1;"/><path d="M368,138.2493 L368,149.1242 L373,149.1242 " fill="transparent" style="stroke:#181818;stroke-width:1.5;"/><polygon fill="#181818" points="372,145.1242,376,149.1242,372,153.1242,372,145.1242" style="stroke:#181818;stroke-width:1;"/><path d="M382,149.1242 L388,149.1242 L388,157.9992 L376,157.9992 L376,166.8741 L381,166.8741 " fill="transparent" style="stroke:#181818;stroke-width:1.5;"/><polygon fill="#181818" points="380,162.8741,384,166.8741,380,170.8741,380,162.8741" style="stroke:#181818;stroke-width:1;"/><path d="M624,173.7491 L624,184.624 L629,184.624 " fill="transparent" style="stroke:#181818;stroke-width:1.5;"/><polygon fill="#181818" points="628,180.624,632,184.624,628,188.624,628,180.624" style="stroke:#181818;stroke-width:1;"/><path d="M638,184.624 L644,184.624 L644,193.499 L632,193.499 L632,202.3739 L637,202.3739 " fill="transparent" style="stroke:#181818;stroke-width:1.5;"/><polygon fill="#181818" points="636,198.3739,640,202.3739,636,206.3739,636,198.3739" style="stroke:#181818;stroke-width:1;"/><path d="M638,184.624 L644,184.624 L644,211.2489 L632,211.2489 L632,220.1238 L637,220.1238 " fill="transparent" style="stroke:#181818;stroke-width:1.5;"/><polygon fill="#181818" points="636,216.1238,640,220.1238,636,224.1238,636,216.1238" style="stroke:#181818;stroke-width:1;"/><rect fill="#E2E2F0" height="13.7499" style="stroke:transparent;stroke-width:1;" width="4" x="2" y="18"/><line style="stroke:#181818;stroke-width:1;" x1="2" x2="6" y1="18" y2="18"/><line style="stroke:#181818;stroke-width:1;" x1="2" x2="6" y1="31.7499" y2="31.7499"/><line style="stroke:#181818;stroke-width:1;" x1="2" x2="2" y1="18" y2="31.7499"/><line style="stroke:#181818;stroke-width:1;" x1="6" x2="6" y1="18" y2="31.7499"/><rect fill="#E2E2F0" height="13.7499" style="stroke:transparent;stroke-width:1;" width="116" x="10" y="35.7499"/><line style="stroke:#181818;stroke-width:1;" x1="10" x2="126" y1="35.7499" y2="35.7499"/><line style="stroke:#181818;stroke-width:1;" x1="10" x2="126" y1="49.4998" y2="49.4998"/><line style="stroke:#181818;stroke-width:1;" x1="10" x2="10" y1="35.7499" y2="49.4998"/><line style="stroke:#181818;stroke-width:1;" x1="126" x2="126" y1="35.7499" y2="49.4998"/><rect fill="#E2E2F0" height="13.7499" style="stroke:transparent;stroke-width:1;" width="52" x="130" y="53.4998"/><line style="stroke:#181818;stroke-width:1;" x1="130" x2="182" y1="53.4998" y2="53.4998"/><line style="stroke:#181818;stroke-width:1;" x1="130" x2="182" y1="67.2497" y2="67.2497"/><line style="stroke:#181818;stroke-width:1;" x1="130" x2="130" y1="53.4998" y2="67.2497"/><line style="stroke:#181818;stroke-width:1;" x1="182" x2="182" y1="53.4998" y2="67.2497"/><rect fill="#E2E2F0" height="13.7499" style="stroke:transparent;stroke-width:1;" width="4" x="186" y="71.2497"/><line style="stroke:#181818;stroke-width:1;" x1="186" x2="190" y1="71.2497" y2="71.2497"/><line style="stroke:#181818;stroke-width:1;" x1="186" x2="190" y1="84.9996" y2="84.9996"/><line style="stroke:#181818;stroke-width:1;" x1="186" x2="186" y1="71.2497" y2="84.9996"/><line style="stroke:#181818;stroke-width:1;" x1="190" x2="190" y1="71.2497" y2="84.9996"/><rect fill="#E2E2F0" height="13.7499" style="stroke:transparent;stroke-width:1;" width="116" x="194" y="88.9996"/><line style="stroke:#181818;stroke-width:1;" x1="194" x2="310" y1="88.9996" y2="88.9996"/><line style="stroke:#181818;stroke-width:1;" x1="194" x2="310" y1="102.7495" y2="102.7495"/><line style="stroke:#181818;stroke-width:1;" x1="194" x2="194" y1="88.9996" y2="102.7495"/><line style="stroke:#181818;stroke-width:1;" x1="310" x2="310" y1="88.9996" y2="102.7495"/><rect fill="#E2E2F0" height="13.7499" style="stroke:transparent;stroke-width:1;" width="4" x="314" y="106.7495"/><line style="stroke:#181818;stroke-width:1;" x1="314" x2="318" y1="106.7495" y2="106.7495"/><line style="stroke:#181818;stroke-width:1;" x1="314" x2="318" y1="120.4994" y2="120.4994"/><line style="stroke:#181818;stroke-width:1;" x1="314" x2="314" y1="106.7495" y2="120.4994"/><line style="stroke:#181818;stroke-width:1;" x1="318" x2="318" y1="106.7495" y2="120.4994"/><rect fill="#E2E2F0" height="13.7499" style="stroke:transparent;stroke-width:1;" width="52" x="322" y="124.4994"/><line style="stroke:#181818;stroke-width:1;" x1="322" x2="374" y1="124.4994" y2="124.4994"/><line style="stroke:#181818;stroke-width:1;" x1="322" x2="374" y1="138.2493" y2="138.2493"/><line style="stroke:#181818;stroke-width:1;" x1="322" x2="322" y1="124.4994" y2="138.2493"/><line style="stroke:#181818;stroke-width:1;" x1="374" x2="374" y1="124.4994" y2="138.2493"/><rect fill="#E2E2F0" height="13.7499" style="stroke:transparent;stroke-width:1;" width="4" x="378" y="142.2493"/><line style="stroke:#181818;stroke-width:1;" x1="378" x2="382" y1="142.2493" y2="142.2493"/><line style="stroke:#181818;stroke-width:1;" x1="378" x2="382" y1="155.9992" y2="155.9992"/><line style="stroke:#181818;stroke-width:1;" x1="378" x2="378" y1="142.2493" y2="155.9992"/><line style="stroke:#181818;stroke-width:1;" x1="382" x2="382" y1="142.2493" y2="155.9992"/><rect fill="#E2E2F0" height="13.7499" style="stroke:transparent;stroke-width:1;" width="244" x="386" y="159.9992"/><line style="stroke:#181818;stroke-width:1;" x1="386" x2="630" y1="159.9992" y2="159.9992"/><line style="stroke:#181818;stroke-width:1;" x1="386" x2="630" y1="173.7491" y2="173.7491"/><line style="stroke:#181818;stroke-width:1;" x1="386" x2="386" y1="159.9992" y2="173.7491"/><line style="stroke:#181818;stroke-width:1;" x1="630" x2="630" y1="159.9992" y2="173.7491"/><rect fill="#E2E2F0" height="13.7499" style="stroke:transparent;stroke-width:1;" width="4" x="634" y="177.7491"/><line style="stroke:#181818;stroke-width:1;" x1="634" x2="638" y1="177.7491" y2="177.7491"/><line style="stroke:#181818;stroke-width:1;" x1="634" x2="638" y1="191.499" y2="191.499"/><line style="stroke:#181818;stroke-width:1;" x1="634" x2="634" y1="177.7491" y2="191.499"/><line style="stroke:#181818;stroke-width:1;" x1="638" x2="638" y1="177.7491" y2="191.499"/><rect fill="#E2E2F0" height="13.7499" style="stroke:transparent;stroke-width:1;" width="36" x="642" y="195.499"/><line style="stroke:#181818;stroke-width:1;" x1="642" x2="678" y1="195.499" y2="195.499"/><line style="stroke:#181818;stroke-width:1;" x1="642" x2="678" y1="209.2489" y2="209.2489"/><line style="stroke:#181818;stroke-width:1;" x1="642" x2="642" y1="195.499" y2="209.2489"/><line style="stroke:#181818;stroke-width:1;" x1="678" x2="678" y1="195.499" y2="209.2489"/><rect fill="#E2E2F0" height="13.7499" style="stroke:transparent;stroke-width:1;" width="236" x="642" y="213.2489"/><line style="stroke:#181818;stroke-width:1;" x1="642" x2="878" y1="213.2489" y2="213.2489"/><line style="stroke:#181818;stroke-width:1;" x1="642" x2="878" y1="226.9988" y2="226.9988"/><line style="stroke:#181818;stroke-width:1;" x1="642" x2="642" y1="213.2489" y2="226.9988"/><line style="stroke:#181818;stroke-width:1;" x1="878" x2="878" y1="213.2489" y2="226.9988"/><text fill="#000000" font-family="sans-serif" font-size="11" lengthAdjust="spacing" textLength="104.4991" x="10" y="28.6149">&#1044;&#1086;&#1082;&#1091;&#1084;&#1077;&#1085;&#1090;&#1099; &#1074; &#1044;&#1040;&#1053;&#1050;</text><text fill="#000000" font-family="sans-serif" font-size="11" lengthAdjust="spacing" textLength="147.3988" x="130" y="46.3648">&#1054;&#1078;&#1080;&#1076;&#1072;&#1085;&#1080;&#1077; &#1087;&#1086;&#1076;&#1090;&#1074;&#1077;&#1088;&#1078;&#1076;&#1077;&#1085;&#1080;&#1103;</text><text fill="#000000" font-family="sans-serif" font-size="11" lengthAdjust="spacing" textLength="111.0991" x="186" y="64.1147">&#1044;&#1086;&#1082;&#1091;&#1084;&#1077;&#1085;&#1090;&#1099; &#1074; &#1057;&#1086;&#1074;&#1077;&#1090;</text><text fill="#000000" font-family="sans-serif" font-size="11" lengthAdjust="spacing" textLength="150.6988" x="194" y="81.8646">&#1055;&#1088;&#1080;&#1085;&#1103;&#1090;&#1080;&#1077; &#1082; &#1088;&#1072;&#1089;&#1089;&#1084;&#1086;&#1090;&#1088;&#1077;&#1085;&#1080;&#1102;</text><text fill="#000000" font-family="sans-serif" font-size="11" lengthAdjust="spacing" textLength="215.5982" x="314" y="99.6145">&#1069;&#1082;&#1089;&#1087;&#1077;&#1088;&#1090;&#1085;&#1086;&#1077; &#1079;&#1072;&#1082;&#1083;&#1102;&#1095;&#1077;&#1085;&#1080;&#1077; + &#1086;&#1087;&#1087;&#1086;&#1085;&#1077;&#1085;&#1090;&#1099;</text><text fill="#000000" font-family="sans-serif" font-size="11" lengthAdjust="spacing" textLength="111.0991" x="322" y="117.3644">&#1055;&#1088;&#1080;&#1085;&#1103;&#1090;&#1080;&#1077; &#1082; &#1079;&#1072;&#1097;&#1080;&#1090;&#1077;</text><text fill="#000000" font-family="sans-serif" font-size="11" lengthAdjust="spacing" textLength="133.0989" x="378" y="135.1143">&#1055;&#1077;&#1095;&#1072;&#1090;&#1100; &#1072;&#1074;&#1090;&#1086;&#1088;&#1077;&#1092;&#1077;&#1088;&#1072;&#1090;&#1086;&#1074;</text><text fill="#000000" font-family="sans-serif" font-size="11" lengthAdjust="spacing" textLength="148.4988" x="386" y="152.8642">&#1056;&#1072;&#1089;&#1089;&#1099;&#1083;&#1082;&#1072; &#1072;&#1074;&#1090;&#1086;&#1088;&#1077;&#1092;&#1077;&#1088;&#1072;&#1090;&#1086;&#1074;</text><text fill="#000000" font-family="sans-serif" font-size="11" lengthAdjust="spacing" textLength="104.4992" x="390" y="170.6141">&#1054;&#1078;&#1080;&#1076;&#1072;&#1085;&#1080;&#1077; &#1079;&#1072;&#1097;&#1080;&#1090;&#1099;</text><text fill="#000000" font-family="sans-serif" font-size="11" lengthAdjust="spacing" textLength="42.8997" x="642" y="188.364">&#1047;&#1072;&#1097;&#1080;&#1090;&#1072;</text><text fill="#000000" font-family="sans-serif" font-size="11" lengthAdjust="spacing" textLength="196.8984" x="682" y="206.1139">&#1055;&#1086;&#1076;&#1075;&#1086;&#1090;&#1086;&#1074;&#1082;&#1072; &#1086;&#1089;&#1085;&#1086;&#1074;&#1085;&#1099;&#1093; &#1076;&#1086;&#1082;&#1091;&#1084;&#1077;&#1085;&#1090;&#1086;&#1074;</text><text fill="#000000" font-family="sans-serif" font-size="11" lengthAdjust="spacing" textLength="137.4989" x="646" y="223.8638">&#1055;&#1086;&#1076;&#1075;&#1086;&#1090;&#1086;&#1074;&#1082;&#1072; &#1076;&#1086;&#1082;&#1091;&#1084;&#1077;&#1085;&#1090;&#1086;&#1074;</text><text fill="#000000" font-family="sans-serif" font-size="10" lengthAdjust="spacing" textLength="6" x="25" y="241.6488">1</text><text fill="#000000" font-family="sans-serif" font-size="10" lengthAdjust="spacing" textLength="6" x="137" y="241.6488">3</text><text fill="#000000" font-family="sans-serif" font-size="10" lengthAdjust="spacing" textLength="6" x="249" y="241.6488">5</text><text fill="#000000" font-family="sans-serif" font-size="10" lengthAdjust="spacing" textLength="6" x="361" y="241.6488">7</text><text fill="#000000" font-family="sans-serif" font-size="10" lengthAdjust="spacing" textLength="6" x="473" y="241.6488">9</text><text fill="#000000" font-family="sans-serif" font-size="10" lengthAdjust="spacing" textLength="12" x="582" y="241.6488">11</text><text fill="#000000" font-family="sans-serif" font-size="10" lengthAdjust="spacing" textLength="12" x="694" y="241.6488">13</text><text fill="#000000" font-family="sans-serif" font-size="10" lengthAdjust="spacing" textLength="12" x="806" y="241.6488">15</text><!--SRC=[fLLFRn915B_lftWtspGqMv2ssODfjDe48JOLUZ4UHXZ9HfYjCxCOF1NKD0sczM1YOgBL3s1249HGbtw5cM_aswKWa2tTjQVDlds_Fs_c_R9RGX8kouH9QHnmcqbH91KAhoXzKQd3QyUfGj8GHBgyHEf0E8LYnH6qP0YNpLMC9-gZ6gg1VgF-g9xoT5EtG7K0gn_K5_NvAN3wqhKv5R06Y1K8-Af-gRxgghRoyDa3TO4CNTrK7TNJX_YnwpEflZwTHgV7y72zxrZrySqfpCOOSeQqVMm-HP50SG1OQUk6RY3D44aEBoLFmWp_GBq6kaHtIE2X4bByHly3TQvFzD48YyKLm6yNmJpUs5te3266V49zZ1QQgXTcuWpbZx2bgTy3IdUmR-ZRrc-3KslxxweJDlstqQIwfSxHSJiQ-khRclYScIqr0NoQpD4EdmClM_tqJpsuii3H4C_N2ruztTBl03jcBddEN7eXsM9ioXo1OovY41a1HC9r6tzB06MbA8iwpHd3ItI1n1s8j_nnin88t2mUDy_NLLFE92fAw4P4qN8M8v41ROmGneniGBymfTUcEA2OpkryZ2zFvd-J6vqk5Bs5wpxwMncx5NmMSbceKIviXy7QQj9CfbVDfRnB8KCOc1kGDArKsagjmquklsAcBDC4lsdPMDhPpO9mN5waKBA5vFOpLoBBif4XDG9xBfDsbLhmw82opFR3SG7kivhD7LQbJ1gP_To_XlNRYRksXCUKen_OpndRz3bnAn8HHQTaix85XVo3nAQH9QpiaZ9oSzUuvo0lhrkmL_WB]--></g></svg>