<svg xmlns="http://www.w3.org/2000/svg" xmlns:xlink="http://www.w3.org/1999/xlink" contentStyleType="text/css" height="1707px" preserveAspectRatio="none" style="width:1126px;height:1707px;background:#FFFFFF;" version="1.1" viewBox="0 0 1126 1707" width="1126px" zoomAndPan="magnify"><defs/><g><rect fill="none" height="22.4999" style="stroke:none;stroke-width:1.0;" width="1093.9993" x="15" y="13.63"/><rect fill="#F1F1F1" height="35.0001" rx="12.5" ry="12.5" style="stroke:#181818;stroke-width:0.5;" width="159.2011" x="112.5998" y="298.7549"/><text fill="#000000" font-family="sans-serif" font-size="12" lengthAdjust="spacing" textLength="139.2011" x="122.5998" y="320.335">&#1055;&#1088;&#1086;&#1074;&#1077;&#1088;&#1080;&#1090;&#1100; &#1076;&#1086;&#1082;&#1091;&#1084;&#1077;&#1085;&#1090;&#1099;</text><rect fill="none" height="378.7401" style="stroke:#000000;stroke-width:1.5;" width="367.6009" x="21" y="343.755"/><path d="M263.399,343.755 L263.399,354.255 L253.399,364.255 L21,364.255 " fill="none" style="stroke:#000000;stroke-width:1.5;"/><text fill="#000000" font-family="sans-serif" font-size="14" lengthAdjust="spacing" textLength="232.399" x="24" y="358.265">&#1055;&#1086;&#1089;&#1083;&#1077; &#1087;&#1088;&#1080;&#1105;&#1084;&#1072; &#1076;&#1086;&#1082;&#1091;&#1084;&#1077;&#1085;&#1090;&#1086;&#1074; &#1044;&#1040;&#1053;&#1050;</text><polygon fill="#F1F1F1" points="192.2003,381.255,192.2003,381.255,204.2003,393.255,192.2003,405.255,192.2003,405.255,180.2003,393.255,192.2003,381.255" style="stroke:#181818;stroke-width:0.5;"/><text fill="#000000" font-family="sans-serif" font-size="11" lengthAdjust="spacing" textLength="65.9995" x="114.2009" y="390.12">&#1057;&#1086;&#1080;&#1089;&#1082;&#1072;&#1090;&#1077;&#1083;&#1100;</text><text fill="#000000" font-family="sans-serif" font-size="11" lengthAdjust="spacing" textLength="32.9997" x="204.2003" y="390.12">&#1057;&#1086;&#1074;&#1077;&#1090;</text><rect fill="#F1F1F1" height="35.0001" rx="12.5" ry="12.5" style="stroke:#181818;stroke-width:0.5;" width="120.8008" x="33" y="425.255"/><text fill="#000000" font-family="sans-serif" font-size="12" lengthAdjust="spacing" textLength="100.8008" x="43" y="446.835">&#1042;&#1099;&#1076;&#1072;&#1090;&#1100; &#1089;&#1087;&#1088;&#1072;&#1074;&#1082;&#1091;</text><rect fill="#F1F1F1" height="35.0001" rx="12.5" ry="12.5" style="stroke:#181818;stroke-width:0.5;" width="171.2012" x="205.3997" y="425.255"/><text fill="#000000" font-family="sans-serif" font-size="12" lengthAdjust="spacing" textLength="151.2012" x="215.3997" y="446.835">&#1056;&#1072;&#1079;&#1086;&#1089;&#1083;&#1072;&#1090;&#1100; &#1076;&#1080;&#1089;&#1089;&#1077;&#1088;&#1090;&#1072;&#1094;&#1080;&#1102;</text><rect fill="none" height="224.5004" style="stroke:#000000;stroke-width:1.5;" width="277.5989" x="53.4009" y="1333.445"/><path d="M320.9998,1333.445 L320.9998,1343.9449 L310.9998,1353.9449 L53.4009,1353.9449 " fill="none" style="stroke:#000000;stroke-width:1.5;"/><text fill="#000000" font-family="sans-serif" font-size="14" lengthAdjust="spacing" textLength="257.5989" x="56.4009" y="1347.9549">&#1055;&#1086;&#1076;&#1075;&#1086;&#1090;&#1086;&#1074;&#1082;&#1072; &#1076;&#1086;&#1082;&#1091;&#1084;&#1077;&#1085;&#1090;&#1086;&#1074; &#1087;&#1086; &#1079;&#1072;&#1097;&#1080;&#1090;&#1077;</text><rect fill="#F1F1F1" height="35.0001" rx="12.5" ry="12.5" style="stroke:#181818;stroke-width:0.5;" width="159.2011" x="112.5998" y="1510.9453"/><text fill="#000000" font-family="sans-serif" font-size="12" lengthAdjust="spacing" textLength="139.2011" x="122.5998" y="1532.5254">&#1055;&#1088;&#1086;&#1074;&#1077;&#1088;&#1080;&#1090;&#1100; &#1076;&#1086;&#1082;&#1091;&#1084;&#1077;&#1085;&#1090;&#1099;</text><line style="stroke:#000000;stroke-width:1.5;" x1="15" x2="15" y1="13.63" y2="1695.9355"/><ellipse cx="581.6002" cy="51.1298" fill="#222222" rx="10" ry="10" style="stroke:#222222;stroke-width:1.0;"/><rect fill="none" height="206.1351" style="stroke:#000000;stroke-width:1.5;" width="336.9986" x="410.6009" y="72.6198"/><path d="M742.5995,72.6198 L742.5995,83.1197 L732.5995,93.1197 L410.6009,93.1197 " fill="none" style="stroke:#000000;stroke-width:1.5;"/><text fill="#000000" font-family="sans-serif" font-size="14" lengthAdjust="spacing" textLength="321.9986" x="413.6009" y="87.1298">&#1055;&#1086;&#1076;&#1075;&#1086;&#1090;&#1086;&#1074;&#1082;&#1072; &#1087;&#1077;&#1088;&#1074;&#1080;&#1095;&#1085;&#1086;&#1075;&#1086; &#1087;&#1072;&#1082;&#1077;&#1090;&#1072; &#1076;&#1086;&#1082;&#1091;&#1084;&#1077;&#1085;&#1090;&#1086;&#1074;</text><rect fill="#F1F1F1" height="50.0002" rx="12.5" ry="12.5" style="stroke:#181818;stroke-width:0.5;" width="171.2012" x="495.9996" y="110.1197"/><text fill="#000000" font-family="sans-serif" font-size="12" lengthAdjust="spacing" textLength="151.2012" x="505.9996" y="131.6998">&#1055;&#1086;&#1076;&#1075;&#1086;&#1090;&#1086;&#1074;&#1080;&#1090;&#1100; &#1087;&#1077;&#1088;&#1074;&#1080;&#1095;&#1085;&#1099;&#1081;</text><text fill="#000000" font-family="sans-serif" font-size="12" lengthAdjust="spacing" textLength="115.2009" x="505.9996" y="146.6999">&#1087;&#1072;&#1082;&#1077;&#1090; &#1076;&#1086;&#1082;&#1091;&#1084;&#1077;&#1085;&#1090;&#1086;&#1074;</text><rect fill="#F1F1F1" height="50.0002" rx="12.5" ry="12.5" style="stroke:#181818;stroke-width:0.5;" width="156.8011" x="503.1996" y="216.7547"/><text fill="#000000" font-family="sans-serif" font-size="12" lengthAdjust="spacing" textLength="136.8011" x="513.1996" y="238.3348">&#1054;&#1090;&#1087;&#1088;&#1072;&#1074;&#1080;&#1090;&#1100; &#1087;&#1077;&#1088;&#1074;&#1080;&#1095;&#1085;&#1099;&#1081;</text><text fill="#000000" font-family="sans-serif" font-size="12" lengthAdjust="spacing" textLength="81.6006" x="513.1996" y="253.3349">&#1087;&#1072;&#1082;&#1077;&#1090; &#1074; &#1044;&#1040;&#1053;&#1050;</text><rect fill="none" height="378.7401" style="stroke:#000000;stroke-width:1.5;" width="360.9986" x="398.6009" y="343.755"/><path d="M640.9999,343.755 L640.9999,354.255 L630.9999,364.255 L398.6009,364.255 " fill="none" style="stroke:#000000;stroke-width:1.5;"/><text fill="#000000" font-family="sans-serif" font-size="14" lengthAdjust="spacing" textLength="232.399" x="401.6009" y="358.265">&#1055;&#1086;&#1089;&#1083;&#1077; &#1087;&#1088;&#1080;&#1105;&#1084;&#1072; &#1076;&#1086;&#1082;&#1091;&#1084;&#1077;&#1085;&#1090;&#1086;&#1074; &#1044;&#1040;&#1053;&#1050;</text><rect fill="#F1F1F1" height="35.0001" rx="12.5" ry="12.5" style="stroke:#181818;stroke-width:0.5;" width="132.8009" x="416.3998" y="522.7549"/><text fill="#000000" font-family="sans-serif" font-size="12" lengthAdjust="spacing" textLength="112.8009" x="426.3998" y="544.3349">&#1055;&#1086;&#1083;&#1091;&#1095;&#1080;&#1090;&#1100; &#1089;&#1087;&#1088;&#1072;&#1074;&#1082;&#1091;</text><rect fill="#F1F1F1" height="35.0001" rx="12.5" ry="12.5" style="stroke:#181818;stroke-width:0.5;" width="212.0015" x="475.5994" y="577.755"/><text fill="#000000" font-family="sans-serif" font-size="12" lengthAdjust="spacing" textLength="192.0015" x="485.5994" y="599.335">&#1054;&#1090;&#1087;&#1088;&#1072;&#1074;&#1080;&#1090;&#1100; &#1076;&#1086;&#1082;&#1091;&#1084;&#1077;&#1085;&#1090;&#1099; &#1074; &#1057;&#1086;&#1074;&#1077;&#1090;</text><rect fill="none" height="102.8851" style="stroke:#000000;stroke-width:1.5;" width="260.799" x="451.2007" y="855.4749"/><path d="M701.9997,855.4749 L701.9997,865.9749 L691.9997,875.9749 L451.2007,875.9749 " fill="none" style="stroke:#000000;stroke-width:1.5;"/><text fill="#000000" font-family="sans-serif" font-size="14" lengthAdjust="spacing" textLength="240.799" x="454.2007" y="869.9849">&#1055;&#1086;&#1089;&#1083;&#1077; &#1087;&#1088;&#1080;&#1085;&#1103;&#1090;&#1080;&#1103; &#1082; &#1088;&#1072;&#1089;&#1089;&#1084;&#1086;&#1090;&#1088;&#1077;&#1085;&#1080;&#1102;</text><rect fill="#F1F1F1" height="50.0002" rx="12.5" ry="12.5" style="stroke:#181818;stroke-width:0.5;" width="152.001" x="505.5997" y="892.9749"/><text fill="#000000" font-family="sans-serif" font-size="12" lengthAdjust="spacing" textLength="132.001" x="515.5997" y="914.5549">&#1055;&#1086;&#1083;&#1091;&#1095;&#1080;&#1090;&#1100; &#1084;&#1072;&#1090;&#1077;&#1088;&#1080;&#1072;&#1083;&#1099;</text><text fill="#000000" font-family="sans-serif" font-size="12" lengthAdjust="spacing" textLength="93.6007" x="515.5997" y="929.555">&#1087;&#1086; &#1086;&#1087;&#1087;&#1086;&#1085;&#1077;&#1085;&#1090;&#1072;&#1084;</text><rect fill="none" height="139.5001" style="stroke:#000000;stroke-width:1.5;" width="179.2011" x="491.9996" y="1087.9548"/><path d="M658.799,1087.9548 L658.799,1098.4548 L648.799,1108.4548 L491.9996,1108.4548 " fill="none" style="stroke:#000000;stroke-width:1.5;"/><text fill="#000000" font-family="sans-serif" font-size="14" lengthAdjust="spacing" textLength="156.7993" x="494.9996" y="1102.4648">&#1055;&#1086;&#1076;&#1075;&#1086;&#1090;&#1086;&#1074;&#1082;&#1072; &#1082; &#1079;&#1072;&#1097;&#1080;&#1090;&#1077;</text><rect fill="#F1F1F1" height="35.0001" rx="12.5" ry="12.5" style="stroke:#181818;stroke-width:0.5;" width="159.2011" x="501.9996" y="1125.4548"/><text fill="#000000" font-family="sans-serif" font-size="12" lengthAdjust="spacing" textLength="139.2011" x="511.9996" y="1147.0349">&#1056;&#1072;&#1079;&#1086;&#1089;&#1083;&#1072;&#1090;&#1100; &#1084;&#1072;&#1090;&#1077;&#1088;&#1080;&#1072;&#1083;&#1099;</text><rect fill="none" height="84.5" style="stroke:#000000;stroke-width:1.5;" width="157.1994" x="503.0005" y="1569.4354"/><path d="M650.1999,1569.4354 L650.1999,1579.9353 L640.1999,1589.9353 L503.0005,1589.9353 " fill="none" style="stroke:#000000;stroke-width:1.5;"/><text fill="#000000" font-family="sans-serif" font-size="14" lengthAdjust="spacing" textLength="137.1994" x="506.0005" y="1583.9454">&#1054;&#1078;&#1080;&#1076;&#1072;&#1085;&#1080;&#1077; &#1076;&#1080;&#1087;&#1083;&#1086;&#1084;&#1072;</text><rect fill="#F1F1F1" height="35.0001" rx="12.5" ry="12.5" style="stroke:#181818;stroke-width:0.5;" width="108.8007" x="527.1998" y="1606.9353"/><text fill="#000000" font-family="sans-serif" font-size="12" lengthAdjust="spacing" textLength="88.8007" x="537.1998" y="1628.5154">&#1046;&#1076;&#1072;&#1090;&#1100; &#1076;&#1080;&#1087;&#1083;&#1086;&#1084;</text><ellipse cx="581.6002" cy="1684.9355" fill="none" rx="11" ry="11" style="stroke:#222222;stroke-width:1.0;"/><ellipse cx="581.6002" cy="1684.9355" fill="#222222" rx="6" ry="6" style="stroke:#222222;stroke-width:1.0;"/><line style="stroke:#000000;stroke-width:1.5;" x1="392.6009" x2="392.6009" y1="13.63" y2="1695.9355"/><rect fill="none" height="378.7401" style="stroke:#000000;stroke-width:1.5;" width="332.7999" x="769.5995" y="343.755"/><path d="M1011.9985,343.755 L1011.9985,354.255 L1001.9985,364.255 L769.5995,364.255 " fill="none" style="stroke:#000000;stroke-width:1.5;"/><text fill="#000000" font-family="sans-serif" font-size="14" lengthAdjust="spacing" textLength="232.399" x="772.5995" y="358.265">&#1055;&#1086;&#1089;&#1083;&#1077; &#1087;&#1088;&#1080;&#1105;&#1084;&#1072; &#1076;&#1086;&#1082;&#1091;&#1084;&#1077;&#1085;&#1090;&#1086;&#1074; &#1044;&#1040;&#1053;&#1050;</text><rect fill="#F1F1F1" height="35.0001" rx="12.5" ry="12.5" style="stroke:#181818;stroke-width:0.5;" width="142.401" x="947.9984" y="495.2551"/><text fill="#000000" font-family="sans-serif" font-size="12" lengthAdjust="spacing" textLength="122.401" x="957.9984" y="516.8351">&#1055;&#1086;&#1083;&#1091;&#1095;&#1080;&#1090;&#1100; &#1088;&#1072;&#1089;&#1089;&#1099;&#1083;&#1082;&#1091;</text><rect fill="#F1F1F1" height="50.0002" rx="12.5" ry="12.5" style="stroke:#181818;stroke-width:0.5;" width="166.4012" x="837.1983" y="660.4949"/><text fill="#000000" font-family="sans-serif" font-size="12" lengthAdjust="spacing" textLength="57.6005" x="847.1983" y="682.075">&#1055;&#1086;&#1083;&#1091;&#1095;&#1080;&#1090;&#1100;</text><text fill="#000000" font-family="sans-serif" font-size="12" lengthAdjust="spacing" textLength="146.4012" x="847.1983" y="697.0751">&#1086;&#1088;&#1080;&#1075;&#1080;&#1085;&#1072;&#1083;&#1099; &#1076;&#1086;&#1082;&#1091;&#1084;&#1077;&#1085;&#1090;&#1086;&#1074;</text><rect fill="none" height="87.885" style="stroke:#000000;stroke-width:1.5;" width="213.1992" x="813.7993" y="733.9851"/><path d="M1016.9985,733.9851 L1016.9985,744.485 L1006.9985,754.485 L813.7993,754.485 " fill="none" style="stroke:#000000;stroke-width:1.5;"/><text fill="#000000" font-family="sans-serif" font-size="14" lengthAdjust="spacing" textLength="193.1992" x="816.7993" y="748.4951">&#1055;&#1088;&#1080;&#1085;&#1103;&#1090;&#1080;&#1077; &#1082; &#1088;&#1072;&#1089;&#1089;&#1084;&#1086;&#1090;&#1088;&#1077;&#1085;&#1080;&#1102;</text><rect fill="#F1F1F1" height="35.0001" rx="12.5" ry="12.5" style="stroke:#181818;stroke-width:0.5;" width="178.4012" x="831.1983" y="771.485"/><text fill="#000000" font-family="sans-serif" font-size="12" lengthAdjust="spacing" textLength="158.4012" x="841.1983" y="793.0651">&#1055;&#1088;&#1080;&#1085;&#1103;&#1090;&#1100; &#1082; &#1088;&#1072;&#1089;&#1089;&#1084;&#1086;&#1090;&#1088;&#1077;&#1085;&#1080;&#1102;</text><rect fill="none" height="84.5" style="stroke:#000000;stroke-width:1.5;" width="159.9994" x="840.3992" y="991.9648"/><path d="M990.3986,991.9648 L990.3986,1002.4648 L980.3986,1012.4648 L840.3992,1012.4648 " fill="none" style="stroke:#000000;stroke-width:1.5;"/><text fill="#000000" font-family="sans-serif" font-size="14" lengthAdjust="spacing" textLength="139.9994" x="843.3992" y="1006.4748">&#1055;&#1088;&#1080;&#1085;&#1103;&#1090;&#1080;&#1077; &#1082; &#1079;&#1072;&#1097;&#1080;&#1090;&#1077;</text><rect fill="#F1F1F1" height="35.0001" rx="12.5" ry="12.5" style="stroke:#181818;stroke-width:0.5;" width="132.8009" x="853.9985" y="1029.4648"/><text fill="#000000" font-family="sans-serif" font-size="12" lengthAdjust="spacing" textLength="112.8009" x="863.9985" y="1051.0448">&#1055;&#1088;&#1080;&#1085;&#1103;&#1090;&#1100; &#1082; &#1079;&#1072;&#1097;&#1080;&#1090;&#1077;</text><rect fill="none" height="139.5001" style="stroke:#000000;stroke-width:1.5;" width="179.2011" x="830.7984" y="1087.9548"/><path d="M997.5977,1087.9548 L997.5977,1098.4548 L987.5977,1108.4548 L830.7984,1108.4548 " fill="none" style="stroke:#000000;stroke-width:1.5;"/><text fill="#000000" font-family="sans-serif" font-size="14" lengthAdjust="spacing" textLength="156.7993" x="833.7984" y="1102.4648">&#1055;&#1086;&#1076;&#1075;&#1086;&#1090;&#1086;&#1074;&#1082;&#1072; &#1082; &#1079;&#1072;&#1097;&#1080;&#1090;&#1077;</text><rect fill="#F1F1F1" height="35.0001" rx="12.5" ry="12.5" style="stroke:#181818;stroke-width:0.5;" width="130.4009" x="855.1985" y="1180.4549"/><text fill="#000000" font-family="sans-serif" font-size="12" lengthAdjust="spacing" textLength="110.4009" x="865.1985" y="1202.035">&#1055;&#1086;&#1083;&#1091;&#1095;&#1080;&#1090;&#1100; &#1086;&#1090;&#1079;&#1099;&#1074;&#1099;</text><rect fill="none" height="84.5" style="stroke:#000000;stroke-width:1.5;" width="148.0009" x="846.3985" y="1237.455"/><path d="M909.5983,1237.455 L909.5983,1247.9549 L899.5983,1257.9549 L846.3985,1257.9549 " fill="none" style="stroke:#000000;stroke-width:1.5;"/><text fill="#000000" font-family="sans-serif" font-size="14" lengthAdjust="spacing" textLength="53.1998" x="849.3985" y="1251.9649">&#1047;&#1072;&#1097;&#1080;&#1090;&#1072;</text><rect fill="#F1F1F1" height="35.0001" rx="12.5" ry="12.5" style="stroke:#181818;stroke-width:0.5;" width="128.0009" x="856.3985" y="1274.9549"/><text fill="#000000" font-family="sans-serif" font-size="12" lengthAdjust="spacing" textLength="108.0009" x="866.3985" y="1296.535">&#1055;&#1088;&#1086;&#1074;&#1077;&#1089;&#1090;&#1080; &#1079;&#1072;&#1097;&#1080;&#1090;&#1091;</text><rect fill="none" height="224.5004" style="stroke:#000000;stroke-width:1.5;" width="277.5989" x="781.5995" y="1333.445"/><path d="M1049.1984,1333.445 L1049.1984,1343.9449 L1039.1984,1353.9449 L781.5995,1353.9449 " fill="none" style="stroke:#000000;stroke-width:1.5;"/><text fill="#000000" font-family="sans-serif" font-size="14" lengthAdjust="spacing" textLength="257.5989" x="784.5995" y="1347.9549">&#1055;&#1086;&#1076;&#1075;&#1086;&#1090;&#1086;&#1074;&#1082;&#1072; &#1076;&#1086;&#1082;&#1091;&#1084;&#1077;&#1085;&#1090;&#1086;&#1074; &#1087;&#1086; &#1079;&#1072;&#1097;&#1080;&#1090;&#1077;</text><rect fill="#F1F1F1" height="50.0002" rx="12.5" ry="12.5" style="stroke:#181818;stroke-width:0.5;" width="190.4014" x="825.1982" y="1370.9449"/><text fill="#000000" font-family="sans-serif" font-size="12" lengthAdjust="spacing" textLength="170.4014" x="835.1982" y="1392.525">&#1055;&#1086;&#1076;&#1075;&#1086;&#1090;&#1086;&#1074;&#1080;&#1090;&#1100; &#1087;&#1077;&#1088;&#1074;&#1099;&#1081; &#1087;&#1072;&#1082;&#1077;&#1090;</text><text fill="#000000" font-family="sans-serif" font-size="12" lengthAdjust="spacing" textLength="144.0011" x="835.1982" y="1407.5251">&#1076;&#1086;&#1082;&#1091;&#1084;&#1077;&#1085;&#1090;&#1086;&#1074; &#1087;&#1086; &#1079;&#1072;&#1097;&#1080;&#1090;&#1077;</text><rect fill="#F1F1F1" height="50.0002" rx="12.5" ry="12.5" style="stroke:#181818;stroke-width:0.5;" width="159.2011" x="840.7984" y="1440.9451"/><text fill="#000000" font-family="sans-serif" font-size="12" lengthAdjust="spacing" textLength="105.6008" x="850.7984" y="1462.5252">&#1055;&#1086;&#1076;&#1075;&#1086;&#1090;&#1086;&#1074;&#1080;&#1090;&#1100; &#1074;&#1089;&#1077;</text><text fill="#000000" font-family="sans-serif" font-size="12" lengthAdjust="spacing" textLength="139.2011" x="850.7984" y="1477.5253">&#1076;&#1086;&#1082;&#1091;&#1084;&#1077;&#1085;&#1090;&#1099; &#1087;&#1086; &#1079;&#1072;&#1097;&#1080;&#1090;&#1077;</text><line style="stroke:#000000;stroke-width:1.5;" x1="763.5995" x2="763.5995" y1="13.63" y2="1695.9355"/><line style="stroke:#000000;stroke-width:1.5;" x1="1106.3993" x2="1106.3993" y1="13.63" y2="1695.9355"/><line style="stroke:#181818;stroke-width:1.0;" x1="180.2003" x2="93.4004" y1="393.255" y2="393.255"/><line style="stroke:#181818;stroke-width:1.0;" x1="93.4004" x2="93.4004" y1="393.255" y2="425.255"/><polygon fill="#181818" points="89.4004,415.255,93.4004,425.255,97.4004,415.255,93.4004,419.255" style="stroke:#181818;stroke-width:1.0;"/><line style="stroke:#181818;stroke-width:1.0;" x1="204.2003" x2="291.0003" y1="393.255" y2="393.255"/><line style="stroke:#181818;stroke-width:1.0;" x1="291.0003" x2="291.0003" y1="393.255" y2="425.255"/><polygon fill="#181818" points="287.0003,415.255,291.0003,425.255,295.0003,415.255,291.0003,419.255" style="stroke:#181818;stroke-width:1.0;"/><line style="stroke:#181818;stroke-width:1.0;" x1="192.2003" x2="192.2003" y1="333.755" y2="381.255"/><polygon fill="#181818" points="188.2003,371.255,192.2003,381.255,196.2003,371.255,192.2003,375.255" style="stroke:#181818;stroke-width:1.0;"/><line style="stroke:#181818;stroke-width:1.0;" x1="581.6002" x2="581.6002" y1="160.1199" y2="216.7547"/><polygon fill="#181818" points="577.6002,206.7547,581.6002,216.7547,585.6002,206.7547,581.6002,210.7547" style="stroke:#181818;stroke-width:1.0;"/><text fill="#000000" font-family="sans-serif" font-size="11" lengthAdjust="spacing" textLength="61.5995" x="585.6002" y="182.3698">&#1055;&#1077;&#1088;&#1074;&#1080;&#1095;&#1085;&#1099;&#1081;</text><text fill="#000000" font-family="sans-serif" font-size="11" lengthAdjust="spacing" textLength="32.9997" x="585.6002" y="196.1197">&#1087;&#1072;&#1082;&#1077;&#1090;</text><line style="stroke:#181818;stroke-width:1.0;" x1="581.6002" x2="581.6002" y1="61.1298" y2="110.1197"/><polygon fill="#181818" points="577.6002,100.1197,581.6002,110.1197,585.6002,100.1197,581.6002,104.1197" style="stroke:#181818;stroke-width:1.0;"/><line style="stroke:#181818;stroke-width:1.0;" x1="581.6002" x2="581.6002" y1="1641.9355" y2="1673.9355"/><polygon fill="#181818" points="577.6002,1663.9355,581.6002,1673.9355,585.6002,1663.9355,581.6002,1667.9355" style="stroke:#181818;stroke-width:1.0;"/><line style="stroke:#181818;stroke-width:1.0;" x1="920.3989" x2="920.3989" y1="710.4951" y2="771.485"/><polygon fill="#181818" points="916.3989,761.485,920.3989,771.485,924.3989,761.485,920.3989,765.485" style="stroke:#181818;stroke-width:1.0;"/><line style="stroke:#181818;stroke-width:1.0;" x1="920.3989" x2="920.3989" y1="1215.455" y2="1274.9549"/><polygon fill="#181818" points="916.3989,1264.9549,920.3989,1274.9549,924.3989,1264.9549,920.3989,1268.9549" style="stroke:#181818;stroke-width:1.0;"/><line style="stroke:#181818;stroke-width:1.0;" x1="920.3989" x2="920.3989" y1="1420.9451" y2="1440.9451"/><polygon fill="#181818" points="916.3989,1430.9451,920.3989,1440.9451,924.3989,1430.9451,920.3989,1434.9451" style="stroke:#181818;stroke-width:1.0;"/><line style="stroke:#181818;stroke-width:1.0;" x1="920.3989" x2="920.3989" y1="1309.955" y2="1370.9449"/><polygon fill="#181818" points="916.3989,1360.9449,920.3989,1370.9449,924.3989,1360.9449,920.3989,1364.9449" style="stroke:#181818;stroke-width:1.0;"/><line style="stroke:#181818;stroke-width:1.0;" x1="581.6002" x2="581.6002" y1="266.7549" y2="283.7549"/><line style="stroke:#181818;stroke-width:1.0;" x1="581.6002" x2="192.2003" y1="283.7549" y2="283.7549"/><line style="stroke:#181818;stroke-width:1.0;" x1="192.2003" x2="192.2003" y1="283.7549" y2="298.7549"/><polygon fill="#181818" points="188.2003,288.7549,192.2003,298.7549,196.2003,288.7549,192.2003,292.7549" style="stroke:#181818;stroke-width:1.0;"/><line style="stroke:#181818;stroke-width:1.0;" x1="93.4004" x2="93.4004" y1="460.2551" y2="491.505"/><line style="stroke:#181818;stroke-width:1.0;" x1="93.4004" x2="482.8002" y1="491.505" y2="491.505"/><line style="stroke:#181818;stroke-width:1.0;" x1="482.8002" x2="482.8002" y1="491.505" y2="522.7549"/><polygon fill="#181818" points="478.8002,512.7549,482.8002,522.7549,486.8002,512.7549,482.8002,516.7549" style="stroke:#181818;stroke-width:1.0;"/><text fill="#000000" font-family="sans-serif" font-size="11" lengthAdjust="spacing" textLength="87.9993" x="97.4004" y="472.745">&#1055;&#1086;&#1076;&#1090;&#1074;&#1077;&#1088;&#1078;&#1076;&#1077;&#1085;&#1080;&#1077;</text><text fill="#000000" font-family="sans-serif" font-size="11" lengthAdjust="spacing" textLength="52.7996" x="97.4004" y="486.4949">&#1087;&#1088;&#1080;&#1085;&#1103;&#1090;&#1080;&#1103;</text><line style="stroke:#181818;stroke-width:1.0;" x1="291.0003" x2="291.0003" y1="460.2551" y2="477.7551"/><line style="stroke:#181818;stroke-width:1.0;" x1="291.0003" x2="1019.1989" y1="477.7551" y2="477.7551"/><line style="stroke:#181818;stroke-width:1.0;" x1="1019.1989" x2="1019.1989" y1="477.7551" y2="495.2551"/><polygon fill="#181818" points="1015.1989,485.2551,1019.1989,495.2551,1023.1989,485.2551,1019.1989,489.2551" style="stroke:#181818;stroke-width:1.0;"/><line style="stroke:#181818;stroke-width:1.0;" x1="482.8002" x2="482.8002" y1="557.755" y2="562.755"/><line style="stroke:#181818;stroke-width:1.0;" x1="482.8002" x2="581.6002" y1="562.755" y2="562.755"/><line style="stroke:#181818;stroke-width:1.0;" x1="581.6002" x2="581.6002" y1="562.755" y2="577.755"/><polygon fill="#181818" points="577.6002,567.755,581.6002,577.755,585.6002,567.755,581.6002,571.755" style="stroke:#181818;stroke-width:1.0;"/><line style="stroke:#181818;stroke-width:1.0;" x1="581.6002" x2="581.6002" y1="612.7551" y2="644.005"/><line style="stroke:#181818;stroke-width:1.0;" x1="581.6002" x2="920.3989" y1="644.005" y2="644.005"/><line style="stroke:#181818;stroke-width:1.0;" x1="920.3989" x2="920.3989" y1="644.005" y2="660.4949"/><polygon fill="#181818" points="916.3989,650.4949,920.3989,660.4949,924.3989,650.4949,920.3989,654.4949" style="stroke:#181818;stroke-width:1.0;"/><text fill="#000000" font-family="sans-serif" font-size="11" lengthAdjust="spacing" textLength="61.5995" x="585.6002" y="625.245">&#1054;&#1088;&#1080;&#1075;&#1080;&#1085;&#1072;&#1083;&#1099;</text><text fill="#000000" font-family="sans-serif" font-size="11" lengthAdjust="spacing" textLength="68.1994" x="585.6002" y="638.9949">&#1076;&#1086;&#1082;&#1091;&#1084;&#1077;&#1085;&#1090;&#1086;&#1074;</text><line style="stroke:#181818;stroke-width:1.0;" x1="920.3989" x2="920.3989" y1="806.4852" y2="848.9849"/><line style="stroke:#181818;stroke-width:1.0;" x1="920.3989" x2="581.6002" y1="848.9849" y2="848.9849"/><line style="stroke:#181818;stroke-width:1.0;" x1="581.6002" x2="581.6002" y1="848.9849" y2="892.9749"/><polygon fill="#181818" points="577.6002,882.9749,581.6002,892.9749,585.6002,882.9749,581.6002,886.9749" style="stroke:#181818;stroke-width:1.0;"/><text fill="#000000" font-family="sans-serif" font-size="11" lengthAdjust="spacing" textLength="57.1995" x="924.3989" y="828.735">&#1047;&#1072;&#1087;&#1088;&#1086;&#1089; &#1087;&#1086;</text><text fill="#000000" font-family="sans-serif" font-size="11" lengthAdjust="spacing" textLength="68.1994" x="924.3989" y="842.4849">&#1086;&#1087;&#1087;&#1086;&#1085;&#1077;&#1085;&#1090;&#1072;&#1084;</text><line style="stroke:#181818;stroke-width:1.0;" x1="581.6002" x2="581.6002" y1="942.9751" y2="985.4749"/><line style="stroke:#181818;stroke-width:1.0;" x1="581.6002" x2="920.3989" y1="985.4749" y2="985.4749"/><line style="stroke:#181818;stroke-width:1.0;" x1="920.3989" x2="920.3989" y1="985.4749" y2="1029.4648"/><polygon fill="#181818" points="916.3989,1019.4648,920.3989,1029.4648,924.3989,1019.4648,920.3989,1023.4648" style="stroke:#181818;stroke-width:1.0;"/><text fill="#000000" font-family="sans-serif" font-size="11" lengthAdjust="spacing" textLength="63.7995" x="585.6002" y="965.225">&#1057;&#1074;&#1077;&#1076;&#1077;&#1085;&#1080;&#1103; &#1080;</text><text fill="#000000" font-family="sans-serif" font-size="11" lengthAdjust="spacing" textLength="52.7996" x="585.6002" y="978.9749">&#1089;&#1086;&#1075;&#1083;&#1072;&#1089;&#1080;&#1103;</text><line style="stroke:#181818;stroke-width:1.0;" x1="581.6002" x2="581.6002" y1="1160.4549" y2="1165.4549"/><line style="stroke:#181818;stroke-width:1.0;" x1="581.6002" x2="920.3989" y1="1165.4549" y2="1165.4549"/><line style="stroke:#181818;stroke-width:1.0;" x1="920.3989" x2="920.3989" y1="1165.4549" y2="1180.4549"/><polygon fill="#181818" points="916.3989,1170.4549,920.3989,1180.4549,924.3989,1170.4549,920.3989,1174.4549" style="stroke:#181818;stroke-width:1.0;"/><line style="stroke:#181818;stroke-width:1.0;" x1="920.3989" x2="920.3989" y1="1064.4649" y2="1081.4649"/><line style="stroke:#181818;stroke-width:1.0;" x1="920.3989" x2="581.6002" y1="1081.4649" y2="1081.4649"/><line style="stroke:#181818;stroke-width:1.0;" x1="581.6002" x2="581.6002" y1="1081.4649" y2="1125.4548"/><polygon fill="#181818" points="577.6002,1115.4548,581.6002,1125.4548,585.6002,1115.4548,581.6002,1119.4548" style="stroke:#181818;stroke-width:1.0;"/><line style="stroke:#181818;stroke-width:1.0;" x1="920.3989" x2="920.3989" y1="1490.9453" y2="1495.9453"/><line style="stroke:#181818;stroke-width:1.0;" x1="920.3989" x2="192.2003" y1="1495.9453" y2="1495.9453"/><line style="stroke:#181818;stroke-width:1.0;" x1="192.2003" x2="192.2003" y1="1495.9453" y2="1510.9453"/><polygon fill="#181818" points="188.2003,1500.9453,192.2003,1510.9453,196.2003,1500.9453,192.2003,1504.9453" style="stroke:#181818;stroke-width:1.0;"/><line style="stroke:#181818;stroke-width:1.0;" x1="192.2003" x2="192.2003" y1="1545.9454" y2="1562.9454"/><line style="stroke:#181818;stroke-width:1.0;" x1="192.2003" x2="581.6002" y1="1562.9454" y2="1562.9454"/><line style="stroke:#181818;stroke-width:1.0;" x1="581.6002" x2="581.6002" y1="1562.9454" y2="1606.9353"/><polygon fill="#181818" points="577.6002,1596.9353,581.6002,1606.9353,585.6002,1596.9353,581.6002,1600.9353" style="stroke:#181818;stroke-width:1.0;"/><text fill="#000000" font-family="sans-serif" font-size="18" lengthAdjust="spacing" textLength="43.1997" x="182.2006" y="30.9999">&#1044;&#1040;&#1053;&#1050;</text><text fill="#000000" font-family="sans-serif" font-size="18" lengthAdjust="spacing" textLength="107.9993" x="524.1005" y="30.9999">&#1057;&#1086;&#1080;&#1089;&#1082;&#1072;&#1090;&#1077;&#1083;&#1100;</text><text fill="#000000" font-family="sans-serif" font-size="18" lengthAdjust="spacing" textLength="53.9996" x="907.9996" y="30.9999">&#1057;&#1086;&#1074;&#1077;&#1090;</text><!--SRC=[dLLBJXj14DtFAMO9Yro0aJW96wIOnC8o23ixBx2H4Y4ZVa91GeeJRZ0o7cWyPdo5wXlblPwFc-aUusHbJtTLlLUlFZsGExcMN_8m20RoA9aeFPIvn7eaYQJwOX3q-lid_U3BoT6tur1-ms8cJvBXFfCfBKDPIg9FyQ7q3td3CQvv6ECsWHqiPZYTwpDP8EXRxXhiEC6K7kcBMZWzbjUzxYgQDrOKVDebjpL-4V0ci5x29DuOQngMyaH1g_ivD2f0g4ep905_acUS8cYDeHv7bdoGDvKaD4IKle6HNvyAEMWVX5lROVzhgnjk-Kgq3HQtu3xZ4V1nMsQ9cAKsa1eEESzds098b2JCbqm0UuLxfQ-YfaR82vRgCsYbl4YMCArEhrNG9UQ89F_0ygLG82wb0WmEm8gTeh_Z-x9aO1ozkC2a6v9ES-J3TgTZAjG-QARlgRzJAbFp2ZmNRs84Ug98y4tr6A9vkt0zRNXbzKWDxRpgjR9nx1gnVUQL2F340E7BL5HV5ZrPM3F9PbiVKgr5Lusn5fGwtICd-Y009ojZmlZ5FnZbsSMo-8V-ud3mtl0ebLzoktZZaiCZvI_RcvpLNXT0N4fikc7UuPleYrQDzJcPIE9KjYwmRUmNrLsRNWYFAfwnSNJvS6GCz0i6PafZX-1zHIH-jzE6rCFYoLdRB3llIZErivF-w17WIhRU4l_WkN6Zvi1JRXit3aVHZV8Vczv-9hm5BKIRO0ihxkny3vjL20OfN1Qc23-hXMvVsG2z_j7nNm00]--></g></svg>