<svg xmlns="http://www.w3.org/2000/svg" xmlns:xlink="http://www.w3.org/1999/xlink" contentStyleType="text/css" height="897px" preserveAspectRatio="none" style="width:716px;height:897px;background:#FFFFFF;" version="1.1" viewBox="0 0 716 897" width="716px" zoomAndPan="magnify"><defs/><g><rect fill="none" height="22.4999" style="stroke:none;stroke-width:1.0;" width="683.0047" x="15" y="13.63"/><rect fill="#F1F1F1" height="35.0001" rx="12.5" ry="12.5" style="stroke:#181818;stroke-width:0.5;" width="202.4015" x="21" y="242.7649"/><text fill="#000000" font-family="sans-serif" font-size="12" lengthAdjust="spacing" textLength="182.4015" x="31" y="264.345">&#1055;&#1088;&#1086;&#1074;&#1077;&#1088;&#1082;&#1072; &#1087;&#1077;&#1088;&#1074;&#1080;&#1095;&#1085;&#1086;&#1075;&#1086; &#1087;&#1072;&#1082;&#1077;&#1090;&#1072;</text><line style="stroke:#000000;stroke-width:1.5;" x1="15" x2="15" y1="13.63" y2="885.7254"/><ellipse cx="364.6024" cy="51.1298" fill="#222222" rx="10" ry="10" style="stroke:#222222;stroke-width:1.0;"/><rect fill="#F1F1F1" height="35.0001" rx="12.5" ry="12.5" style="stroke:#181818;stroke-width:0.5;" width="216.8016" x="256.2016" y="81.1298"/><text fill="#000000" font-family="sans-serif" font-size="12" lengthAdjust="spacing" textLength="196.8016" x="266.2016" y="102.7099">&#1055;&#1086;&#1076;&#1075;&#1086;&#1090;&#1086;&#1074;&#1082;&#1072; &#1087;&#1077;&#1088;&#1074;&#1080;&#1095;&#1085;&#1086;&#1075;&#1086; &#1087;&#1072;&#1082;&#1077;&#1090;&#1072;</text><rect fill="#F1F1F1" height="50.0002" rx="12.5" ry="12.5" style="stroke:#181818;stroke-width:0.5;" width="154.4011" x="287.4019" y="172.7647"/><text fill="#000000" font-family="sans-serif" font-size="12" lengthAdjust="spacing" textLength="134.4011" x="297.4019" y="194.3448">&#1054;&#1090;&#1087;&#1088;&#1072;&#1074;&#1082;&#1072; &#1087;&#1077;&#1088;&#1074;&#1080;&#1095;&#1085;&#1086;&#1075;&#1086;</text><text fill="#000000" font-family="sans-serif" font-size="12" lengthAdjust="spacing" textLength="88.8007" x="297.4019" y="209.3449">&#1087;&#1072;&#1082;&#1077;&#1090;&#1072; &#1074; &#1044;&#1040;&#1053;&#1050;</text><rect fill="#F1F1F1" height="35.0001" rx="12.5" ry="12.5" style="stroke:#181818;stroke-width:0.5;" width="185.6013" x="271.8018" y="325.5049"/><text fill="#000000" font-family="sans-serif" font-size="12" lengthAdjust="spacing" textLength="165.6013" x="281.8018" y="347.085">&#1055;&#1086;&#1083;&#1091;&#1095;&#1077;&#1085;&#1080;&#1077; &#1087;&#1086;&#1076;&#1090;&#1074;&#1077;&#1088;&#1078;&#1076;&#1077;&#1085;&#1080;&#1103;</text><rect fill="#F1F1F1" height="35.0001" rx="12.5" ry="12.5" style="stroke:#181818;stroke-width:0.5;" width="262.4019" x="233.4015" y="560.985"/><text fill="#000000" font-family="sans-serif" font-size="12" lengthAdjust="spacing" textLength="242.4019" x="243.4015" y="582.5651">&#1055;&#1086;&#1083;&#1091;&#1095;&#1077;&#1085;&#1080;&#1077; &#1084;&#1072;&#1090;&#1077;&#1088;&#1080;&#1072;&#1083;&#1086;&#1074; &#1087;&#1086; &#1086;&#1087;&#1087;&#1086;&#1085;&#1077;&#1085;&#1090;&#1072;&#1084;</text><rect fill="#F1F1F1" height="35.0001" rx="12.5" ry="12.5" style="stroke:#181818;stroke-width:0.5;" width="159.2011" x="285.0019" y="698.7251"/><text fill="#000000" font-family="sans-serif" font-size="12" lengthAdjust="spacing" textLength="139.2011" x="295.0019" y="720.3052">&#1056;&#1072;&#1089;&#1089;&#1099;&#1083;&#1082;&#1072; &#1084;&#1072;&#1090;&#1077;&#1088;&#1080;&#1072;&#1083;&#1086;&#1074;</text><line style="stroke:#000000;stroke-width:1.5;" x1="227.4015" x2="227.4015" y1="13.63" y2="885.7254"/><rect fill="#F1F1F1" height="50.0002" rx="12.5" ry="12.5" style="stroke:#181818;stroke-width:0.5;" width="171.2012" x="513.0034" y="408.2449"/><text fill="#000000" font-family="sans-serif" font-size="12" lengthAdjust="spacing" textLength="64.8005" x="523.0034" y="429.8249">&#1055;&#1086;&#1083;&#1091;&#1095;&#1077;&#1085;&#1080;&#1077;</text><text fill="#000000" font-family="sans-serif" font-size="12" lengthAdjust="spacing" textLength="151.2012" x="523.0034" y="444.825">&#1086;&#1088;&#1080;&#1075;&#1080;&#1085;&#1072;&#1083;&#1086;&#1074; &#1076;&#1086;&#1082;&#1091;&#1084;&#1077;&#1085;&#1090;&#1086;&#1074;</text><rect fill="#F1F1F1" height="35.0001" rx="12.5" ry="12.5" style="stroke:#181818;stroke-width:0.5;" width="185.6013" x="505.8034" y="478.2451"/><text fill="#000000" font-family="sans-serif" font-size="12" lengthAdjust="spacing" textLength="165.6013" x="515.8034" y="499.8252">&#1055;&#1088;&#1080;&#1085;&#1103;&#1090;&#1080;&#1077; &#1082; &#1088;&#1072;&#1089;&#1089;&#1084;&#1086;&#1090;&#1088;&#1077;&#1085;&#1080;&#1102;</text><rect fill="#F1F1F1" height="35.0001" rx="12.5" ry="12.5" style="stroke:#181818;stroke-width:0.5;" width="140.0009" x="528.6036" y="643.725"/><text fill="#000000" font-family="sans-serif" font-size="12" lengthAdjust="spacing" textLength="120.0009" x="538.6036" y="665.3051">&#1055;&#1088;&#1080;&#1085;&#1103;&#1090;&#1080;&#1077; &#1082; &#1079;&#1072;&#1097;&#1080;&#1090;&#1077;</text><rect fill="#F1F1F1" height="35.0001" rx="12.5" ry="12.5" style="stroke:#181818;stroke-width:0.5;" width="142.401" x="527.4035" y="753.7252"/><text fill="#000000" font-family="sans-serif" font-size="12" lengthAdjust="spacing" textLength="122.401" x="537.4035" y="775.3053">&#1055;&#1086;&#1083;&#1091;&#1095;&#1077;&#1085;&#1080;&#1077; &#1086;&#1090;&#1079;&#1099;&#1074;&#1086;&#1074;</text><rect fill="#F1F1F1" height="35.0001" rx="12.5" ry="12.5" style="stroke:#181818;stroke-width:0.5;" width="65.6004" x="565.8038" y="808.7253"/><text fill="#000000" font-family="sans-serif" font-size="12" lengthAdjust="spacing" textLength="45.6004" x="575.8038" y="830.3054">&#1047;&#1072;&#1097;&#1080;&#1090;&#1072;</text><ellipse cx="598.604" cy="874.7254" fill="none" rx="11" ry="11" style="stroke:#222222;stroke-width:1.0;"/><ellipse cx="598.604" cy="874.7254" fill="#222222" rx="6" ry="6" style="stroke:#222222;stroke-width:1.0;"/><line style="stroke:#000000;stroke-width:1.5;" x1="499.8034" x2="499.8034" y1="13.63" y2="885.7254"/><line style="stroke:#000000;stroke-width:1.5;" x1="695.4047" x2="695.4047" y1="13.63" y2="885.7254"/><line style="stroke:#181818;stroke-width:1.0;" x1="364.6024" x2="364.6024" y1="61.1298" y2="81.1298"/><polygon fill="#181818" points="360.6024,71.1298,364.6024,81.1298,368.6024,71.1298,364.6024,75.1298" style="stroke:#181818;stroke-width:1.0;"/><line style="stroke:#181818;stroke-width:1.0;" x1="364.6024" x2="364.6024" y1="116.1299" y2="172.7647"/><polygon fill="#181818" points="360.6024,162.7647,364.6024,172.7647,368.6024,162.7647,364.6024,166.7647" style="stroke:#181818;stroke-width:1.0;"/><text fill="#000000" font-family="sans-serif" font-size="11" lengthAdjust="spacing" textLength="61.5995" x="368.6024" y="138.3798">&#1055;&#1077;&#1088;&#1074;&#1080;&#1095;&#1085;&#1099;&#1081;</text><text fill="#000000" font-family="sans-serif" font-size="11" lengthAdjust="spacing" textLength="32.9997" x="368.6024" y="152.1297">&#1087;&#1072;&#1082;&#1077;&#1090;</text><line style="stroke:#181818;stroke-width:1.0;" x1="598.604" x2="598.604" y1="458.2451" y2="478.2451"/><polygon fill="#181818" points="594.604,468.2451,598.604,478.2451,602.604,468.2451,598.604,472.2451" style="stroke:#181818;stroke-width:1.0;"/><line style="stroke:#181818;stroke-width:1.0;" x1="598.604" x2="598.604" y1="788.7253" y2="808.7253"/><polygon fill="#181818" points="594.604,798.7253,598.604,808.7253,602.604,798.7253,598.604,802.7253" style="stroke:#181818;stroke-width:1.0;"/><line style="stroke:#181818;stroke-width:1.0;" x1="598.604" x2="598.604" y1="843.7254" y2="863.7254"/><polygon fill="#181818" points="594.604,853.7254,598.604,863.7254,602.604,853.7254,598.604,857.7254" style="stroke:#181818;stroke-width:1.0;"/><line style="stroke:#181818;stroke-width:1.0;" x1="364.6024" x2="364.6024" y1="222.7649" y2="227.7649"/><line style="stroke:#181818;stroke-width:1.0;" x1="364.6024" x2="122.2007" y1="227.7649" y2="227.7649"/><line style="stroke:#181818;stroke-width:1.0;" x1="122.2007" x2="122.2007" y1="227.7649" y2="242.7649"/><polygon fill="#181818" points="118.2007,232.7649,122.2007,242.7649,126.2007,232.7649,122.2007,236.7649" style="stroke:#181818;stroke-width:1.0;"/><line style="stroke:#181818;stroke-width:1.0;" x1="122.2007" x2="122.2007" y1="277.765" y2="309.0149"/><line style="stroke:#181818;stroke-width:1.0;" x1="122.2007" x2="364.6024" y1="309.0149" y2="309.0149"/><line style="stroke:#181818;stroke-width:1.0;" x1="364.6024" x2="364.6024" y1="309.0149" y2="325.5049"/><polygon fill="#181818" points="360.6024,315.5049,364.6024,325.5049,368.6024,315.5049,364.6024,319.5049" style="stroke:#181818;stroke-width:1.0;"/><text fill="#000000" font-family="sans-serif" font-size="11" lengthAdjust="spacing" textLength="87.9993" x="126.2007" y="290.255">&#1055;&#1086;&#1076;&#1090;&#1074;&#1077;&#1088;&#1078;&#1076;&#1077;&#1085;&#1080;&#1077;</text><text fill="#000000" font-family="sans-serif" font-size="11" lengthAdjust="spacing" textLength="52.7996" x="126.2007" y="304.0049">&#1087;&#1088;&#1080;&#1085;&#1103;&#1090;&#1080;&#1103;</text><line style="stroke:#181818;stroke-width:1.0;" x1="364.6024" x2="364.6024" y1="360.505" y2="391.7549"/><line style="stroke:#181818;stroke-width:1.0;" x1="364.6024" x2="598.604" y1="391.7549" y2="391.7549"/><line style="stroke:#181818;stroke-width:1.0;" x1="598.604" x2="598.604" y1="391.7549" y2="408.2449"/><polygon fill="#181818" points="594.604,398.2449,598.604,408.2449,602.604,398.2449,598.604,402.2449" style="stroke:#181818;stroke-width:1.0;"/><text fill="#000000" font-family="sans-serif" font-size="11" lengthAdjust="spacing" textLength="61.5995" x="368.6024" y="372.995">&#1054;&#1088;&#1080;&#1075;&#1080;&#1085;&#1072;&#1083;&#1099;</text><text fill="#000000" font-family="sans-serif" font-size="11" lengthAdjust="spacing" textLength="68.1994" x="368.6024" y="386.7449">&#1076;&#1086;&#1082;&#1091;&#1084;&#1077;&#1085;&#1090;&#1086;&#1074;</text><line style="stroke:#181818;stroke-width:1.0;" x1="598.604" x2="598.604" y1="513.2452" y2="544.4951"/><line style="stroke:#181818;stroke-width:1.0;" x1="598.604" x2="364.6024" y1="544.4951" y2="544.4951"/><line style="stroke:#181818;stroke-width:1.0;" x1="364.6024" x2="364.6024" y1="544.4951" y2="560.985"/><polygon fill="#181818" points="360.6024,550.985,364.6024,560.985,368.6024,550.985,364.6024,554.985" style="stroke:#181818;stroke-width:1.0;"/><text fill="#000000" font-family="sans-serif" font-size="11" lengthAdjust="spacing" textLength="57.1995" x="602.604" y="525.7351">&#1047;&#1072;&#1087;&#1088;&#1086;&#1089; &#1087;&#1086;</text><text fill="#000000" font-family="sans-serif" font-size="11" lengthAdjust="spacing" textLength="68.1994" x="602.604" y="539.485">&#1086;&#1087;&#1087;&#1086;&#1085;&#1077;&#1085;&#1090;&#1072;&#1084;</text><line style="stroke:#181818;stroke-width:1.0;" x1="364.6024" x2="364.6024" y1="595.9851" y2="627.235"/><line style="stroke:#181818;stroke-width:1.0;" x1="364.6024" x2="598.604" y1="627.235" y2="627.235"/><line style="stroke:#181818;stroke-width:1.0;" x1="598.604" x2="598.604" y1="627.235" y2="643.725"/><polygon fill="#181818" points="594.604,633.725,598.604,643.725,602.604,633.725,598.604,637.725" style="stroke:#181818;stroke-width:1.0;"/><text fill="#000000" font-family="sans-serif" font-size="11" lengthAdjust="spacing" textLength="63.7995" x="368.6024" y="608.4751">&#1057;&#1074;&#1077;&#1076;&#1077;&#1085;&#1080;&#1103; &#1080;</text><text fill="#000000" font-family="sans-serif" font-size="11" lengthAdjust="spacing" textLength="52.7996" x="368.6024" y="622.225">&#1089;&#1086;&#1075;&#1083;&#1072;&#1089;&#1080;&#1103;</text><line style="stroke:#181818;stroke-width:1.0;" x1="598.604" x2="598.604" y1="678.7251" y2="683.7251"/><line style="stroke:#181818;stroke-width:1.0;" x1="598.604" x2="364.6024" y1="683.7251" y2="683.7251"/><line style="stroke:#181818;stroke-width:1.0;" x1="364.6024" x2="364.6024" y1="683.7251" y2="698.7251"/><polygon fill="#181818" points="360.6024,688.7251,364.6024,698.7251,368.6024,688.7251,364.6024,692.7251" style="stroke:#181818;stroke-width:1.0;"/><line style="stroke:#181818;stroke-width:1.0;" x1="364.6024" x2="364.6024" y1="733.7252" y2="738.7252"/><line style="stroke:#181818;stroke-width:1.0;" x1="364.6024" x2="598.604" y1="738.7252" y2="738.7252"/><line style="stroke:#181818;stroke-width:1.0;" x1="598.604" x2="598.604" y1="738.7252" y2="753.7252"/><polygon fill="#181818" points="594.604,743.7252,598.604,753.7252,602.604,743.7252,598.604,747.7252" style="stroke:#181818;stroke-width:1.0;"/><text fill="#000000" font-family="sans-serif" font-size="18" lengthAdjust="spacing" textLength="43.1997" x="99.6009" y="30.9999">&#1044;&#1040;&#1053;&#1050;</text><text fill="#000000" font-family="sans-serif" font-size="18" lengthAdjust="spacing" textLength="107.9993" x="309.6028" y="30.9999">&#1057;&#1086;&#1080;&#1089;&#1082;&#1072;&#1090;&#1077;&#1083;&#1100;</text><text fill="#000000" font-family="sans-serif" font-size="18" lengthAdjust="spacing" textLength="53.9996" x="570.6042" y="30.9999">&#1057;&#1086;&#1074;&#1077;&#1090;</text><!--SRC=[bLFBJSD05BoxYcs01h149RdGG434HnzmSa0eY710YeH4GZgmd9WijcEtCAyZvddZ3y84vMJjldapy-QjGxpY1Uzu2xqG6vIm4Y53B5EaoEKfz2R1zLtWNMBDuWvRb2oLI1HaK26LUnwiFE30QvRrCcOr9IxslOihmzOUIkRu6eqxa4_k5R4L8V49tdwFGXBJMFTflPs2Hjcf1fNXB9ESZqVN-CbPKw8jKXNcZQNr1UjM5lvVMRcKSfbHwTYjIeF4IgEwgvfxg_oqbCkSUZksP393eL2NTwEfBDD19VQLFxaKReR9N4pjJEepCxe1YJXKeLlcoHbzTaQNfDGWIedgeLIFNntlSAIEKPoNJU4GjPNMSANx6QHM6nkDe0lHm8x6rDArvcg_lw0khD_3Oa_q8z7KFs7wmqN2LvkxrpHW-V_TcFgtsPCbQV9Vjl9yW9FWvlOR]--></g></svg>