<svg xmlns="http://www.w3.org/2000/svg" xmlns:xlink="http://www.w3.org/1999/xlink" contentStyleType="text/css" data-diagram-type="ACTIVITY" height="493px" preserveAspectRatio="none" style="width:1144px;height:493px;background:#FFFFFF;" version="1.1" viewBox="0 0 1144 493" width="1144px" zoomAndPan="magnify"><defs/><g><rect fill="transparent" height="22.4999" style="stroke:transparent;stroke-width:1;" width="1111.0023" x="15" y="13.63"/><ellipse cx="220.9501" cy="51.1298" fill="#F1F1F1" rx="10" ry="10" style="stroke:#181818;stroke-width:0.5;"/><path d="M221.372,56.1298 L219.0126,56.1298 L219.0126,47.3173 L221.372,47.3173 Q221.7001,47.3173 222.0126,47.3642 Q222.3407,47.4111 222.6376,47.5517 Q222.9345,47.6767 223.2001,47.8798 Q223.4657,48.083 223.622,48.3798 Q223.7939,48.6611 223.8564,48.9892 Q223.9189,49.3017 223.9189,49.6455 Q223.9189,49.9267 223.8564,50.2236 Q223.8095,50.5205 223.6532,50.7861 Q223.497,51.0361 223.2626,51.2236 Q223.0282,51.4111 222.747,51.5361 Q223.0907,51.6455 223.3876,51.8486 Q223.6845,52.0361 223.8876,52.3173 Q224.1064,52.5986 224.2001,52.958 Q224.2939,53.3017 224.2939,53.6455 Q224.2939,54.0048 224.2001,54.3642 Q224.122,54.7236 223.9189,55.0361 Q223.7157,55.333 223.4189,55.5517 Q223.122,55.7705 222.7782,55.9111 Q222.4501,56.0361 222.0907,56.083 Q221.7314,56.1298 221.372,56.1298 Z M219.997,51.1298 L221.372,51.1298 Q221.5751,51.1298 221.7626,51.0986 Q221.9657,51.0517 222.1532,50.9736 Q222.3407,50.8798 222.497,50.7548 Q222.6532,50.6142 222.747,50.4423 Q222.8564,50.2548 222.8876,50.0517 Q222.9345,49.8486 222.9345,49.6455 Q222.9345,49.4423 222.8876,49.2548 Q222.8564,49.0517 222.747,48.8798 Q222.6532,48.6923 222.497,48.5517 Q222.3407,48.4111 222.1532,48.333 Q221.9657,48.2548 221.7626,48.2236 Q221.5751,48.1923 221.372,48.1923 L219.997,48.1923 L219.997,51.1298 Z M219.997,55.2392 L221.372,55.2392 Q221.6064,55.2392 221.8407,55.208 Q222.0751,55.1767 222.2939,55.0986 Q222.5282,55.0205 222.7157,54.8798 Q222.9189,54.7236 223.0439,54.5361 Q223.1845,54.3486 223.2314,54.1142 Q223.2939,53.8642 223.2939,53.6298 Q223.2939,53.3955 223.2314,53.1611 Q223.1845,52.9111 223.0439,52.7236 Q222.9189,52.5205 222.7157,52.3798 Q222.5282,52.2236 222.2939,52.1455 Q222.0751,52.0673 221.8407,52.0361 Q221.6064,52.0048 221.372,52.0048 L219.997,52.0048 L219.997,55.2392 Z " fill="#000000"/><polygon fill="#F1F1F1" points="184.6504,81.1298,257.2498,81.1298,269.2498,93.1298,257.2498,105.1298,184.6504,105.1298,172.6504,93.1298,184.6504,81.1298" style="stroke:#181818;stroke-width:0.5;"/><text fill="#000000" font-family="sans-serif" font-size="11" lengthAdjust="spacing" textLength="72.5994" x="184.6504" y="96.8698">&#1055;&#1086;&#1083;&#1091;&#1095;&#1072;&#1090;&#1077;&#1083;&#1100;?</text><text fill="#000000" font-family="sans-serif" font-size="11" lengthAdjust="spacing" textLength="65.9995" x="106.651" y="89.9948">&#1057;&#1086;&#1080;&#1089;&#1082;&#1072;&#1090;&#1077;&#1083;&#1100;</text><text fill="#000000" font-family="sans-serif" font-size="11" lengthAdjust="spacing" textLength="32.9997" x="269.2498" y="89.9948">&#1057;&#1086;&#1074;&#1077;&#1090;</text><rect fill="#F1F1F1" height="50.0002" rx="12.5" ry="12.5" style="stroke:#181818;stroke-width:0.5;" width="70.4004" x="21" y="125.1298"/><text fill="#000000" font-family="sans-serif" font-size="12" lengthAdjust="spacing" textLength="45.6004" x="31" y="146.7099">&#1042;&#1099;&#1076;&#1072;&#1090;&#1100;</text><text fill="#000000" font-family="sans-serif" font-size="12" lengthAdjust="spacing" textLength="50.4004" x="31" y="161.71">&#1089;&#1087;&#1088;&#1072;&#1074;&#1082;&#1091;</text><rect fill="#F1F1F1" height="50.0002" rx="12.5" ry="12.5" style="stroke:#181818;stroke-width:0.5;" width="101.6006" x="312.2495" y="125.1298"/><text fill="#000000" font-family="sans-serif" font-size="12" lengthAdjust="spacing" textLength="64.8005" x="322.2495" y="146.7099">&#1056;&#1072;&#1079;&#1086;&#1089;&#1083;&#1072;&#1090;&#1100;</text><text fill="#000000" font-family="sans-serif" font-size="12" lengthAdjust="spacing" textLength="81.6006" x="322.2495" y="161.71">&#1076;&#1080;&#1089;&#1089;&#1077;&#1088;&#1090;&#1072;&#1094;&#1080;&#1102;</text><line style="stroke:#000000;stroke-width:1.5;" x1="15" x2="15" y1="13.63" y2="481.464"/><rect fill="#F1F1F1" height="35.0001" rx="12.5" ry="12.5" style="stroke:#181818;stroke-width:0.5;" width="132.8009" x="480.7005" y="237.6298"/><text fill="#000000" font-family="sans-serif" font-size="12" lengthAdjust="spacing" textLength="112.8009" x="490.7005" y="259.2099">&#1055;&#1086;&#1083;&#1091;&#1095;&#1080;&#1090;&#1100; &#1089;&#1087;&#1088;&#1072;&#1074;&#1082;&#1091;</text><path d="M422.8502,288.255 L422.8502,347.0051 A0,0 0 0 0 422.8502,347.0051 L612.8503,347.0051 A0,0 0 0 0 612.8503,347.0051 L612.8503,321.63 L632.8503,317.63 L612.8503,313.63 L612.8503,298.255 L602.8503,288.255 L422.8502,288.255 A0,0 0 0 0 422.8502,288.255 " fill="#FEFFDD" style="stroke:#181818;stroke-width:0.5;"/><path d="M602.8503,288.255 L602.8503,298.255 L612.8503,298.255 L602.8503,288.255 " fill="#FEFFDD" style="stroke:#181818;stroke-width:0.5;"/><text fill="#000000" font-family="sans-serif" font-size="13" lengthAdjust="spacing" textLength="123.5001" x="428.8502" y="305.8">- &#1057;&#1087;&#1088;&#1072;&#1074;&#1082;&#1072; &#1086; &#1089;&#1076;&#1072;&#1095;&#1077;</text><text fill="#000000" font-family="sans-serif" font-size="13" lengthAdjust="spacing" textLength="128.7001" x="439.2502" y="322.05">&#1076;&#1086;&#1082;&#1091;&#1084;&#1077;&#1085;&#1090;&#1086;&#1074; &#1074; &#1044;&#1040;&#1053;&#1050;</text><text fill="#000000" font-family="sans-serif" font-size="13" lengthAdjust="spacing" textLength="169.0001" x="428.8502" y="338.3001">- &#1054;&#1088;&#1080;&#1075;&#1080;&#1085;&#1072;&#1083;&#1099; &#1076;&#1086;&#1082;&#1091;&#1084;&#1077;&#1085;&#1090;&#1086;&#1074;</text><rect fill="#F1F1F1" height="50.0002" rx="12.5" ry="12.5" style="stroke:#181818;stroke-width:0.5;" width="158.0011" x="632.8503" y="292.6299"/><text fill="#000000" font-family="sans-serif" font-size="12" lengthAdjust="spacing" textLength="138.0011" x="642.8503" y="314.21">&#1054;&#1090;&#1087;&#1088;&#1072;&#1074;&#1080;&#1090;&#1100; &#1076;&#1086;&#1082;&#1091;&#1084;&#1077;&#1085;&#1090;&#1099;</text><text fill="#000000" font-family="sans-serif" font-size="12" lengthAdjust="spacing" textLength="67.2005" x="642.8503" y="329.2101">&#1057;&#1077;&#1082;&#1088;&#1077;&#1090;&#1072;&#1088;&#1102;</text><line style="stroke:#000000;stroke-width:1.5;" x1="417.8502" x2="417.8502" y1="13.63" y2="481.464"/><path d="M830.7013,210.13 L830.7013,252.6301 A0,0 0 0 0 830.7013,252.6301 L957.0014,252.6301 A0,0 0 0 0 957.0014,252.6301 L957.0014,235.3801 L977.0014,231.3801 L957.0014,227.3801 L957.0014,220.13 L947.0014,210.13 L830.7013,210.13 A0,0 0 0 0 830.7013,210.13 " fill="#FEFFDD" style="stroke:#181818;stroke-width:0.5;"/><path d="M947.0014,210.13 L947.0014,220.13 L957.0014,220.13 L947.0014,210.13 " fill="#FEFFDD" style="stroke:#181818;stroke-width:0.5;"/><text fill="#000000" font-family="sans-serif" font-size="13" lengthAdjust="spacing" textLength="105.3" x="836.7013" y="227.675">&#1047;&#1072;&#1092;&#1080;&#1082;&#1089;&#1080;&#1088;&#1086;&#1074;&#1072;&#1090;&#1100;</text><text fill="#000000" font-family="sans-serif" font-size="13" lengthAdjust="spacing" textLength="101.4001" x="836.7013" y="243.9251">&#1076;&#1072;&#1090;&#1091; &#1088;&#1072;&#1089;&#1089;&#1099;&#1083;&#1082;&#1080;</text><rect fill="#F1F1F1" height="35.0001" rx="12.5" ry="12.5" style="stroke:#181818;stroke-width:0.5;" width="142.401" x="977.0014" y="213.88"/><text fill="#000000" font-family="sans-serif" font-size="12" lengthAdjust="spacing" textLength="122.401" x="987.0014" y="235.4601">&#1055;&#1086;&#1083;&#1091;&#1095;&#1080;&#1090;&#1100; &#1088;&#1072;&#1089;&#1089;&#1099;&#1083;&#1082;&#1091;</text><rect fill="#F1F1F1" height="50.0002" rx="12.5" ry="12.5" style="stroke:#181818;stroke-width:0.5;" width="165.2011" x="800.8514" y="391.4637"/><text fill="#000000" font-family="sans-serif" font-size="12" lengthAdjust="spacing" textLength="57.6005" x="810.8514" y="413.0438">&#1055;&#1086;&#1083;&#1091;&#1095;&#1080;&#1090;&#1100;</text><text fill="#000000" font-family="sans-serif" font-size="12" lengthAdjust="spacing" textLength="145.2011" x="810.8514" y="428.0439">&#1086;&#1088;&#1080;&#1075;&#1080;&#1085;&#1072;&#1083;&#1099; &#1076;&#1086;&#1082;&#1091;&#1084;&#1077;&#1085;&#1090;&#1086;&#1074;</text><ellipse cx="883.4519" cy="471.464" fill="#F1F1F1" rx="10" ry="10" style="stroke:#181818;stroke-width:0.5;"/><path d="M883.5144,476.5577 Q883.1707,476.5577 882.8269,476.4952 Q882.4832,476.4327 882.1707,476.2921 Q881.8582,476.1358 881.6082,475.9015 Q881.3582,475.6515 881.1863,475.3546 Q881.0301,475.0421 880.9676,474.6983 Q880.9051,474.3546 880.9051,474.0108 L880.9051,470.1046 Q880.9051,469.7608 880.9676,469.4171 Q881.0301,469.0733 881.1863,468.7765 Q881.3582,468.464 881.6082,468.214 Q881.8582,467.964 882.1707,467.8233 Q882.4832,467.6671 882.8269,467.6046 Q883.1707,467.5421 883.5144,467.5421 Q883.8426,467.5421 884.1551,467.589 Q884.4832,467.6358 884.7801,467.7608 Q885.0769,467.8702 885.3269,468.0733 Q885.5926,468.2608 885.7644,468.5421 Q885.9363,468.8077 886.0301,469.1202 Q886.1238,469.4327 886.1238,469.7608 L886.1238,469.8077 L885.1238,469.8077 L885.1238,469.7608 Q885.1238,469.4796 884.9988,469.214 Q884.8738,468.9327 884.6394,468.7608 Q884.4051,468.5733 884.1082,468.5108 Q883.8113,468.4327 883.5144,468.4327 Q883.2957,468.4327 883.0769,468.4796 Q882.8582,468.5108 882.6551,468.6202 Q882.4676,468.7296 882.3113,468.8858 Q882.1551,469.0421 882.0613,469.2452 Q881.9832,469.4483 881.9363,469.6671 Q881.9051,469.8702 881.9051,470.1046 L881.9051,474.0108 Q881.9051,474.2296 881.9363,474.4483 Q881.9832,474.6671 882.0613,474.8702 Q882.1551,475.0577 882.3113,475.2296 Q882.4676,475.3858 882.6551,475.4952 Q882.8582,475.6046 883.0769,475.6358 Q883.2957,475.6671 883.5144,475.6671 Q883.8113,475.6671 884.1082,475.6046 Q884.4051,475.5421 884.6394,475.3702 Q884.8738,475.1827 884.9988,474.9015 Q885.1238,474.6202 885.1238,474.339 L885.1238,474.3077 L886.1238,474.3077 L886.1238,474.3546 Q886.1238,474.6827 886.0301,474.9952 Q885.9363,475.3077 885.7644,475.5733 Q885.5926,475.839 885.3269,476.0421 Q885.0769,476.2296 884.7801,476.3546 Q884.4832,476.4796 884.1551,476.5108 Q883.8426,476.5577 883.5144,476.5577 Z " fill="#000000"/><line style="stroke:#000000;stroke-width:1.5;" x1="794.8514" x2="794.8514" y1="13.63" y2="481.464"/><line style="stroke:#000000;stroke-width:1.5;" x1="1123.4023" x2="1123.4023" y1="13.63" y2="481.464"/><line style="stroke:#181818;stroke-width:1;" x1="172.6504" x2="56.2002" y1="93.1298" y2="93.1298"/><line style="stroke:#181818;stroke-width:1;" x1="56.2002" x2="56.2002" y1="93.1298" y2="125.1298"/><polygon fill="#181818" points="52.2002,115.1298,56.2002,125.1298,60.2002,115.1298,56.2002,119.1298" style="stroke:#181818;stroke-width:1;"/><line style="stroke:#181818;stroke-width:1;" x1="269.2498" x2="363.0499" y1="93.1298" y2="93.1298"/><line style="stroke:#181818;stroke-width:1;" x1="363.0499" x2="363.0499" y1="93.1298" y2="125.1298"/><polygon fill="#181818" points="359.0499,115.1298,363.0499,125.1298,367.0499,115.1298,363.0499,119.1298" style="stroke:#181818;stroke-width:1;"/><line style="stroke:#181818;stroke-width:1;" x1="220.9501" x2="220.9501" y1="61.1298" y2="81.1298"/><polygon fill="#181818" points="216.9501,71.1298,220.9501,81.1298,224.9501,71.1298,220.9501,75.1298" style="stroke:#181818;stroke-width:1;"/><line style="stroke:#181818;stroke-width:1;" x1="883.4519" x2="883.4519" y1="441.464" y2="461.464"/><polygon fill="#181818" points="879.4519,451.464,883.4519,461.464,887.4519,451.464,883.4519,455.464" style="stroke:#181818;stroke-width:1;"/><line style="stroke:#181818;stroke-width:1;" x1="56.2002" x2="56.2002" y1="175.13" y2="206.3799"/><line style="stroke:#181818;stroke-width:1;" x1="56.2002" x2="547.1009" y1="206.3799" y2="206.3799"/><line style="stroke:#181818;stroke-width:1;" x1="547.1009" x2="547.1009" y1="206.3799" y2="237.6298"/><polygon fill="#181818" points="543.1009,227.6298,547.1009,237.6298,551.1009,227.6298,547.1009,231.6298" style="stroke:#181818;stroke-width:1;"/><text fill="#000000" font-family="sans-serif" font-size="11" lengthAdjust="spacing" textLength="87.9993" x="60.2002" y="187.62">&#1055;&#1086;&#1076;&#1090;&#1074;&#1077;&#1088;&#1078;&#1076;&#1077;&#1085;&#1080;&#1077;</text><text fill="#000000" font-family="sans-serif" font-size="11" lengthAdjust="spacing" textLength="52.7996" x="77.8001" y="201.3699">&#1087;&#1088;&#1080;&#1085;&#1103;&#1090;&#1080;&#1103;</text><line style="stroke:#181818;stroke-width:1;" x1="363.0499" x2="363.0499" y1="175.13" y2="194.505"/><line style="stroke:#181818;stroke-width:1;" x1="363.0499" x2="1048.2018" y1="194.505" y2="194.505"/><line style="stroke:#181818;stroke-width:1;" x1="1048.2018" x2="1048.2018" y1="194.505" y2="213.88"/><polygon fill="#181818" points="1044.2018,203.88,1048.2018,213.88,1052.2018,203.88,1048.2018,207.88" style="stroke:#181818;stroke-width:1;"/><line style="stroke:#181818;stroke-width:1;" x1="547.1009" x2="547.1009" y1="272.6299" y2="277.6299"/><line style="stroke:#181818;stroke-width:1;" x1="547.1009" x2="711.8508" y1="277.6299" y2="277.6299"/><line style="stroke:#181818;stroke-width:1;" x1="711.8508" x2="711.8508" y1="277.6299" y2="292.6299"/><polygon fill="#181818" points="707.8508,282.6299,711.8508,292.6299,715.8508,282.6299,711.8508,286.6299" style="stroke:#181818;stroke-width:1;"/><line style="stroke:#181818;stroke-width:1;" x1="711.8508" x2="711.8508" y1="342.6301" y2="376.0675"/><line style="stroke:#181818;stroke-width:1;" x1="711.8508" x2="883.4519" y1="376.0675" y2="376.0675"/><line style="stroke:#181818;stroke-width:1;" x1="883.4519" x2="883.4519" y1="376.0675" y2="391.4637"/><polygon fill="#181818" points="879.4519,381.4637,883.4519,391.4637,887.4519,381.4637,883.4519,385.4637" style="stroke:#181818;stroke-width:1;"/><text fill="#000000" font-family="sans-serif" font-size="11" lengthAdjust="spacing" textLength="61.5995" x="715.8508" y="356.2138">&#1054;&#1088;&#1080;&#1075;&#1080;&#1085;&#1072;&#1083;&#1099;</text><text fill="#000000" font-family="sans-serif" font-size="11" lengthAdjust="spacing" textLength="67.0994" x="715.8508" y="369.9637">&#1076;&#1086;&#1082;&#1091;&#1084;&#1077;&#1085;&#1090;&#1086;&#1074;</text><text fill="#000000" font-family="sans-serif" font-size="18" lengthAdjust="spacing" textLength="43.1997" x="194.8252" y="30.9999">&#1044;&#1040;&#1053;&#1050;</text><text fill="#000000" font-family="sans-serif" font-size="18" lengthAdjust="spacing" textLength="107.9993" x="552.3511" y="30.9999">&#1057;&#1086;&#1080;&#1089;&#1082;&#1072;&#1090;&#1077;&#1083;&#1100;</text><text fill="#000000" font-family="sans-serif" font-size="18" lengthAdjust="spacing" textLength="97.1993" x="910.5272" y="30.9999">&#1057;&#1077;&#1082;&#1088;&#1077;&#1090;&#1072;&#1088;&#1100;</text><!--SRC=[ZLBDJi904BxFK-oH7dW1csYYhsA9H887EVQ0rCW10iQOc9Y8-WODKjrGgQ_mxHlvpL9eKY2XsSFkp7m_CzCOptZ46rvZQPm7qcwP1jvH87U96o9r0sIyZyy2qxkAkan-CcdT7PPLCf0JFBaH5XfoOs7sp_MHOewbIq9fdXhFkI1WZeofRzPcMC4Y4yFFrrkit9Gbrar3YVS9nHIgp5aLCtMnk6eewjn6fMEL7QZF3rR-e20gBztI2cKOe34AfUw1xydQGKREla8PxX_GfxR2sN- -Tj2zwKM25uRlsTEIp9P5wc4hg9Ua1eMLg7jfFFgwtUduLxjrU18pFZQjhxsGkL0F-DNfCZIIdIOcfS6cOMexEQG6XSvIlGtzLkfase7HKyvN6MP-RL-wElBaRhGNLVMbVy8EHlPXZfs_S9V7U0YbSH7y0m00]--></g></svg>