<svg xmlns="http://www.w3.org/2000/svg" xmlns:xlink="http://www.w3.org/1999/xlink" contentStyleType="text/css" height="438px" preserveAspectRatio="none" style="width:1204px;height:438px;background:#FFFFFF;" version="1.1" viewBox="0 0 1204 438" width="1204px" zoomAndPan="magnify"><defs/><g><rect fill="none" height="22.4999" style="stroke:none;stroke-width:1.0;" width="1171.3034" x="15" y="13.63"/><ellipse cx="245.5003" cy="51.1298" fill="#222222" rx="10" ry="10" style="stroke:#222222;stroke-width:1.0;"/><polygon fill="#F1F1F1" points="245.5003,81.1298,245.5003,81.1298,257.5003,93.1298,245.5003,105.1298,245.5003,105.1298,233.5003,93.1298,245.5003,81.1298" style="stroke:#181818;stroke-width:0.5;"/><text fill="#000000" font-family="sans-serif" font-size="11" lengthAdjust="spacing" textLength="65.9995" x="167.5009" y="89.9948">&#1057;&#1086;&#1080;&#1089;&#1082;&#1072;&#1090;&#1077;&#1083;&#1100;</text><text fill="#000000" font-family="sans-serif" font-size="11" lengthAdjust="spacing" textLength="32.9997" x="257.5003" y="89.9948">&#1057;&#1086;&#1074;&#1077;&#1090;</text><rect fill="#F1F1F1" height="35.0001" rx="12.5" ry="12.5" style="stroke:#181818;stroke-width:0.5;" width="120.8008" x="21" y="125.1298"/><text fill="#000000" font-family="sans-serif" font-size="12" lengthAdjust="spacing" textLength="100.8008" x="31" y="146.7099">&#1042;&#1099;&#1076;&#1072;&#1090;&#1100; &#1089;&#1087;&#1088;&#1072;&#1074;&#1082;&#1091;</text><rect fill="#F1F1F1" height="35.0001" rx="12.5" ry="12.5" style="stroke:#181818;stroke-width:0.5;" width="171.2012" x="300.5" y="125.1298"/><text fill="#000000" font-family="sans-serif" font-size="12" lengthAdjust="spacing" textLength="151.2012" x="310.5" y="146.7099">&#1056;&#1072;&#1079;&#1086;&#1089;&#1083;&#1072;&#1090;&#1100; &#1076;&#1080;&#1089;&#1089;&#1077;&#1088;&#1090;&#1072;&#1094;&#1080;&#1102;</text><line style="stroke:#000000;stroke-width:1.5;" x1="15" x2="15" y1="13.63" y2="426.4638"/><rect fill="#F1F1F1" height="35.0001" rx="12.5" ry="12.5" style="stroke:#181818;stroke-width:0.5;" width="132.8009" x="541.1015" y="222.6297"/><text fill="#000000" font-family="sans-serif" font-size="12" lengthAdjust="spacing" textLength="112.8009" x="551.1015" y="244.2098">&#1055;&#1086;&#1083;&#1091;&#1095;&#1080;&#1090;&#1100; &#1089;&#1087;&#1088;&#1072;&#1074;&#1082;&#1091;</text><path d="M480.7012,273.2549 L480.7012,332.005 A0,0 0 0 0 480.7012,332.005 L672.0013,332.005 A0,0 0 0 0 672.0013,332.005 L672.0013,306.6299 L692.0013,302.6299 L672.0013,298.6299 L672.0013,283.2549 L662.0013,273.2549 L480.7012,273.2549 A0,0 0 0 0 480.7012,273.2549 " fill="#FEFFDD" style="stroke:#181818;stroke-width:0.5;"/><path d="M662.0013,273.2549 L662.0013,283.2549 L672.0013,283.2549 L662.0013,273.2549 " fill="#FEFFDD" style="stroke:#181818;stroke-width:0.5;"/><text fill="#000000" font-family="sans-serif" font-size="13" lengthAdjust="spacing" textLength="123.5001" x="486.7012" y="290.7999">- &#1057;&#1087;&#1088;&#1072;&#1074;&#1082;&#1072; &#1086; &#1089;&#1076;&#1072;&#1095;&#1077;</text><text fill="#000000" font-family="sans-serif" font-size="13" lengthAdjust="spacing" textLength="130.0001" x="497.1013" y="307.0499">&#1076;&#1086;&#1082;&#1091;&#1084;&#1077;&#1085;&#1090;&#1086;&#1074; &#1074; &#1044;&#1040;&#1053;&#1050;</text><text fill="#000000" font-family="sans-serif" font-size="13" lengthAdjust="spacing" textLength="170.3001" x="486.7012" y="323.3">- &#1054;&#1088;&#1080;&#1075;&#1080;&#1085;&#1072;&#1083;&#1099; &#1076;&#1086;&#1082;&#1091;&#1084;&#1077;&#1085;&#1090;&#1086;&#1074;</text><rect fill="#F1F1F1" height="50.0002" rx="12.5" ry="12.5" style="stroke:#181818;stroke-width:0.5;" width="159.2011" x="692.0013" y="277.6298"/><text fill="#000000" font-family="sans-serif" font-size="12" lengthAdjust="spacing" textLength="139.2011" x="702.0013" y="299.2099">&#1054;&#1090;&#1087;&#1088;&#1072;&#1074;&#1080;&#1090;&#1100; &#1076;&#1086;&#1082;&#1091;&#1084;&#1077;&#1085;&#1090;&#1099;</text><text fill="#000000" font-family="sans-serif" font-size="12" lengthAdjust="spacing" textLength="67.2005" x="702.0013" y="314.21">&#1057;&#1077;&#1082;&#1088;&#1077;&#1090;&#1072;&#1088;&#1102;</text><line style="stroke:#000000;stroke-width:1.5;" x1="475.7012" x2="475.7012" y1="13.63" y2="426.4638"/><path d="M892.3024,195.1299 L892.3024,237.63 A0,0 0 0 0 892.3024,237.63 L1017.3024,237.63 A0,0 0 0 0 1017.3024,237.63 L1017.3024,220.3799 L1037.3024,216.3799 L1017.3024,212.3799 L1017.3024,205.1299 L1007.3024,195.1299 L892.3024,195.1299 A0,0 0 0 0 892.3024,195.1299 " fill="#FEFFDD" style="stroke:#181818;stroke-width:0.5;"/><path d="M1007.3024,195.1299 L1007.3024,205.1299 L1017.3024,205.1299 L1007.3024,195.1299 " fill="#FEFFDD" style="stroke:#181818;stroke-width:0.5;"/><text fill="#000000" font-family="sans-serif" font-size="13" lengthAdjust="spacing" textLength="104" x="898.3024" y="212.6749">&#1047;&#1072;&#1092;&#1080;&#1082;&#1089;&#1080;&#1088;&#1086;&#1074;&#1072;&#1090;&#1100;</text><text fill="#000000" font-family="sans-serif" font-size="13" lengthAdjust="spacing" textLength="101.4001" x="898.3024" y="228.925">&#1076;&#1072;&#1090;&#1091; &#1088;&#1072;&#1089;&#1089;&#1099;&#1083;&#1082;&#1080;</text><rect fill="#F1F1F1" height="35.0001" rx="12.5" ry="12.5" style="stroke:#181818;stroke-width:0.5;" width="142.401" x="1037.3024" y="198.8799"/><text fill="#000000" font-family="sans-serif" font-size="12" lengthAdjust="spacing" textLength="122.401" x="1047.3024" y="220.46">&#1055;&#1086;&#1083;&#1091;&#1095;&#1080;&#1090;&#1100; &#1088;&#1072;&#1089;&#1089;&#1099;&#1083;&#1082;&#1091;</text><rect fill="#F1F1F1" height="50.0002" rx="12.5" ry="12.5" style="stroke:#181818;stroke-width:0.5;" width="166.4012" x="861.2024" y="376.4636"/><text fill="#000000" font-family="sans-serif" font-size="12" lengthAdjust="spacing" textLength="57.6005" x="871.2024" y="398.0437">&#1055;&#1086;&#1083;&#1091;&#1095;&#1080;&#1090;&#1100;</text><text fill="#000000" font-family="sans-serif" font-size="12" lengthAdjust="spacing" textLength="146.4012" x="871.2024" y="413.0438">&#1086;&#1088;&#1080;&#1075;&#1080;&#1085;&#1072;&#1083;&#1099; &#1076;&#1086;&#1082;&#1091;&#1084;&#1077;&#1085;&#1090;&#1086;&#1074;</text><line style="stroke:#000000;stroke-width:1.5;" x1="855.2024" x2="855.2024" y1="13.63" y2="426.4638"/><line style="stroke:#000000;stroke-width:1.5;" x1="1183.7034" x2="1183.7034" y1="13.63" y2="426.4638"/><line style="stroke:#181818;stroke-width:1.0;" x1="233.5003" x2="81.4004" y1="93.1298" y2="93.1298"/><line style="stroke:#181818;stroke-width:1.0;" x1="81.4004" x2="81.4004" y1="93.1298" y2="125.1298"/><polygon fill="#181818" points="77.4004,115.1298,81.4004,125.1298,85.4004,115.1298,81.4004,119.1298" style="stroke:#181818;stroke-width:1.0;"/><line style="stroke:#181818;stroke-width:1.0;" x1="257.5003" x2="386.1006" y1="93.1298" y2="93.1298"/><line style="stroke:#181818;stroke-width:1.0;" x1="386.1006" x2="386.1006" y1="93.1298" y2="125.1298"/><polygon fill="#181818" points="382.1006,115.1298,386.1006,125.1298,390.1006,115.1298,386.1006,119.1298" style="stroke:#181818;stroke-width:1.0;"/><line style="stroke:#181818;stroke-width:1.0;" x1="245.5003" x2="245.5003" y1="61.1298" y2="81.1298"/><polygon fill="#181818" points="241.5003,71.1298,245.5003,81.1298,249.5003,71.1298,245.5003,75.1298" style="stroke:#181818;stroke-width:1.0;"/><line style="stroke:#181818;stroke-width:1.0;" x1="81.4004" x2="81.4004" y1="160.1299" y2="191.3798"/><line style="stroke:#181818;stroke-width:1.0;" x1="81.4004" x2="607.502" y1="191.3798" y2="191.3798"/><line style="stroke:#181818;stroke-width:1.0;" x1="607.502" x2="607.502" y1="191.3798" y2="222.6297"/><polygon fill="#181818" points="603.502,212.6297,607.502,222.6297,611.502,212.6297,607.502,216.6297" style="stroke:#181818;stroke-width:1.0;"/><text fill="#000000" font-family="sans-serif" font-size="11" lengthAdjust="spacing" textLength="87.9993" x="85.4004" y="172.6199">&#1055;&#1086;&#1076;&#1090;&#1074;&#1077;&#1088;&#1078;&#1076;&#1077;&#1085;&#1080;&#1077;</text><text fill="#000000" font-family="sans-serif" font-size="11" lengthAdjust="spacing" textLength="52.7996" x="85.4004" y="186.3698">&#1087;&#1088;&#1080;&#1085;&#1103;&#1090;&#1080;&#1103;</text><line style="stroke:#181818;stroke-width:1.0;" x1="386.1006" x2="386.1006" y1="160.1299" y2="179.5049"/><line style="stroke:#181818;stroke-width:1.0;" x1="386.1006" x2="1108.5029" y1="179.5049" y2="179.5049"/><line style="stroke:#181818;stroke-width:1.0;" x1="1108.5029" x2="1108.5029" y1="179.5049" y2="198.8799"/><polygon fill="#181818" points="1104.5029,188.8799,1108.5029,198.8799,1112.5029,188.8799,1108.5029,192.8799" style="stroke:#181818;stroke-width:1.0;"/><line style="stroke:#181818;stroke-width:1.0;" x1="607.502" x2="607.502" y1="257.6298" y2="262.6298"/><line style="stroke:#181818;stroke-width:1.0;" x1="607.502" x2="771.6019" y1="262.6298" y2="262.6298"/><line style="stroke:#181818;stroke-width:1.0;" x1="771.6019" x2="771.6019" y1="262.6298" y2="277.6298"/><polygon fill="#181818" points="767.6019,267.6298,771.6019,277.6298,775.6019,267.6298,771.6019,271.6298" style="stroke:#181818;stroke-width:1.0;"/><line style="stroke:#181818;stroke-width:1.0;" x1="771.6019" x2="771.6019" y1="327.63" y2="361.0674"/><line style="stroke:#181818;stroke-width:1.0;" x1="771.6019" x2="944.403" y1="361.0674" y2="361.0674"/><line style="stroke:#181818;stroke-width:1.0;" x1="944.403" x2="944.403" y1="361.0674" y2="376.4636"/><polygon fill="#181818" points="940.403,366.4636,944.403,376.4636,948.403,366.4636,944.403,370.4636" style="stroke:#181818;stroke-width:1.0;"/><text fill="#000000" font-family="sans-serif" font-size="11" lengthAdjust="spacing" textLength="61.5995" x="775.6019" y="341.2137">&#1054;&#1088;&#1080;&#1075;&#1080;&#1085;&#1072;&#1083;&#1099;</text><text fill="#000000" font-family="sans-serif" font-size="11" lengthAdjust="spacing" textLength="68.1994" x="775.6019" y="354.9636">&#1076;&#1086;&#1082;&#1091;&#1084;&#1077;&#1085;&#1090;&#1086;&#1074;</text><text fill="#000000" font-family="sans-serif" font-size="18" lengthAdjust="spacing" textLength="43.1997" x="223.7508" y="30.9999">&#1044;&#1040;&#1053;&#1050;</text><text fill="#000000" font-family="sans-serif" font-size="18" lengthAdjust="spacing" textLength="107.9993" x="611.4522" y="30.9999">&#1057;&#1086;&#1080;&#1089;&#1082;&#1072;&#1090;&#1077;&#1083;&#1100;</text><text fill="#000000" font-family="sans-serif" font-size="18" lengthAdjust="spacing" textLength="97.1993" x="970.8532" y="30.9999">&#1057;&#1077;&#1082;&#1088;&#1077;&#1090;&#1072;&#1088;&#1100;</text><!--SRC=[ZL9BIiDG59s_LRnXE-W6BBWI9u8fbeO8DiCCOYjsqDAA289WrHs4skWZiN4Bv-x8SzFKIfj28PFxEVTyNY8yuXulU8vCFpo_3asqRNGxjj6quQKNs0RUKS393J8aCa2AN2PDSu876MEfBPbOJdyaHe85CXcsJUlKufMm9G4Bf1nzSZV52WxfML0kEwnanhcJMPlSDImHMVHABaCPSLZ7z4-qv_UzIgvo3bJa6pU_K12LLrAfWpHiK1M94hbZFLqhI7apLYZRyG5-SYkSvlErWk0gz0oUsBwbfuoN7PTKGqbegf26Er0uumKNjaJtkhvVLjtEuIJcB3RMtSPAeHhmhT6oDMQqkowcbSAMvUWlEYGMXOQfuaP8ZTsxfXQiVbN0Uc5Uljk7lXtlv3AkHMsDwN-mXw786j2nBq1qSPIAzYy0]--></g></svg>