<svg xmlns="http://www.w3.org/2000/svg" xmlns:xlink="http://www.w3.org/1999/xlink" contentStyleType="text/css" height="1419px" preserveAspectRatio="none" style="width:1546px;height:1419px;background:#FFFFFF;" version="1.1" viewBox="0 0 1546 1419" width="1546px" zoomAndPan="magnify"><defs/><g><rect fill="none" height="22.4999" style="stroke:none;stroke-width:1.0;" width="1513.4035" x="15" y="13.63"/><path d="M20,1196.8819 L20,1255.6319 A0,0 0 0 0 20,1255.6319 L147.6001,1255.6319 A0,0 0 0 0 147.6001,1255.6319 L147.6001,1230.2569 L167.6001,1226.2569 L147.6001,1222.2569 L147.6001,1206.8819 L137.6001,1196.8819 L20,1196.8819 A0,0 0 0 0 20,1196.8819 " fill="#FEFFDD" style="stroke:#181818;stroke-width:0.5;"/><path d="M137.6001,1196.8819 L137.6001,1206.8819 L147.6001,1206.8819 L137.6001,1196.8819 " fill="#FEFFDD" style="stroke:#181818;stroke-width:0.5;"/><text fill="#000000" font-family="sans-serif" font-size="13" lengthAdjust="spacing" textLength="91" x="26" y="1214.4269">&#1053;&#1072; &#1079;&#1072;&#1089;&#1077;&#1076;&#1072;&#1085;&#1080;&#1080;</text><text fill="#000000" font-family="sans-serif" font-size="13" lengthAdjust="spacing" textLength="106.6001" x="26" y="1230.6769">&#1059;&#1095;&#1105;&#1085;&#1086;&#1075;&#1086; &#1089;&#1086;&#1074;&#1077;&#1090;&#1072;</text><text fill="#000000" font-family="sans-serif" font-size="13" lengthAdjust="spacing" textLength="31.2" x="26" y="1246.9269">&#1056;&#1059;&#1044;&#1053;</text><rect fill="#F1F1F1" height="35.0001" rx="12.5" ry="12.5" style="stroke:#181818;stroke-width:0.5;" width="176.0012" x="167.6001" y="1208.7568"/><text fill="#000000" font-family="sans-serif" font-size="12" lengthAdjust="spacing" textLength="156.0012" x="177.6001" y="1230.3369">&#1056;&#1072;&#1079;&#1088;&#1077;&#1096;&#1080;&#1090;&#1100; &#1089;&#1086;&#1079;&#1076;&#1072;&#1085;&#1080;&#1077; &#1056;&#1044;&#1057;</text><line style="stroke:#000000;stroke-width:1.5;" x1="15" x2="15" y1="13.63" y2="1407.6321"/><ellipse cx="459.6021" cy="348.7549" fill="#F1F1F1" rx="10" ry="10" style="stroke:#181818;stroke-width:0.5;"/><path d="M456.8208,353.5049 L459.1333,344.6924 L460.2739,344.6924 L462.5864,353.5049 L461.5552,353.5049 L460.9927,351.2549 L458.3989,351.2549 L457.8521,353.5049 L456.8208,353.5049 Z M460.7896,350.3799 L460.1021,347.6299 Q460.0083,347.2237 459.8989,346.8174 Q459.8052,346.3955 459.6958,345.9737 Q459.6021,346.3955 459.4927,346.8174 Q459.3989,347.2237 459.3052,347.6299 L458.6177,350.3799 L460.7896,350.3799 Z " fill="#000000"/><rect fill="#F1F1F1" height="35.0001" rx="12.5" ry="12.5" style="stroke:#181818;stroke-width:0.5;" width="159.2011" x="380.0015" y="378.7549"/><text fill="#000000" font-family="sans-serif" font-size="12" lengthAdjust="spacing" textLength="139.2011" x="390.0015" y="400.335">&#1055;&#1088;&#1086;&#1074;&#1077;&#1088;&#1080;&#1090;&#1100; &#1076;&#1086;&#1082;&#1091;&#1084;&#1077;&#1085;&#1090;&#1099;</text><rect fill="#F1F1F1" height="35.0001" rx="12.5" ry="12.5" style="stroke:#181818;stroke-width:0.5;" width="171.2012" x="374.0014" y="433.755"/><text fill="#000000" font-family="sans-serif" font-size="12" lengthAdjust="spacing" textLength="151.2012" x="384.0014" y="455.3351">&#1056;&#1072;&#1079;&#1086;&#1089;&#1083;&#1072;&#1090;&#1100; &#1076;&#1080;&#1089;&#1089;&#1077;&#1088;&#1090;&#1072;&#1094;&#1080;&#1102;</text><rect fill="#F1F1F1" height="50.0002" rx="12.5" ry="12.5" style="stroke:#181818;stroke-width:0.5;" width="158.0011" x="380.6015" y="937.5062"/><text fill="#000000" font-family="sans-serif" font-size="12" lengthAdjust="spacing" textLength="138.0011" x="390.6015" y="959.0863">&#1042;&#1099;&#1074;&#1077;&#1089;&#1080;&#1090;&#1100; &#1086;&#1073;&#1098;&#1103;&#1074;&#1083;&#1077;&#1085;&#1080;&#1077;</text><text fill="#000000" font-family="sans-serif" font-size="12" lengthAdjust="spacing" textLength="108.0009" x="390.6015" y="974.0864">&#1086; &#1085;&#1072;&#1073;&#1086;&#1088;&#1077; &#1085;&#1072; &#1089;&#1072;&#1081;&#1090;</text><rect fill="#F1F1F1" height="35.0001" rx="12.5" ry="12.5" style="stroke:#181818;stroke-width:0.5;" width="159.2011" x="380.0015" y="1151.8818"/><text fill="#000000" font-family="sans-serif" font-size="12" lengthAdjust="spacing" textLength="139.2011" x="390.0015" y="1173.4618">&#1055;&#1088;&#1086;&#1074;&#1077;&#1088;&#1080;&#1090;&#1100; &#1076;&#1086;&#1082;&#1091;&#1084;&#1077;&#1085;&#1090;&#1099;</text><rect fill="#F1F1F1" height="35.0001" rx="12.5" ry="12.5" style="stroke:#181818;stroke-width:0.5;" width="212.0015" x="353.6013" y="1275.6319"/><text fill="#000000" font-family="sans-serif" font-size="12" lengthAdjust="spacing" textLength="192.0015" x="363.6013" y="1297.212">&#1048;&#1079;&#1076;&#1072;&#1090;&#1100; &#1087;&#1088;&#1080;&#1082;&#1072;&#1079; &#1086; &#1089;&#1086;&#1079;&#1076;&#1072;&#1085;&#1080;&#1080; &#1056;&#1044;&#1057;</text><rect fill="#F1F1F1" height="35.0001" rx="12.5" ry="12.5" style="stroke:#181818;stroke-width:0.5;" width="202.4014" x="358.4013" y="1330.632"/><text fill="#000000" font-family="sans-serif" font-size="12" lengthAdjust="spacing" textLength="182.4014" x="368.4013" y="1352.2121">&#1056;&#1072;&#1079;&#1084;&#1077;&#1089;&#1090;&#1080;&#1090;&#1100; &#1087;&#1088;&#1080;&#1082;&#1072;&#1079; &#1085;&#1072; &#1089;&#1072;&#1081;&#1090;&#1077;</text><ellipse cx="459.6021" cy="1396.6321" fill="none" rx="11" ry="11" style="stroke:#222222;stroke-width:1.0;"/><ellipse cx="459.6021" cy="1396.6321" fill="#222222" rx="6" ry="6" style="stroke:#222222;stroke-width:1.0;"/><line style="stroke:#000000;stroke-width:1.5;" x1="347.6013" x2="347.6013" y1="13.63" y2="1407.6321"/><ellipse cx="746.6021" cy="51.1298" fill="#222222" rx="10" ry="10" style="stroke:#222222;stroke-width:1.0;"/><rect fill="none" height="206.1351" style="stroke:#000000;stroke-width:1.5;" width="336.9986" x="575.6028" y="72.6198"/><path d="M907.6014,72.6198 L907.6014,83.1197 L897.6014,93.1197 L575.6028,93.1197 " fill="none" style="stroke:#000000;stroke-width:1.5;"/><text fill="#000000" font-family="sans-serif" font-size="14" lengthAdjust="spacing" textLength="321.9986" x="578.6028" y="87.1298">&#1055;&#1086;&#1076;&#1075;&#1086;&#1090;&#1086;&#1074;&#1082;&#1072; &#1087;&#1077;&#1088;&#1074;&#1080;&#1095;&#1085;&#1086;&#1075;&#1086; &#1087;&#1072;&#1082;&#1077;&#1090;&#1072; &#1076;&#1086;&#1082;&#1091;&#1084;&#1077;&#1085;&#1090;&#1086;&#1074;</text><rect fill="#F1F1F1" height="50.0002" rx="12.5" ry="12.5" style="stroke:#181818;stroke-width:0.5;" width="171.2012" x="661.0015" y="110.1197"/><text fill="#000000" font-family="sans-serif" font-size="12" lengthAdjust="spacing" textLength="151.2012" x="671.0015" y="131.6998">&#1055;&#1086;&#1076;&#1075;&#1086;&#1090;&#1086;&#1074;&#1080;&#1090;&#1100; &#1087;&#1077;&#1088;&#1074;&#1080;&#1095;&#1085;&#1099;&#1081;</text><text fill="#000000" font-family="sans-serif" font-size="12" lengthAdjust="spacing" textLength="115.2009" x="671.0015" y="146.6999">&#1087;&#1072;&#1082;&#1077;&#1090; &#1076;&#1086;&#1082;&#1091;&#1084;&#1077;&#1085;&#1090;&#1086;&#1074;</text><rect fill="#F1F1F1" height="50.0002" rx="12.5" ry="12.5" style="stroke:#181818;stroke-width:0.5;" width="156.8011" x="668.2016" y="216.7547"/><text fill="#000000" font-family="sans-serif" font-size="12" lengthAdjust="spacing" textLength="136.8011" x="678.2016" y="238.3348">&#1054;&#1090;&#1087;&#1088;&#1072;&#1074;&#1080;&#1090;&#1100; &#1087;&#1077;&#1088;&#1074;&#1080;&#1095;&#1085;&#1099;&#1081;</text><text fill="#000000" font-family="sans-serif" font-size="12" lengthAdjust="spacing" textLength="81.6006" x="678.2016" y="253.3349">&#1087;&#1072;&#1082;&#1077;&#1090; &#1074; &#1044;&#1040;&#1053;&#1050;</text><ellipse cx="746.6021" cy="308.7549" fill="#F1F1F1" rx="10" ry="10" style="stroke:#181818;stroke-width:0.5;"/><path d="M743.8209,313.5049 L746.1334,304.6924 L747.274,304.6924 L749.5865,313.5049 L748.5552,313.5049 L747.9927,311.2549 L745.399,311.2549 L744.8521,313.5049 L743.8209,313.5049 Z M747.7896,310.3799 L747.1021,307.6299 Q747.0084,307.2237 746.899,306.8174 Q746.8052,306.3955 746.6959,305.9737 Q746.6021,306.3955 746.4927,306.8174 Q746.399,307.2237 746.3052,307.6299 L745.6177,310.3799 L747.7896,310.3799 Z " fill="#000000"/><line style="stroke:#000000;stroke-width:1.5;" x1="569.6028" x2="569.6028" y1="13.63" y2="1407.6321"/><rect fill="#F1F1F1" height="35.0001" rx="12.5" ry="12.5" style="stroke:#181818;stroke-width:0.5;" width="142.401" x="1075.2015" y="488.7551"/><text fill="#000000" font-family="sans-serif" font-size="12" lengthAdjust="spacing" textLength="122.401" x="1085.2015" y="510.3352">&#1055;&#1086;&#1083;&#1091;&#1095;&#1080;&#1090;&#1100; &#1088;&#1072;&#1089;&#1089;&#1099;&#1083;&#1082;&#1091;</text><path d="M921.6014,539.3803 L921.6014,598.1304 A0,0 0 0 0 921.6014,598.1304 L1049.2015,598.1304 A0,0 0 0 0 1049.2015,598.1304 L1049.2015,572.7553 L1069.2015,568.7553 L1049.2015,564.7553 L1049.2015,549.3803 L1039.2015,539.3803 L921.6014,539.3803 A0,0 0 0 0 921.6014,539.3803 " fill="#FEFFDD" style="stroke:#181818;stroke-width:0.5;"/><path d="M1039.2015,539.3803 L1039.2015,549.3803 L1049.2015,549.3803 L1039.2015,539.3803 " fill="#FEFFDD" style="stroke:#181818;stroke-width:0.5;"/><text fill="#000000" font-family="sans-serif" font-size="13" lengthAdjust="spacing" textLength="91" x="927.6014" y="556.9253">&#1053;&#1072; &#1079;&#1072;&#1089;&#1077;&#1076;&#1072;&#1085;&#1080;&#1080;</text><text fill="#000000" font-family="sans-serif" font-size="13" lengthAdjust="spacing" textLength="106.6001" x="927.6014" y="573.1753">&#1059;&#1095;&#1105;&#1085;&#1086;&#1075;&#1086; &#1089;&#1086;&#1074;&#1077;&#1090;&#1072;</text><text fill="#000000" font-family="sans-serif" font-size="13" lengthAdjust="spacing" textLength="80.6" x="927.6014" y="589.4254">&#1092;&#1072;&#1082;&#1091;&#1083;&#1100;&#1090;&#1077;&#1090;&#1072;</text><rect fill="#F1F1F1" height="50.0002" rx="12.5" ry="12.5" style="stroke:#181818;stroke-width:0.5;" width="154.401" x="1069.2015" y="543.7552"/><text fill="#000000" font-family="sans-serif" font-size="12" lengthAdjust="spacing" textLength="84.0007" x="1079.2015" y="565.3353">&#1053;&#1072;&#1087;&#1088;&#1072;&#1074;&#1080;&#1090;&#1100; &#1085;&#1072;</text><text fill="#000000" font-family="sans-serif" font-size="12" lengthAdjust="spacing" textLength="134.401" x="1079.2015" y="580.3354">&#1087;&#1088;&#1086;&#1092;&#1080;&#1083;&#1100;&#1085;&#1091;&#1102; &#1082;&#1072;&#1092;&#1077;&#1076;&#1088;&#1091;</text><rect fill="#F1F1F1" height="50.0002" rx="12.5" ry="12.5" style="stroke:#181818;stroke-width:0.5;" width="156.8011" x="1068.0014" y="793.1309"/><text fill="#000000" font-family="sans-serif" font-size="12" lengthAdjust="spacing" textLength="136.8011" x="1078.0014" y="814.7109">&#1055;&#1088;&#1080;&#1085;&#1103;&#1090;&#1100; &#1076;&#1080;&#1089;&#1089;&#1077;&#1088;&#1090;&#1072;&#1094;&#1080;&#1102;</text><text fill="#000000" font-family="sans-serif" font-size="12" lengthAdjust="spacing" textLength="103.2008" x="1078.0014" y="829.7111">&#1082; &#1088;&#1072;&#1089;&#1089;&#1084;&#1086;&#1090;&#1088;&#1077;&#1085;&#1080;&#1102;</text><path d="M939.0015,858.7562 L939.0015,917.5062 A0,0 0 0 0 939.0015,917.5062 L1066.6016,917.5062 A0,0 0 0 0 1066.6016,917.5062 L1066.6016,892.1312 L1086.6016,888.1312 L1066.6016,884.1312 L1066.6016,868.7562 L1056.6016,858.7562 L939.0015,858.7562 A0,0 0 0 0 939.0015,858.7562 " fill="#FEFFDD" style="stroke:#181818;stroke-width:0.5;"/><path d="M1056.6016,858.7562 L1056.6016,868.7562 L1066.6016,868.7562 L1056.6016,858.7562 " fill="#FEFFDD" style="stroke:#181818;stroke-width:0.5;"/><text fill="#000000" font-family="sans-serif" font-size="13" lengthAdjust="spacing" textLength="91" x="945.0015" y="876.3012">&#1053;&#1072; &#1079;&#1072;&#1089;&#1077;&#1076;&#1072;&#1085;&#1080;&#1080;</text><text fill="#000000" font-family="sans-serif" font-size="13" lengthAdjust="spacing" textLength="106.6001" x="945.0015" y="892.5512">&#1059;&#1095;&#1105;&#1085;&#1086;&#1075;&#1086; &#1089;&#1086;&#1074;&#1077;&#1090;&#1072;</text><text fill="#000000" font-family="sans-serif" font-size="13" lengthAdjust="spacing" textLength="80.6" x="945.0015" y="908.8012">&#1092;&#1072;&#1082;&#1091;&#1083;&#1100;&#1090;&#1077;&#1090;&#1072;</text><rect fill="#F1F1F1" height="50.0002" rx="12.5" ry="12.5" style="stroke:#181818;stroke-width:0.5;" width="119.6008" x="1086.6016" y="863.1311"/><text fill="#000000" font-family="sans-serif" font-size="12" lengthAdjust="spacing" textLength="99.6008" x="1096.6016" y="884.7112">&#1054;&#1073;&#1098;&#1103;&#1074;&#1080;&#1090;&#1100; &#1085;&#1072;&#1073;&#1086;&#1088;</text><text fill="#000000" font-family="sans-serif" font-size="12" lengthAdjust="spacing" textLength="81.6006" x="1096.6016" y="899.7113">&#1074; &#1089;&#1086;&#1089;&#1090;&#1072;&#1074; &#1056;&#1044;&#1057;</text><path d="M934.8015,1073.1317 L934.8015,1131.8818 A0,0 0 0 0 934.8015,1131.8818 L1062.4016,1131.8818 A0,0 0 0 0 1062.4016,1131.8818 L1062.4016,1106.5067 L1082.4016,1102.5067 L1062.4016,1098.5067 L1062.4016,1083.1317 L1052.4016,1073.1317 L934.8015,1073.1317 A0,0 0 0 0 934.8015,1073.1317 " fill="#FEFFDD" style="stroke:#181818;stroke-width:0.5;"/><path d="M1052.4016,1073.1317 L1052.4016,1083.1317 L1062.4016,1083.1317 L1052.4016,1073.1317 " fill="#FEFFDD" style="stroke:#181818;stroke-width:0.5;"/><text fill="#000000" font-family="sans-serif" font-size="13" lengthAdjust="spacing" textLength="91" x="940.8015" y="1090.6767">&#1053;&#1072; &#1079;&#1072;&#1089;&#1077;&#1076;&#1072;&#1085;&#1080;&#1080;</text><text fill="#000000" font-family="sans-serif" font-size="13" lengthAdjust="spacing" textLength="106.6001" x="940.8015" y="1106.9267">&#1059;&#1095;&#1105;&#1085;&#1086;&#1075;&#1086; &#1089;&#1086;&#1074;&#1077;&#1090;&#1072;</text><text fill="#000000" font-family="sans-serif" font-size="13" lengthAdjust="spacing" textLength="80.6" x="940.8015" y="1123.1767">&#1092;&#1072;&#1082;&#1091;&#1083;&#1100;&#1090;&#1077;&#1090;&#1072;</text><rect fill="#F1F1F1" height="50.0002" rx="12.5" ry="12.5" style="stroke:#181818;stroke-width:0.5;" width="128.0009" x="1082.4016" y="1077.5066"/><text fill="#000000" font-family="sans-serif" font-size="12" lengthAdjust="spacing" textLength="108.0009" x="1092.4016" y="1099.0867">&#1061;&#1086;&#1076;&#1072;&#1090;&#1072;&#1081;&#1089;&#1090;&#1074;&#1086;&#1074;&#1072;&#1090;&#1100;</text><text fill="#000000" font-family="sans-serif" font-size="12" lengthAdjust="spacing" textLength="105.6008" x="1092.4016" y="1114.0868">&#1086;&#1073; &#1086;&#1090;&#1082;&#1088;&#1099;&#1090;&#1080;&#1080; &#1056;&#1044;&#1057;</text><line style="stroke:#000000;stroke-width:1.5;" x1="916.6014" x2="916.6014" y1="13.63" y2="1407.6321"/><path d="M1233.8025,613.1305 L1233.8025,688.1306 A0,0 0 0 0 1233.8025,688.1306 L1366.6026,688.1306 A0,0 0 0 0 1366.6026,688.1306 L1366.6026,654.6305 L1386.6026,650.6305 L1366.6026,646.6305 L1366.6026,623.1305 L1356.6026,613.1305 L1233.8025,613.1305 A0,0 0 0 0 1233.8025,613.1305 " fill="#FEFFDD" style="stroke:#181818;stroke-width:0.5;"/><path d="M1356.6026,613.1305 L1356.6026,623.1305 L1366.6026,623.1305 L1356.6026,613.1305 " fill="#FEFFDD" style="stroke:#181818;stroke-width:0.5;"/><text fill="#000000" font-family="sans-serif" font-size="13" lengthAdjust="spacing" textLength="62.4" x="1239.8025" y="630.6755">&#1053;&#1077; &#1084;&#1077;&#1085;&#1077;&#1077;</text><text fill="#000000" font-family="sans-serif" font-size="13" lengthAdjust="spacing" textLength="106.6001" x="1239.8025" y="646.9255">3 &#1089;&#1087;&#1077;&#1094;&#1080;&#1072;&#1083;&#1080;&#1089;&#1090;&#1086;&#1074;</text><text fill="#000000" font-family="sans-serif" font-size="13" lengthAdjust="spacing" textLength="85.8" x="1239.8025" y="663.1755">&#1087;&#1086; &#1090;&#1077;&#1084;&#1072;&#1090;&#1080;&#1082;&#1077;</text><text fill="#000000" font-family="sans-serif" font-size="13" lengthAdjust="spacing" textLength="85.8" x="1239.8025" y="679.4256">&#1076;&#1080;&#1089;&#1089;&#1077;&#1088;&#1090;&#1072;&#1094;&#1080;&#1080;</text><rect fill="#F1F1F1" height="65.0003" rx="12.5" ry="12.5" style="stroke:#181818;stroke-width:0.5;" width="99.2006" x="1386.6026" y="618.1304"/><text fill="#000000" font-family="sans-serif" font-size="12" lengthAdjust="spacing" textLength="50.4004" x="1396.6026" y="639.7104">&#1057;&#1086;&#1079;&#1076;&#1072;&#1090;&#1100;</text><text fill="#000000" font-family="sans-serif" font-size="12" lengthAdjust="spacing" textLength="74.4006" x="1396.6026" y="654.7106">&#1101;&#1082;&#1089;&#1087;&#1077;&#1088;&#1090;&#1085;&#1091;&#1102;</text><text fill="#000000" font-family="sans-serif" font-size="12" lengthAdjust="spacing" textLength="62.4005" x="1396.6026" y="669.7107">&#1082;&#1086;&#1084;&#1080;&#1089;&#1089;&#1080;&#1102;</text><rect fill="#F1F1F1" height="65.0003" rx="12.5" ry="12.5" style="stroke:#181818;stroke-width:0.5;" width="96.8006" x="1387.8026" y="708.1306"/><text fill="#000000" font-family="sans-serif" font-size="12" lengthAdjust="spacing" textLength="50.4004" x="1397.8026" y="729.7106">&#1057;&#1076;&#1077;&#1083;&#1072;&#1090;&#1100;</text><text fill="#000000" font-family="sans-serif" font-size="12" lengthAdjust="spacing" textLength="72.0006" x="1397.8026" y="744.7107">&#1101;&#1082;&#1089;&#1087;&#1077;&#1088;&#1090;&#1085;&#1086;&#1077;</text><text fill="#000000" font-family="sans-serif" font-size="12" lengthAdjust="spacing" textLength="74.4006" x="1397.8026" y="759.7108">&#1079;&#1072;&#1082;&#1083;&#1102;&#1095;&#1077;&#1085;&#1080;&#1077;</text><rect fill="#F1F1F1" height="50.0002" rx="12.5" ry="12.5" style="stroke:#181818;stroke-width:0.5;" width="171.2012" x="1350.6023" y="1007.5064"/><text fill="#000000" font-family="sans-serif" font-size="12" lengthAdjust="spacing" textLength="151.2012" x="1360.6023" y="1029.0865">&#1053;&#1072;&#1087;&#1088;&#1072;&#1074;&#1080;&#1090;&#1100; &#1087;&#1088;&#1077;&#1076;&#1083;&#1086;&#1078;&#1077;&#1085;&#1080;&#1103;</text><text fill="#000000" font-family="sans-serif" font-size="12" lengthAdjust="spacing" textLength="81.6006" x="1360.6023" y="1044.0866">&#1087;&#1086; &#1095;&#1083;&#1077;&#1085;&#1072; &#1056;&#1044;&#1057;</text><line style="stroke:#000000;stroke-width:1.5;" x1="1228.8025" x2="1228.8025" y1="13.63" y2="1407.6321"/><line style="stroke:#000000;stroke-width:1.5;" x1="1525.8035" x2="1525.8035" y1="13.63" y2="1407.6321"/><line style="stroke:#181818;stroke-width:1.0;" x1="459.6021" x2="459.6021" y1="358.7549" y2="378.7549"/><polygon fill="#181818" points="455.6021,368.7549,459.6021,378.7549,463.6021,368.7549,459.6021,372.7549" style="stroke:#181818;stroke-width:1.0;"/><line style="stroke:#181818;stroke-width:1.0;" x1="459.6021" x2="459.6021" y1="413.755" y2="433.755"/><polygon fill="#181818" points="455.6021,423.755,459.6021,433.755,463.6021,423.755,459.6021,427.755" style="stroke:#181818;stroke-width:1.0;"/><line style="stroke:#181818;stroke-width:1.0;" x1="459.6021" x2="459.6021" y1="1310.632" y2="1330.632"/><polygon fill="#181818" points="455.6021,1320.632,459.6021,1330.632,463.6021,1320.632,459.6021,1324.632" style="stroke:#181818;stroke-width:1.0;"/><line style="stroke:#181818;stroke-width:1.0;" x1="459.6021" x2="459.6021" y1="1365.6321" y2="1385.6321"/><polygon fill="#181818" points="455.6021,1375.6321,459.6021,1385.6321,463.6021,1375.6321,459.6021,1379.6321" style="stroke:#181818;stroke-width:1.0;"/><line style="stroke:#181818;stroke-width:1.0;" x1="746.6021" x2="746.6021" y1="160.1199" y2="216.7547"/><polygon fill="#181818" points="742.6021,206.7547,746.6021,216.7547,750.6021,206.7547,746.6021,210.7547" style="stroke:#181818;stroke-width:1.0;"/><text fill="#000000" font-family="sans-serif" font-size="11" lengthAdjust="spacing" textLength="61.5995" x="750.6021" y="182.3698">&#1055;&#1077;&#1088;&#1074;&#1080;&#1095;&#1085;&#1099;&#1081;</text><text fill="#000000" font-family="sans-serif" font-size="11" lengthAdjust="spacing" textLength="32.9997" x="750.6021" y="196.1197">&#1087;&#1072;&#1082;&#1077;&#1090;</text><line style="stroke:#181818;stroke-width:1.0;" x1="746.6021" x2="746.6021" y1="61.1298" y2="110.1197"/><polygon fill="#181818" points="742.6021,100.1197,746.6021,110.1197,750.6021,100.1197,746.6021,104.1197" style="stroke:#181818;stroke-width:1.0;"/><line style="stroke:#181818;stroke-width:1.0;" x1="746.6021" x2="746.6021" y1="266.7549" y2="298.7549"/><polygon fill="#181818" points="742.6021,288.7549,746.6021,298.7549,750.6021,288.7549,746.6021,292.7549" style="stroke:#181818;stroke-width:1.0;"/><line style="stroke:#181818;stroke-width:1.0;" x1="1146.402" x2="1146.402" y1="523.7552" y2="543.7552"/><polygon fill="#181818" points="1142.402,533.7552,1146.402,543.7552,1150.402,533.7552,1146.402,537.7552" style="stroke:#181818;stroke-width:1.0;"/><line style="stroke:#181818;stroke-width:1.0;" x1="1146.402" x2="1146.402" y1="843.1311" y2="863.1311"/><polygon fill="#181818" points="1142.402,853.1311,1146.402,863.1311,1150.402,853.1311,1146.402,857.1311" style="stroke:#181818;stroke-width:1.0;"/><line style="stroke:#181818;stroke-width:1.0;" x1="1436.2029" x2="1436.2029" y1="683.1307" y2="708.1306"/><polygon fill="#181818" points="1432.2029,698.1306,1436.2029,708.1306,1440.2029,698.1306,1436.2029,702.1306" style="stroke:#181818;stroke-width:1.0;"/><line style="stroke:#181818;stroke-width:1.0;" x1="746.6021" x2="746.6021" y1="318.7549" y2="323.7549"/><line style="stroke:#181818;stroke-width:1.0;" x1="746.6021" x2="459.6021" y1="323.7549" y2="323.7549"/><line style="stroke:#181818;stroke-width:1.0;" x1="459.6021" x2="459.6021" y1="323.7549" y2="338.7549"/><polygon fill="#181818" points="455.6021,328.7549,459.6021,338.7549,463.6021,328.7549,459.6021,332.7549" style="stroke:#181818;stroke-width:1.0;"/><line style="stroke:#181818;stroke-width:1.0;" x1="459.6021" x2="459.6021" y1="468.7551" y2="473.7551"/><line style="stroke:#181818;stroke-width:1.0;" x1="459.6021" x2="1146.402" y1="473.7551" y2="473.7551"/><line style="stroke:#181818;stroke-width:1.0;" x1="1146.402" x2="1146.402" y1="473.7551" y2="488.7551"/><polygon fill="#181818" points="1142.402,478.7551,1146.402,488.7551,1150.402,478.7551,1146.402,482.7551" style="stroke:#181818;stroke-width:1.0;"/><line style="stroke:#181818;stroke-width:1.0;" x1="1146.402" x2="1146.402" y1="593.7554" y2="603.1304"/><line style="stroke:#181818;stroke-width:1.0;" x1="1146.402" x2="1436.2029" y1="603.1304" y2="603.1304"/><line style="stroke:#181818;stroke-width:1.0;" x1="1436.2029" x2="1436.2029" y1="603.1304" y2="618.1304"/><polygon fill="#181818" points="1432.2029,608.1304,1436.2029,618.1304,1440.2029,608.1304,1436.2029,612.1304" style="stroke:#181818;stroke-width:1.0;"/><line style="stroke:#181818;stroke-width:1.0;" x1="1436.2029" x2="1436.2029" y1="773.1309" y2="778.1309"/><line style="stroke:#181818;stroke-width:1.0;" x1="1436.2029" x2="1146.402" y1="778.1309" y2="778.1309"/><line style="stroke:#181818;stroke-width:1.0;" x1="1146.402" x2="1146.402" y1="778.1309" y2="793.1309"/><polygon fill="#181818" points="1142.402,783.1309,1146.402,793.1309,1150.402,783.1309,1146.402,787.1309" style="stroke:#181818;stroke-width:1.0;"/><line style="stroke:#181818;stroke-width:1.0;" x1="1146.402" x2="1146.402" y1="913.1313" y2="922.5062"/><line style="stroke:#181818;stroke-width:1.0;" x1="1146.402" x2="459.6021" y1="922.5062" y2="922.5062"/><line style="stroke:#181818;stroke-width:1.0;" x1="459.6021" x2="459.6021" y1="922.5062" y2="937.5062"/><polygon fill="#181818" points="455.6021,927.5062,459.6021,937.5062,463.6021,927.5062,459.6021,931.5062" style="stroke:#181818;stroke-width:1.0;"/><line style="stroke:#181818;stroke-width:1.0;" x1="459.6021" x2="459.6021" y1="987.5064" y2="992.5064"/><line style="stroke:#181818;stroke-width:1.0;" x1="459.6021" x2="1436.2029" y1="992.5064" y2="992.5064"/><line style="stroke:#181818;stroke-width:1.0;" x1="1436.2029" x2="1436.2029" y1="992.5064" y2="1007.5064"/><polygon fill="#181818" points="1432.2029,997.5064,1436.2029,1007.5064,1440.2029,997.5064,1436.2029,1001.5064" style="stroke:#181818;stroke-width:1.0;"/><line style="stroke:#181818;stroke-width:1.0;" x1="1436.2029" x2="1436.2029" y1="1057.5066" y2="1062.5066"/><line style="stroke:#181818;stroke-width:1.0;" x1="1436.2029" x2="1146.402" y1="1062.5066" y2="1062.5066"/><line style="stroke:#181818;stroke-width:1.0;" x1="1146.402" x2="1146.402" y1="1062.5066" y2="1077.5066"/><polygon fill="#181818" points="1142.402,1067.5066,1146.402,1077.5066,1150.402,1067.5066,1146.402,1071.5066" style="stroke:#181818;stroke-width:1.0;"/><line style="stroke:#181818;stroke-width:1.0;" x1="1146.402" x2="1146.402" y1="1127.5068" y2="1136.8818"/><line style="stroke:#181818;stroke-width:1.0;" x1="1146.402" x2="459.6021" y1="1136.8818" y2="1136.8818"/><line style="stroke:#181818;stroke-width:1.0;" x1="459.6021" x2="459.6021" y1="1136.8818" y2="1151.8818"/><polygon fill="#181818" points="455.6021,1141.8818,459.6021,1151.8818,463.6021,1141.8818,459.6021,1145.8818" style="stroke:#181818;stroke-width:1.0;"/><line style="stroke:#181818;stroke-width:1.0;" x1="459.6021" x2="459.6021" y1="1186.8819" y2="1191.8819"/><line style="stroke:#181818;stroke-width:1.0;" x1="459.6021" x2="255.6007" y1="1191.8819" y2="1191.8819"/><line style="stroke:#181818;stroke-width:1.0;" x1="255.6007" x2="255.6007" y1="1191.8819" y2="1208.7568"/><polygon fill="#181818" points="251.6007,1198.7568,255.6007,1208.7568,259.6007,1198.7568,255.6007,1202.7568" style="stroke:#181818;stroke-width:1.0;"/><line style="stroke:#181818;stroke-width:1.0;" x1="255.6007" x2="255.6007" y1="1243.7569" y2="1260.6319"/><line style="stroke:#181818;stroke-width:1.0;" x1="255.6007" x2="459.6021" y1="1260.6319" y2="1260.6319"/><line style="stroke:#181818;stroke-width:1.0;" x1="459.6021" x2="459.6021" y1="1260.6319" y2="1275.6319"/><polygon fill="#181818" points="455.6021,1265.6319,459.6021,1275.6319,463.6021,1265.6319,459.6021,1269.6319" style="stroke:#181818;stroke-width:1.0;"/><text fill="#000000" font-family="sans-serif" font-size="18" lengthAdjust="spacing" textLength="179.9988" x="91.3012" y="30.9999">&#1059;&#1095;&#1105;&#1085;&#1099;&#1081; &#1089;&#1086;&#1074;&#1077;&#1090; &#1056;&#1059;&#1044;&#1053;</text><text fill="#000000" font-family="sans-serif" font-size="18" lengthAdjust="spacing" textLength="43.1997" x="437.0022" y="30.9999">&#1044;&#1040;&#1053;&#1050;</text><text fill="#000000" font-family="sans-serif" font-size="18" lengthAdjust="spacing" textLength="107.9993" x="689.1025" y="30.9999">&#1057;&#1086;&#1080;&#1089;&#1082;&#1072;&#1090;&#1077;&#1083;&#1100;</text><text fill="#000000" font-family="sans-serif" font-size="18" lengthAdjust="spacing" textLength="248.3983" x="948.5028" y="30.9999">&#1059;&#1095;&#1105;&#1085;&#1099;&#1081; &#1089;&#1086;&#1074;&#1077;&#1090; &#1092;&#1072;&#1082;&#1091;&#1083;&#1100;&#1090;&#1077;&#1090;&#1072;</text><text fill="#000000" font-family="sans-serif" font-size="18" lengthAdjust="spacing" textLength="79.1995" x="1337.7033" y="30.9999">&#1050;&#1072;&#1092;&#1077;&#1076;&#1088;&#1072;</text><!--SRC=[lLLDRn9H55tpViLRreKhToKnyQUOsBWhJOkxMV3HY2aLh75Xcg0qZVifCZ8mCFo5-_wHvzmtRq0SQjNeWi2ykVVSSyyzxnB9hUkvArcvliojQqik4qbSnyfORkM3Z28JuUkTZEIQFsyGa29i8R7hI2APkupCMVFvQTEyF6syEh7o6H5J-IevtXCCaLRMm6pX8NKzMU4OhtaOuosACMAAquNhoXAWAvzgQeS_eQMkuovty4ZTr3PmbM1rKtlybEpkIQopuYV4hn4JFxZQn0Q5wkRe-8LL8Sp1iqVRql4HxG37AzmAu3jSNR-Ek37GPsYwBHc5zd7G7GT8fMBkDPu7TPJOCq1tJeO0neWuAYP5nYkQkIvQyGJOAe6Hdp6UvKT8tT5WXI4PFSo1d18LDRjkODKBvs0_1JEa7pUQHuOG5Yt4P0pkCG1IIKrWMtXWmrTYKyLO1LN4IAutTNmhDEECu4hHkBV8Rljf8TUpCw2NGrmldaeM22RMYuvFOiqJM-H2MF38D4Ejmxx9bNvVgkzJZXx75JD1ZoLbCfpoaknZ27J2pDHBcHjWA8aAbVp9OEafX0_lyGlKA0UENd2hyAGbAGpCBtVkmWr_6BlS8Qu5cXDbeQh4DFqOxhxvX_CkxywXl8S8J6i7Ndb9D0kI6UwKaY-dIyyY9POvxtQ5WIfylbP1fe3DvLiXpR0mGAye5fUz__QGlkW-YrN2kKevqHmrY65RLdVT0bFhgzFI_ohqmnPKzEj_ZMA7KKtt9goQThYmVc9_trcejwURZrlhGIVBYmjMDk1io6na3jjtIRzn11NfsyxYPJrhDaw-0m00]--></g></svg>