<svg xmlns="http://www.w3.org/2000/svg" xmlns:xlink="http://www.w3.org/1999/xlink" contentStyleType="text/css" height="766px" preserveAspectRatio="none" style="width:1016px;height:766px;background:#FFFFFF;" version="1.1" viewBox="0 0 1016 766" width="1016px" zoomAndPan="magnify"><defs/><g><rect fill="none" height="22.4999" style="stroke:none;stroke-width:1.0;" width="983.0061" x="15" y="13.63"/><rect fill="#F1F1F1" height="50.0002" rx="12.5" ry="12.5" style="stroke:#181818;stroke-width:0.5;" width="140.001" x="21" y="314.1302"/><text fill="#000000" font-family="sans-serif" font-size="12" lengthAdjust="spacing" textLength="57.6005" x="31" y="335.7103">&#1055;&#1088;&#1086;&#1074;&#1077;&#1088;&#1082;&#1072;</text><text fill="#000000" font-family="sans-serif" font-size="12" lengthAdjust="spacing" textLength="120.001" x="31" y="350.7104">&#1089;&#1087;&#1080;&#1089;&#1082;&#1072; &#1087;&#1091;&#1073;&#1083;&#1080;&#1082;&#1072;&#1094;&#1080;&#1081;</text><line style="stroke:#000000;stroke-width:1.5;" x1="15" x2="15" y1="13.63" y2="754.5586"/><ellipse cx="403.0024" cy="51.1298" fill="#222222" rx="10" ry="10" style="stroke:#222222;stroke-width:1.0;"/><rect fill="#555555" height="6" rx="2.5" ry="2.5" style="stroke:#555555;stroke-width:1.0;" width="480.8029" x="171.001" y="81.1298"/><rect fill="#F1F1F1" height="50.0002" rx="12.5" ry="12.5" style="stroke:#181818;stroke-width:0.5;" width="99.2006" x="187.801" y="107.1298"/><text fill="#000000" font-family="sans-serif" font-size="12" lengthAdjust="spacing" textLength="72.0006" x="197.801" y="128.7099">&#1055;&#1086;&#1076;&#1075;&#1086;&#1090;&#1086;&#1074;&#1082;&#1072;</text><text fill="#000000" font-family="sans-serif" font-size="12" lengthAdjust="spacing" textLength="79.2006" x="197.801" y="143.71">&#1076;&#1080;&#1089;&#1089;&#1077;&#1088;&#1090;&#1072;&#1094;&#1080;&#1080;</text><rect fill="#F1F1F1" height="50.0002" rx="12.5" ry="12.5" style="stroke:#181818;stroke-width:0.5;" width="108.8007" x="183.001" y="192.13"/><text fill="#000000" font-family="sans-serif" font-size="12" lengthAdjust="spacing" textLength="72.0006" x="193.001" y="213.7101">&#1055;&#1086;&#1076;&#1075;&#1086;&#1090;&#1086;&#1074;&#1082;&#1072;</text><text fill="#000000" font-family="sans-serif" font-size="12" lengthAdjust="spacing" textLength="88.8007" x="193.001" y="228.7102">&#1072;&#1074;&#1090;&#1086;&#1088;&#1077;&#1092;&#1077;&#1088;&#1072;&#1090;&#1072;</text><rect fill="#F1F1F1" height="50.0002" rx="12.5" ry="12.5" style="stroke:#181818;stroke-width:0.5;" width="168.8012" x="303.0017" y="149.6299"/><text fill="#000000" font-family="sans-serif" font-size="12" lengthAdjust="spacing" textLength="122.401" x="313.0017" y="171.21">&#1055;&#1086;&#1076;&#1075;&#1086;&#1090;&#1086;&#1074;&#1082;&#1072; &#1086;&#1090;&#1079;&#1099;&#1074;&#1072;</text><text fill="#000000" font-family="sans-serif" font-size="12" lengthAdjust="spacing" textLength="148.8012" x="313.0017" y="186.2101">&#1085;&#1072;&#1091;&#1095;&#1085;&#1086;&#1075;&#1086; &#1088;&#1091;&#1082;&#1086;&#1074;&#1086;&#1076;&#1080;&#1090;&#1077;&#1083;&#1103;</text><rect fill="#F1F1F1" height="50.0002" rx="12.5" ry="12.5" style="stroke:#181818;stroke-width:0.5;" width="140.001" x="499.8029" y="149.6299"/><text fill="#000000" font-family="sans-serif" font-size="12" lengthAdjust="spacing" textLength="72.0006" x="509.8029" y="171.21">&#1055;&#1086;&#1076;&#1075;&#1086;&#1090;&#1086;&#1074;&#1082;&#1072;</text><text fill="#000000" font-family="sans-serif" font-size="12" lengthAdjust="spacing" textLength="120.001" x="509.8029" y="186.2101">&#1089;&#1087;&#1080;&#1089;&#1082;&#1072; &#1087;&#1091;&#1073;&#1083;&#1080;&#1082;&#1072;&#1094;&#1080;&#1081;</text><rect fill="#555555" height="6" rx="2.5" ry="2.5" style="stroke:#555555;stroke-width:1.0;" width="480.8029" x="171.001" y="262.1302"/><rect fill="#555555" height="6" rx="2.5" ry="2.5" style="stroke:#555555;stroke-width:1.0;" width="415.2027" x="203.801" y="288.1302"/><rect fill="#555555" height="6" rx="2.5" ry="2.5" style="stroke:#555555;stroke-width:1.0;" width="415.2027" x="203.801" y="384.1305"/><rect fill="#F1F1F1" height="50.0002" rx="12.5" ry="12.5" style="stroke:#181818;stroke-width:0.5;" width="183.2013" x="311.4017" y="410.1305"/><text fill="#000000" font-family="sans-serif" font-size="12" lengthAdjust="spacing" textLength="120.001" x="321.4017" y="431.7105">&#1055;&#1086;&#1076;&#1075;&#1086;&#1090;&#1086;&#1074;&#1082;&#1072; &#1086;&#1090;&#1095;&#1105;&#1090;&#1072;</text><text fill="#000000" font-family="sans-serif" font-size="12" lengthAdjust="spacing" textLength="163.2013" x="321.4017" y="446.7106">&#1086; &#1085;&#1072;&#1083;&#1080;&#1095;&#1080;&#1080; &#1079;&#1072;&#1080;&#1084;&#1089;&#1090;&#1074;&#1086;&#1074;&#1072;&#1085;&#1080;&#1081;</text><rect fill="#F1F1F1" height="35.0001" rx="12.5" ry="12.5" style="stroke:#181818;stroke-width:0.5;" width="164.0011" x="321.0018" y="480.1307"/><text fill="#000000" font-family="sans-serif" font-size="12" lengthAdjust="spacing" textLength="144.0011" x="331.0018" y="501.7107">&#1060;&#1080;&#1082;&#1089;&#1072;&#1094;&#1080;&#1103; &#1076;&#1080;&#1089;&#1089;&#1077;&#1088;&#1090;&#1072;&#1094;&#1080;&#1080;</text><rect fill="#F1F1F1" height="50.0002" rx="12.5" ry="12.5" style="stroke:#181818;stroke-width:0.5;" width="166.4012" x="319.8018" y="607.5583"/><text fill="#000000" font-family="sans-serif" font-size="12" lengthAdjust="spacing" textLength="112.8009" x="329.8018" y="629.1384">&#1055;&#1088;&#1086;&#1074;&#1077;&#1088;&#1082;&#1072; &#1085;&#1072;&#1083;&#1080;&#1095;&#1080;&#1103;</text><text fill="#000000" font-family="sans-serif" font-size="12" lengthAdjust="spacing" textLength="146.4012" x="329.8018" y="644.1385">&#1086;&#1089;&#1090;&#1072;&#1083;&#1100;&#1085;&#1099;&#1093; &#1076;&#1086;&#1082;&#1091;&#1084;&#1077;&#1085;&#1090;&#1086;&#1074;</text><rect fill="#F1F1F1" height="35.0001" rx="12.5" ry="12.5" style="stroke:#181818;stroke-width:0.5;" width="202.4014" x="301.8017" y="677.5585"/><text fill="#000000" font-family="sans-serif" font-size="12" lengthAdjust="spacing" textLength="182.4014" x="311.8017" y="699.1386">&#1054;&#1090;&#1087;&#1088;&#1072;&#1074;&#1082;&#1072; &#1076;&#1086;&#1082;&#1091;&#1084;&#1077;&#1085;&#1090;&#1086;&#1074; &#1074; &#1044;&#1040;&#1053;&#1050;</text><ellipse cx="403.0024" cy="743.5586" fill="none" rx="11" ry="11" style="stroke:#222222;stroke-width:1.0;"/><ellipse cx="403.0024" cy="743.5586" fill="#222222" rx="6" ry="6" style="stroke:#222222;stroke-width:1.0;"/><line style="stroke:#000000;stroke-width:1.5;" x1="165.001" x2="165.001" y1="13.63" y2="754.5586"/><rect fill="#F1F1F1" height="35.0001" rx="12.5" ry="12.5" style="stroke:#181818;stroke-width:0.5;" width="236.0017" x="755.4044" y="321.6303"/><text fill="#000000" font-family="sans-serif" font-size="12" lengthAdjust="spacing" textLength="216.0017" x="765.4044" y="343.2104">&#1055;&#1088;&#1086;&#1074;&#1077;&#1088;&#1082;&#1072; &#1076;&#1080;&#1089;&#1089;&#1077;&#1088;&#1090;&#1072;&#1094;&#1080;&#1080; &#1085;&#1072; &#1087;&#1083;&#1072;&#1075;&#1080;&#1072;&#1090;</text><rect fill="#F1F1F1" height="35.0001" rx="12.5" ry="12.5" style="stroke:#181818;stroke-width:0.5;" width="255.2019" x="661.8038" y="552.5582"/><text fill="#000000" font-family="sans-serif" font-size="12" lengthAdjust="spacing" textLength="235.2019" x="671.8038" y="574.1383">&#1055;&#1086;&#1076;&#1075;&#1086;&#1090;&#1086;&#1074;&#1082;&#1072; &#1079;&#1072;&#1082;&#1083;&#1102;&#1095;&#1077;&#1085;&#1080;&#1103; &#1086;&#1088;&#1075;&#1072;&#1085;&#1080;&#1079;&#1072;&#1094;&#1080;&#1080;</text><line style="stroke:#000000;stroke-width:1.5;" x1="655.8038" x2="655.8038" y1="13.63" y2="754.5586"/><line style="stroke:#000000;stroke-width:1.5;" x1="995.4061" x2="995.4061" y1="13.63" y2="754.5586"/><line style="stroke:#181818;stroke-width:1.0;" x1="237.4013" x2="237.4013" y1="157.13" y2="192.13"/><polygon fill="#181818" points="233.4013,182.13,237.4013,192.13,241.4013,182.13,237.4013,186.13" style="stroke:#181818;stroke-width:1.0;"/><line style="stroke:#181818;stroke-width:1.0;" x1="237.4013" x2="237.4013" y1="87.1298" y2="107.1298"/><polygon fill="#181818" points="233.4013,97.1298,237.4013,107.1298,241.4013,97.1298,237.4013,101.1298" style="stroke:#181818;stroke-width:1.0;"/><line style="stroke:#181818;stroke-width:1.0;" x1="387.4023" x2="387.4023" y1="87.1298" y2="149.6299"/><polygon fill="#181818" points="383.4023,139.6299,387.4023,149.6299,391.4023,139.6299,387.4023,143.6299" style="stroke:#181818;stroke-width:1.0;"/><line style="stroke:#181818;stroke-width:1.0;" x1="569.8033" x2="569.8033" y1="87.1298" y2="149.6299"/><polygon fill="#181818" points="565.8033,139.6299,569.8033,149.6299,573.8033,139.6299,569.8033,143.6299" style="stroke:#181818;stroke-width:1.0;"/><line style="stroke:#181818;stroke-width:1.0;" x1="237.4013" x2="237.4013" y1="242.1302" y2="262.1302"/><polygon fill="#181818" points="233.4013,252.1302,237.4013,262.1302,241.4013,252.1302,237.4013,256.1302" style="stroke:#181818;stroke-width:1.0;"/><line style="stroke:#181818;stroke-width:1.0;" x1="387.4023" x2="387.4023" y1="199.6301" y2="262.1302"/><polygon fill="#181818" points="383.4023,252.1302,387.4023,262.1302,391.4023,252.1302,387.4023,256.1302" style="stroke:#181818;stroke-width:1.0;"/><line style="stroke:#181818;stroke-width:1.0;" x1="569.8033" x2="569.8033" y1="199.6301" y2="262.1302"/><polygon fill="#181818" points="565.8033,252.1302,569.8033,262.1302,573.8033,252.1302,569.8033,256.1302" style="stroke:#181818;stroke-width:1.0;"/><line style="stroke:#181818;stroke-width:1.0;" x1="403.0024" x2="403.0024" y1="61.1298" y2="81.1298"/><polygon fill="#181818" points="399.0024,71.1298,403.0024,81.1298,407.0024,71.1298,403.0024,75.1298" style="stroke:#181818;stroke-width:1.0;"/><line style="stroke:#181818;stroke-width:1.0;" x1="403.0024" x2="403.0024" y1="268.1302" y2="288.1302"/><polygon fill="#181818" points="399.0024,278.1302,403.0024,288.1302,407.0024,278.1302,403.0024,282.1302" style="stroke:#181818;stroke-width:1.0;"/><line style="stroke:#181818;stroke-width:1.0;" x1="403.0024" x2="403.0024" y1="390.1305" y2="410.1305"/><polygon fill="#181818" points="399.0024,400.1305,403.0024,410.1305,407.0024,400.1305,403.0024,404.1305" style="stroke:#181818;stroke-width:1.0;"/><line style="stroke:#181818;stroke-width:1.0;" x1="403.0024" x2="403.0024" y1="460.1307" y2="480.1307"/><polygon fill="#181818" points="399.0024,470.1307,403.0024,480.1307,407.0024,470.1307,403.0024,474.1307" style="stroke:#181818;stroke-width:1.0;"/><line style="stroke:#181818;stroke-width:1.0;" x1="403.0024" x2="403.0024" y1="657.5585" y2="677.5585"/><polygon fill="#181818" points="399.0024,667.5585,403.0024,677.5585,407.0024,667.5585,403.0024,671.5585" style="stroke:#181818;stroke-width:1.0;"/><line style="stroke:#181818;stroke-width:1.0;" x1="403.0024" x2="403.0024" y1="712.5586" y2="732.5586"/><polygon fill="#181818" points="399.0024,722.5586,403.0024,732.5586,407.0024,722.5586,403.0024,726.5586" style="stroke:#181818;stroke-width:1.0;"/><line style="stroke:#181818;stroke-width:1.0;" x1="287.8015" x2="287.8015" y1="294.1302" y2="298.1302"/><line style="stroke:#181818;stroke-width:1.0;" x1="287.8015" x2="91.0005" y1="298.1302" y2="298.1302"/><line style="stroke:#181818;stroke-width:1.0;" x1="91.0005" x2="91.0005" y1="298.1302" y2="314.1302"/><polygon fill="#181818" points="87.0005,304.1302,91.0005,314.1302,95.0005,304.1302,91.0005,308.1302" style="stroke:#181818;stroke-width:1.0;"/><line style="stroke:#181818;stroke-width:1.0;" x1="487.0029" x2="487.0029" y1="294.1302" y2="298.1302"/><line style="stroke:#181818;stroke-width:1.0;" x1="487.0029" x2="873.4052" y1="298.1302" y2="298.1302"/><line style="stroke:#181818;stroke-width:1.0;" x1="873.4052" x2="873.4052" y1="298.1302" y2="321.6303"/><polygon fill="#181818" points="869.4052,311.6303,873.4052,321.6303,877.4052,311.6303,873.4052,315.6303" style="stroke:#181818;stroke-width:1.0;"/><line style="stroke:#181818;stroke-width:1.0;" x1="91.0005" x2="91.0005" y1="364.1305" y2="370.1305"/><line style="stroke:#181818;stroke-width:1.0;" x1="91.0005" x2="287.8015" y1="370.1305" y2="370.1305"/><line style="stroke:#181818;stroke-width:1.0;" x1="287.8015" x2="287.8015" y1="370.1305" y2="384.1305"/><polygon fill="#181818" points="283.8015,374.1305,287.8015,384.1305,291.8015,374.1305,287.8015,378.1305" style="stroke:#181818;stroke-width:1.0;"/><line style="stroke:#181818;stroke-width:1.0;" x1="873.4052" x2="873.4052" y1="356.6304" y2="370.1305"/><line style="stroke:#181818;stroke-width:1.0;" x1="873.4052" x2="487.0029" y1="370.1305" y2="370.1305"/><line style="stroke:#181818;stroke-width:1.0;" x1="487.0029" x2="487.0029" y1="370.1305" y2="384.1305"/><polygon fill="#181818" points="483.0029,374.1305,487.0029,384.1305,491.0029,374.1305,487.0029,378.1305" style="stroke:#181818;stroke-width:1.0;"/><line style="stroke:#181818;stroke-width:1.0;" x1="403.0024" x2="403.0024" y1="515.1308" y2="537.5582"/><line style="stroke:#181818;stroke-width:1.0;" x1="403.0024" x2="789.4048" y1="537.5582" y2="537.5582"/><line style="stroke:#181818;stroke-width:1.0;" x1="789.4048" x2="789.4048" y1="537.5582" y2="552.5582"/><polygon fill="#181818" points="785.4048,542.5582,789.4048,552.5582,793.4048,542.5582,789.4048,546.5582" style="stroke:#181818;stroke-width:1.0;"/><text fill="#000000" font-family="sans-serif" font-size="11" lengthAdjust="spacing" textLength="160.5987" x="407.0024" y="531.0582">&#1042;&#1099;&#1087;&#1080;&#1089;&#1082;&#1080; &#1080;&#1079; &#1091;&#1095;&#1105;&#1085;&#1086;&#1075;&#1086; &#1089;&#1086;&#1074;&#1077;&#1090;&#1072;</text><line style="stroke:#181818;stroke-width:1.0;" x1="789.4048" x2="789.4048" y1="587.5583" y2="592.5583"/><line style="stroke:#181818;stroke-width:1.0;" x1="789.4048" x2="403.0024" y1="592.5583" y2="592.5583"/><line style="stroke:#181818;stroke-width:1.0;" x1="403.0024" x2="403.0024" y1="592.5583" y2="607.5583"/><polygon fill="#181818" points="399.0024,597.5583,403.0024,607.5583,407.0024,597.5583,403.0024,601.5583" style="stroke:#181818;stroke-width:1.0;"/><text fill="#000000" font-family="sans-serif" font-size="18" lengthAdjust="spacing" textLength="32.3998" x="73.8006" y="30.9999">&#1053;&#1048;&#1063;</text><text fill="#000000" font-family="sans-serif" font-size="18" lengthAdjust="spacing" textLength="107.9993" x="356.4028" y="30.9999">&#1057;&#1086;&#1080;&#1089;&#1082;&#1072;&#1090;&#1077;&#1083;&#1100;</text><text fill="#000000" font-family="sans-serif" font-size="18" lengthAdjust="spacing" textLength="79.1995" x="786.0052" y="30.9999">&#1050;&#1072;&#1092;&#1077;&#1076;&#1088;&#1072;</text><!--SRC=[ZLFBJi9G5DptA-uF-0CqyKlODF4HOr8Cikm2gCe20s9S618r9YPkAz2qyhZymZb_vCo52WbjD265SpjdpioSIoGlyYoVaHV9krZ9jIDpIRGhgIpqdiTZb3SePzgMf19ttGgQBU-iqRpqQl86n4ocOl7UoeJ8UeWJTA4lrJRE4xsJN7A_4fx8X3McffpFwMpptH0Jd0SNONclSKMcVPGaMg4nrXw-BO46usFWYBPErCR4y6_cUWZvwyAyaJM8lcG17_Ejds_VEmrFZCl1FQ8YNn320ebevRzaUueEDd70QCeZDam0_E1Eu2TdZdxL7d_LLqUhFHsH7T5QnqtHoDUDob3cieIAhiiNAm34UQd91yrXeXEcGrDr9OwEvH7hAy81RIwPuH9rj5jZP-lTNOgoTChqKzySLWSGd58PPV2IJRT2ivsCYeXASjyBGOVCnVbFY9ULzlMMLYsynxBas8qYHlAAdsigBWIMu0m_J_A0gpJsyKzhNFq0]--></g></svg>