<svg xmlns="http://www.w3.org/2000/svg" xmlns:xlink="http://www.w3.org/1999/xlink" contentStyleType="text/css" height="493px" preserveAspectRatio="none" style="width:1145px;height:493px;background:#FFFFFF;" version="1.1" viewBox="0 0 1145 493" width="1145px" zoomAndPan="magnify"><defs/><g><rect fill="none" height="22.4999" style="stroke:none;stroke-width:1.0;" width="1112.8023" x="15" y="13.63"/><ellipse cx="220.3001" cy="51.1298" fill="#F1F1F1" rx="10" ry="10" style="stroke:#181818;stroke-width:0.5;"/><path d="M220.722,56.1298 L218.3626,56.1298 L218.3626,47.3173 L220.722,47.3173 Q221.0501,47.3173 221.3626,47.3642 Q221.6907,47.4111 221.9876,47.5517 Q222.2845,47.6767 222.5501,47.8798 Q222.8157,48.083 222.972,48.3798 Q223.1439,48.6611 223.2064,48.9892 Q223.2689,49.3017 223.2689,49.6455 Q223.2689,49.9267 223.2064,50.2236 Q223.1595,50.5205 223.0032,50.7861 Q222.847,51.0361 222.6126,51.2236 Q222.3782,51.4111 222.097,51.5361 Q222.4407,51.6455 222.7376,51.8486 Q223.0345,52.0361 223.2376,52.3173 Q223.4564,52.5986 223.5501,52.958 Q223.6439,53.3017 223.6439,53.6455 Q223.6439,54.0048 223.5501,54.3642 Q223.472,54.7236 223.2689,55.0361 Q223.0657,55.333 222.7689,55.5517 Q222.472,55.7705 222.1282,55.9111 Q221.8001,56.0361 221.4407,56.083 Q221.0814,56.1298 220.722,56.1298 Z M219.347,51.1298 L220.722,51.1298 Q220.9251,51.1298 221.1126,51.0986 Q221.3157,51.0517 221.5032,50.9736 Q221.6907,50.8798 221.847,50.7548 Q222.0032,50.6142 222.097,50.4423 Q222.2064,50.2548 222.2376,50.0517 Q222.2845,49.8486 222.2845,49.6455 Q222.2845,49.4423 222.2376,49.2548 Q222.2064,49.0517 222.097,48.8798 Q222.0032,48.6923 221.847,48.5517 Q221.6907,48.4111 221.5032,48.333 Q221.3157,48.2548 221.1126,48.2236 Q220.9251,48.1923 220.722,48.1923 L219.347,48.1923 L219.347,51.1298 Z M219.347,55.2392 L220.722,55.2392 Q220.9564,55.2392 221.1907,55.208 Q221.4251,55.1767 221.6439,55.0986 Q221.8782,55.0205 222.0657,54.8798 Q222.2689,54.7236 222.3939,54.5361 Q222.5345,54.3486 222.5814,54.1142 Q222.6439,53.8642 222.6439,53.6298 Q222.6439,53.3955 222.5814,53.1611 Q222.5345,52.9111 222.3939,52.7236 Q222.2689,52.5205 222.0657,52.3798 Q221.8782,52.2236 221.6439,52.1455 Q221.4251,52.0673 221.1907,52.0361 Q220.9564,52.0048 220.722,52.0048 L219.347,52.0048 L219.347,55.2392 Z " fill="#000000"/><polygon fill="#F1F1F1" points="184.0004,81.1298,256.5998,81.1298,268.5998,93.1298,256.5998,105.1298,184.0004,105.1298,172.0004,93.1298,184.0004,81.1298" style="stroke:#181818;stroke-width:0.5;"/><text fill="#000000" font-family="sans-serif" font-size="11" lengthAdjust="spacing" textLength="72.5994" x="184.0004" y="96.8698">&#1055;&#1086;&#1083;&#1091;&#1095;&#1072;&#1090;&#1077;&#1083;&#1100;?</text><text fill="#000000" font-family="sans-serif" font-size="11" lengthAdjust="spacing" textLength="65.9995" x="106.001" y="89.9948">&#1057;&#1086;&#1080;&#1089;&#1082;&#1072;&#1090;&#1077;&#1083;&#1100;</text><text fill="#000000" font-family="sans-serif" font-size="11" lengthAdjust="spacing" textLength="32.9997" x="268.5998" y="89.9948">&#1057;&#1086;&#1074;&#1077;&#1090;</text><rect fill="#F1F1F1" height="50.0002" rx="12.5" ry="12.5" style="stroke:#181818;stroke-width:0.5;" width="70.4004" x="21" y="125.1298"/><text fill="#000000" font-family="sans-serif" font-size="12" lengthAdjust="spacing" textLength="45.6004" x="31" y="146.7099">&#1042;&#1099;&#1076;&#1072;&#1090;&#1100;</text><text fill="#000000" font-family="sans-serif" font-size="12" lengthAdjust="spacing" textLength="50.4004" x="31" y="161.71">&#1089;&#1087;&#1088;&#1072;&#1074;&#1082;&#1091;</text><rect fill="#F1F1F1" height="50.0002" rx="12.5" ry="12.5" style="stroke:#181818;stroke-width:0.5;" width="101.6006" x="311.5995" y="125.1298"/><text fill="#000000" font-family="sans-serif" font-size="12" lengthAdjust="spacing" textLength="64.8005" x="321.5995" y="146.7099">&#1056;&#1072;&#1079;&#1086;&#1089;&#1083;&#1072;&#1090;&#1100;</text><text fill="#000000" font-family="sans-serif" font-size="12" lengthAdjust="spacing" textLength="81.6006" x="321.5995" y="161.71">&#1076;&#1080;&#1089;&#1089;&#1077;&#1088;&#1090;&#1072;&#1094;&#1080;&#1102;</text><line style="stroke:#000000;stroke-width:1.5;" x1="15" x2="15" y1="13.63" y2="481.464"/><rect fill="#F1F1F1" height="35.0001" rx="12.5" ry="12.5" style="stroke:#181818;stroke-width:0.5;" width="132.8009" x="482.6005" y="237.6298"/><text fill="#000000" font-family="sans-serif" font-size="12" lengthAdjust="spacing" textLength="112.8009" x="492.6005" y="259.2099">&#1055;&#1086;&#1083;&#1091;&#1095;&#1080;&#1090;&#1100; &#1089;&#1087;&#1088;&#1072;&#1074;&#1082;&#1091;</text><path d="M422.2002,288.255 L422.2002,347.0051 A0,0 0 0 0 422.2002,347.0051 L613.5003,347.0051 A0,0 0 0 0 613.5003,347.0051 L613.5003,321.63 L633.5003,317.63 L613.5003,313.63 L613.5003,298.255 L603.5003,288.255 L422.2002,288.255 A0,0 0 0 0 422.2002,288.255 " fill="#FEFFDD" style="stroke:#181818;stroke-width:0.5;"/><path d="M603.5003,288.255 L603.5003,298.255 L613.5003,298.255 L603.5003,288.255 " fill="#FEFFDD" style="stroke:#181818;stroke-width:0.5;"/><text fill="#000000" font-family="sans-serif" font-size="13" lengthAdjust="spacing" textLength="123.5001" x="428.2002" y="305.8">- &#1057;&#1087;&#1088;&#1072;&#1074;&#1082;&#1072; &#1086; &#1089;&#1076;&#1072;&#1095;&#1077;</text><text fill="#000000" font-family="sans-serif" font-size="13" lengthAdjust="spacing" textLength="130.0001" x="438.6002" y="322.05">&#1076;&#1086;&#1082;&#1091;&#1084;&#1077;&#1085;&#1090;&#1086;&#1074; &#1074; &#1044;&#1040;&#1053;&#1050;</text><text fill="#000000" font-family="sans-serif" font-size="13" lengthAdjust="spacing" textLength="170.3001" x="428.2002" y="338.3001">- &#1054;&#1088;&#1080;&#1075;&#1080;&#1085;&#1072;&#1083;&#1099; &#1076;&#1086;&#1082;&#1091;&#1084;&#1077;&#1085;&#1090;&#1086;&#1074;</text><rect fill="#F1F1F1" height="50.0002" rx="12.5" ry="12.5" style="stroke:#181818;stroke-width:0.5;" width="159.2011" x="633.5003" y="292.6299"/><text fill="#000000" font-family="sans-serif" font-size="12" lengthAdjust="spacing" textLength="139.2011" x="643.5003" y="314.21">&#1054;&#1090;&#1087;&#1088;&#1072;&#1074;&#1080;&#1090;&#1100; &#1076;&#1086;&#1082;&#1091;&#1084;&#1077;&#1085;&#1090;&#1099;</text><text fill="#000000" font-family="sans-serif" font-size="12" lengthAdjust="spacing" textLength="67.2005" x="643.5003" y="329.2101">&#1057;&#1077;&#1082;&#1088;&#1077;&#1090;&#1072;&#1088;&#1102;</text><line style="stroke:#000000;stroke-width:1.5;" x1="417.2002" x2="417.2002" y1="13.63" y2="481.464"/><path d="M833.8013,210.13 L833.8013,252.6301 A0,0 0 0 0 833.8013,252.6301 L958.8014,252.6301 A0,0 0 0 0 958.8014,252.6301 L958.8014,235.3801 L978.8014,231.3801 L958.8014,227.3801 L958.8014,220.13 L948.8014,210.13 L833.8013,210.13 A0,0 0 0 0 833.8013,210.13 " fill="#FEFFDD" style="stroke:#181818;stroke-width:0.5;"/><path d="M948.8014,210.13 L948.8014,220.13 L958.8014,220.13 L948.8014,210.13 " fill="#FEFFDD" style="stroke:#181818;stroke-width:0.5;"/><text fill="#000000" font-family="sans-serif" font-size="13" lengthAdjust="spacing" textLength="104" x="839.8013" y="227.675">&#1047;&#1072;&#1092;&#1080;&#1082;&#1089;&#1080;&#1088;&#1086;&#1074;&#1072;&#1090;&#1100;</text><text fill="#000000" font-family="sans-serif" font-size="13" lengthAdjust="spacing" textLength="101.4001" x="839.8013" y="243.9251">&#1076;&#1072;&#1090;&#1091; &#1088;&#1072;&#1089;&#1089;&#1099;&#1083;&#1082;&#1080;</text><rect fill="#F1F1F1" height="35.0001" rx="12.5" ry="12.5" style="stroke:#181818;stroke-width:0.5;" width="142.401" x="978.8014" y="213.88"/><text fill="#000000" font-family="sans-serif" font-size="12" lengthAdjust="spacing" textLength="122.401" x="988.8014" y="235.4601">&#1055;&#1086;&#1083;&#1091;&#1095;&#1080;&#1090;&#1100; &#1088;&#1072;&#1089;&#1089;&#1099;&#1083;&#1082;&#1091;</text><rect fill="#F1F1F1" height="50.0002" rx="12.5" ry="12.5" style="stroke:#181818;stroke-width:0.5;" width="166.4012" x="802.7014" y="391.4637"/><text fill="#000000" font-family="sans-serif" font-size="12" lengthAdjust="spacing" textLength="57.6005" x="812.7014" y="413.0438">&#1055;&#1086;&#1083;&#1091;&#1095;&#1080;&#1090;&#1100;</text><text fill="#000000" font-family="sans-serif" font-size="12" lengthAdjust="spacing" textLength="146.4012" x="812.7014" y="428.0439">&#1086;&#1088;&#1080;&#1075;&#1080;&#1085;&#1072;&#1083;&#1099; &#1076;&#1086;&#1082;&#1091;&#1084;&#1077;&#1085;&#1090;&#1086;&#1074;</text><ellipse cx="885.9019" cy="471.464" fill="#F1F1F1" rx="10" ry="10" style="stroke:#181818;stroke-width:0.5;"/><path d="M885.9644,476.5577 Q885.6207,476.5577 885.2769,476.4952 Q884.9332,476.4327 884.6207,476.2921 Q884.3082,476.1358 884.0582,475.9015 Q883.8082,475.6515 883.6363,475.3546 Q883.4801,475.0421 883.4176,474.6983 Q883.3551,474.3546 883.3551,474.0108 L883.3551,470.1046 Q883.3551,469.7608 883.4176,469.4171 Q883.4801,469.0733 883.6363,468.7765 Q883.8082,468.464 884.0582,468.214 Q884.3082,467.964 884.6207,467.8233 Q884.9332,467.6671 885.2769,467.6046 Q885.6207,467.5421 885.9644,467.5421 Q886.2926,467.5421 886.6051,467.589 Q886.9332,467.6358 887.2301,467.7608 Q887.5269,467.8702 887.7769,468.0733 Q888.0426,468.2608 888.2144,468.5421 Q888.3863,468.8077 888.4801,469.1202 Q888.5738,469.4327 888.5738,469.7608 L888.5738,469.8077 L887.5738,469.8077 L887.5738,469.7608 Q887.5738,469.4796 887.4488,469.214 Q887.3238,468.9327 887.0894,468.7608 Q886.8551,468.5733 886.5582,468.5108 Q886.2613,468.4327 885.9644,468.4327 Q885.7457,468.4327 885.5269,468.4796 Q885.3082,468.5108 885.1051,468.6202 Q884.9176,468.7296 884.7613,468.8858 Q884.6051,469.0421 884.5113,469.2452 Q884.4332,469.4483 884.3863,469.6671 Q884.3551,469.8702 884.3551,470.1046 L884.3551,474.0108 Q884.3551,474.2296 884.3863,474.4483 Q884.4332,474.6671 884.5113,474.8702 Q884.6051,475.0577 884.7613,475.2296 Q884.9176,475.3858 885.1051,475.4952 Q885.3082,475.6046 885.5269,475.6358 Q885.7457,475.6671 885.9644,475.6671 Q886.2613,475.6671 886.5582,475.6046 Q886.8551,475.5421 887.0894,475.3702 Q887.3238,475.1827 887.4488,474.9015 Q887.5738,474.6202 887.5738,474.339 L887.5738,474.3077 L888.5738,474.3077 L888.5738,474.3546 Q888.5738,474.6827 888.4801,474.9952 Q888.3863,475.3077 888.2144,475.5733 Q888.0426,475.839 887.7769,476.0421 Q887.5269,476.2296 887.2301,476.3546 Q886.9332,476.4796 886.6051,476.5108 Q886.2926,476.5577 885.9644,476.5577 Z " fill="#000000"/><line style="stroke:#000000;stroke-width:1.5;" x1="796.7014" x2="796.7014" y1="13.63" y2="481.464"/><line style="stroke:#000000;stroke-width:1.5;" x1="1125.2023" x2="1125.2023" y1="13.63" y2="481.464"/><line style="stroke:#181818;stroke-width:1.0;" x1="172.0004" x2="56.2002" y1="93.1298" y2="93.1298"/><line style="stroke:#181818;stroke-width:1.0;" x1="56.2002" x2="56.2002" y1="93.1298" y2="125.1298"/><polygon fill="#181818" points="52.2002,115.1298,56.2002,125.1298,60.2002,115.1298,56.2002,119.1298" style="stroke:#181818;stroke-width:1.0;"/><line style="stroke:#181818;stroke-width:1.0;" x1="268.5998" x2="362.3999" y1="93.1298" y2="93.1298"/><line style="stroke:#181818;stroke-width:1.0;" x1="362.3999" x2="362.3999" y1="93.1298" y2="125.1298"/><polygon fill="#181818" points="358.3999,115.1298,362.3999,125.1298,366.3999,115.1298,362.3999,119.1298" style="stroke:#181818;stroke-width:1.0;"/><line style="stroke:#181818;stroke-width:1.0;" x1="220.3001" x2="220.3001" y1="61.1298" y2="81.1298"/><polygon fill="#181818" points="216.3001,71.1298,220.3001,81.1298,224.3001,71.1298,220.3001,75.1298" style="stroke:#181818;stroke-width:1.0;"/><line style="stroke:#181818;stroke-width:1.0;" x1="885.9019" x2="885.9019" y1="441.464" y2="461.464"/><polygon fill="#181818" points="881.9019,451.464,885.9019,461.464,889.9019,451.464,885.9019,455.464" style="stroke:#181818;stroke-width:1.0;"/><line style="stroke:#181818;stroke-width:1.0;" x1="56.2002" x2="56.2002" y1="175.13" y2="206.3799"/><line style="stroke:#181818;stroke-width:1.0;" x1="56.2002" x2="549.0009" y1="206.3799" y2="206.3799"/><line style="stroke:#181818;stroke-width:1.0;" x1="549.0009" x2="549.0009" y1="206.3799" y2="237.6298"/><polygon fill="#181818" points="545.0009,227.6298,549.0009,237.6298,553.0009,227.6298,549.0009,231.6298" style="stroke:#181818;stroke-width:1.0;"/><text fill="#000000" font-family="sans-serif" font-size="11" lengthAdjust="spacing" textLength="87.9993" x="60.2002" y="187.62">&#1055;&#1086;&#1076;&#1090;&#1074;&#1077;&#1088;&#1078;&#1076;&#1077;&#1085;&#1080;&#1077;</text><text fill="#000000" font-family="sans-serif" font-size="11" lengthAdjust="spacing" textLength="52.7996" x="77.8001" y="201.3699">&#1087;&#1088;&#1080;&#1085;&#1103;&#1090;&#1080;&#1103;</text><line style="stroke:#181818;stroke-width:1.0;" x1="362.3999" x2="362.3999" y1="175.13" y2="194.505"/><line style="stroke:#181818;stroke-width:1.0;" x1="362.3999" x2="1050.0019" y1="194.505" y2="194.505"/><line style="stroke:#181818;stroke-width:1.0;" x1="1050.0019" x2="1050.0019" y1="194.505" y2="213.88"/><polygon fill="#181818" points="1046.0019,203.88,1050.0019,213.88,1054.0019,203.88,1050.0019,207.88" style="stroke:#181818;stroke-width:1.0;"/><line style="stroke:#181818;stroke-width:1.0;" x1="549.0009" x2="549.0009" y1="272.6299" y2="277.6299"/><line style="stroke:#181818;stroke-width:1.0;" x1="549.0009" x2="713.1008" y1="277.6299" y2="277.6299"/><line style="stroke:#181818;stroke-width:1.0;" x1="713.1008" x2="713.1008" y1="277.6299" y2="292.6299"/><polygon fill="#181818" points="709.1008,282.6299,713.1008,292.6299,717.1008,282.6299,713.1008,286.6299" style="stroke:#181818;stroke-width:1.0;"/><line style="stroke:#181818;stroke-width:1.0;" x1="713.1008" x2="713.1008" y1="342.6301" y2="376.0675"/><line style="stroke:#181818;stroke-width:1.0;" x1="713.1008" x2="885.9019" y1="376.0675" y2="376.0675"/><line style="stroke:#181818;stroke-width:1.0;" x1="885.9019" x2="885.9019" y1="376.0675" y2="391.4637"/><polygon fill="#181818" points="881.9019,381.4637,885.9019,391.4637,889.9019,381.4637,885.9019,385.4637" style="stroke:#181818;stroke-width:1.0;"/><text fill="#000000" font-family="sans-serif" font-size="11" lengthAdjust="spacing" textLength="61.5995" x="717.1008" y="356.2138">&#1054;&#1088;&#1080;&#1075;&#1080;&#1085;&#1072;&#1083;&#1099;</text><text fill="#000000" font-family="sans-serif" font-size="11" lengthAdjust="spacing" textLength="68.1994" x="717.1008" y="369.9637">&#1076;&#1086;&#1082;&#1091;&#1084;&#1077;&#1085;&#1090;&#1086;&#1074;</text><text fill="#000000" font-family="sans-serif" font-size="18" lengthAdjust="spacing" textLength="43.1997" x="194.5002" y="30.9999">&#1044;&#1040;&#1053;&#1050;</text><text fill="#000000" font-family="sans-serif" font-size="18" lengthAdjust="spacing" textLength="107.9993" x="552.9511" y="30.9999">&#1057;&#1086;&#1080;&#1089;&#1082;&#1072;&#1090;&#1077;&#1083;&#1100;</text><text fill="#000000" font-family="sans-serif" font-size="18" lengthAdjust="spacing" textLength="97.1993" x="912.3522" y="30.9999">&#1057;&#1077;&#1082;&#1088;&#1077;&#1090;&#1072;&#1088;&#1100;</text><!--SRC=[ZLBDJi904BxFK-oH7dW1csYYhsA9H887EVQ0rCW10iQOc9Y8-WODKjrGgQ_mxHlvpL9eKY2XsSFkp7m_CzCOptZ46rvZQPm7qcwP1jvH87U96o9r0sIyZyy2qxkAkan-CcdT7PPLCf0JFBaH5XfoOs7sp_MHOewbIq9fdXhFkI1WZeofRzPcMC4Y4yFFrrkit9Gbrar3YVS9nHIgp5aLCtMnk6eewjn6fMEL7QZF3rR-e20gBztI2cKOe34AfUw1xydQGKREla8PxX_GfxR2sN- -Tj2zwKM25uRlsTEIp9P5wc4hg9Ua1eMLg7jfFFgwtUduLxjrU18pFZQjhxsGkL0F-DNfCZIIdIOcfS6cOMexEQG6XSvIlGtzLkfase7HKyvN6MP-RL-wElBaRhGNLVMbVy8EHlPXZfs_S9V7U0YbSH7y0m00]--></g></svg>