<svg xmlns="http://www.w3.org/2000/svg" xmlns:xlink="http://www.w3.org/1999/xlink" contentStyleType="text/css" height="245px" preserveAspectRatio="none" style="width:881px;height:245px;background:#FFFFFF;" version="1.1" viewBox="0 0 881 245" width="881px" zoomAndPan="magnify"><defs/><g><line style="stroke:#C0C0C0;stroke-width:1.0;" x1="0" x2="0" y1="6" y2="236.9988"/><line style="stroke:#C0C0C0;stroke-width:1.0;" x1="56" x2="56" y1="6" y2="236.9988"/><line style="stroke:#C0C0C0;stroke-width:1.0;" x1="112" x2="112" y1="6" y2="236.9988"/><line style="stroke:#C0C0C0;stroke-width:1.0;" x1="168" x2="168" y1="6" y2="236.9988"/><line style="stroke:#C0C0C0;stroke-width:1.0;" x1="224" x2="224" y1="6" y2="236.9988"/><line style="stroke:#C0C0C0;stroke-width:1.0;" x1="280" x2="280" y1="6" y2="236.9988"/><line style="stroke:#C0C0C0;stroke-width:1.0;" x1="336" x2="336" y1="6" y2="236.9988"/><line style="stroke:#C0C0C0;stroke-width:1.0;" x1="392" x2="392" y1="6" y2="236.9988"/><line style="stroke:#C0C0C0;stroke-width:1.0;" x1="448" x2="448" y1="6" y2="236.9988"/><line style="stroke:#C0C0C0;stroke-width:1.0;" x1="504" x2="504" y1="6" y2="236.9988"/><line style="stroke:#C0C0C0;stroke-width:1.0;" x1="560" x2="560" y1="6" y2="236.9988"/><line style="stroke:#C0C0C0;stroke-width:1.0;" x1="616" x2="616" y1="6" y2="236.9988"/><line style="stroke:#C0C0C0;stroke-width:1.0;" x1="672" x2="672" y1="6" y2="236.9988"/><line style="stroke:#C0C0C0;stroke-width:1.0;" x1="728" x2="728" y1="6" y2="236.9988"/><line style="stroke:#C0C0C0;stroke-width:1.0;" x1="784" x2="784" y1="6" y2="236.9988"/><line style="stroke:#C0C0C0;stroke-width:1.0;" x1="840" x2="840" y1="6" y2="236.9988"/><text fill="#000000" font-family="sans-serif" font-size="10" lengthAdjust="spacing" textLength="6" x="25" y="9.65">1</text><text fill="#000000" font-family="sans-serif" font-size="10" lengthAdjust="spacing" textLength="6" x="81" y="9.65">2</text><text fill="#000000" font-family="sans-serif" font-size="10" lengthAdjust="spacing" textLength="6" x="137" y="9.65">3</text><text fill="#000000" font-family="sans-serif" font-size="10" lengthAdjust="spacing" textLength="6" x="193" y="9.65">4</text><text fill="#000000" font-family="sans-serif" font-size="10" lengthAdjust="spacing" textLength="6" x="249" y="9.65">5</text><text fill="#000000" font-family="sans-serif" font-size="10" lengthAdjust="spacing" textLength="6" x="305" y="9.65">6</text><text fill="#000000" font-family="sans-serif" font-size="10" lengthAdjust="spacing" textLength="6" x="361" y="9.65">7</text><text fill="#000000" font-family="sans-serif" font-size="10" lengthAdjust="spacing" textLength="6" x="417" y="9.65">8</text><text fill="#000000" font-family="sans-serif" font-size="10" lengthAdjust="spacing" textLength="6" x="473" y="9.65">9</text><text fill="#000000" font-family="sans-serif" font-size="10" lengthAdjust="spacing" textLength="12" x="526" y="9.65">10</text><text fill="#000000" font-family="sans-serif" font-size="10" lengthAdjust="spacing" textLength="12" x="582" y="9.65">11</text><text fill="#000000" font-family="sans-serif" font-size="10" lengthAdjust="spacing" textLength="12" x="638" y="9.65">12</text><text fill="#000000" font-family="sans-serif" font-size="10" lengthAdjust="spacing" textLength="12" x="694" y="9.65">13</text><text fill="#000000" font-family="sans-serif" font-size="10" lengthAdjust="spacing" textLength="12" x="750" y="9.65">14</text><text fill="#000000" font-family="sans-serif" font-size="10" lengthAdjust="spacing" textLength="12" x="806" y="9.65">15</text><text fill="#000000" font-family="sans-serif" font-size="10" lengthAdjust="spacing" textLength="12" x="862" y="9.65">16</text><line style="stroke:#181818;stroke-width:1.5;" x1="-1" x2="-1" y1="31.7499" y2="42.6248"/><line style="stroke:#181818;stroke-width:1.5;" x1="-1" x2="7" y1="42.6248" y2="42.6248"/><polygon fill="#181818" points="3,38.6248,3,42.6248,3,46.6248,7,42.6248" style="stroke:#181818;stroke-width:1.5;"/><line style="stroke:#181818;stroke-width:1.5;" x1="119" x2="119" y1="49.4998" y2="60.3747"/><line style="stroke:#181818;stroke-width:1.5;" x1="119" x2="127" y1="60.3747" y2="60.3747"/><polygon fill="#181818" points="123,56.3747,123,60.3747,123,64.3747,127,60.3747" style="stroke:#181818;stroke-width:1.5;"/><line style="stroke:#181818;stroke-width:1.5;" x1="175" x2="175" y1="67.2497" y2="78.1246"/><line style="stroke:#181818;stroke-width:1.5;" x1="175" x2="183" y1="78.1246" y2="78.1246"/><polygon fill="#181818" points="179,74.1246,179,78.1246,179,82.1246,183,78.1246" style="stroke:#181818;stroke-width:1.5;"/><line style="stroke:#181818;stroke-width:1.5;" x1="183" x2="183" y1="84.9996" y2="95.8745"/><line style="stroke:#181818;stroke-width:1.5;" x1="183" x2="191" y1="95.8745" y2="95.8745"/><polygon fill="#181818" points="187,91.8745,187,95.8745,187,99.8745,191,95.8745" style="stroke:#181818;stroke-width:1.5;"/><line style="stroke:#181818;stroke-width:1.5;" x1="303" x2="303" y1="102.7495" y2="113.6244"/><line style="stroke:#181818;stroke-width:1.5;" x1="303" x2="311" y1="113.6244" y2="113.6244"/><polygon fill="#181818" points="307,109.6244,307,113.6244,307,117.6244,311,113.6244" style="stroke:#181818;stroke-width:1.5;"/><line style="stroke:#181818;stroke-width:1.5;" x1="311" x2="311" y1="120.4994" y2="131.3743"/><line style="stroke:#181818;stroke-width:1.5;" x1="311" x2="319" y1="131.3743" y2="131.3743"/><polygon fill="#181818" points="315,127.3743,315,131.3743,315,135.3743,319,131.3743" style="stroke:#181818;stroke-width:1.5;"/><line style="stroke:#181818;stroke-width:1.5;" x1="367" x2="367" y1="138.2493" y2="149.1242"/><line style="stroke:#181818;stroke-width:1.5;" x1="367" x2="375" y1="149.1242" y2="149.1242"/><polygon fill="#181818" points="371,145.1242,371,149.1242,371,153.1242,375,149.1242" style="stroke:#181818;stroke-width:1.5;"/><line style="stroke:#181818;stroke-width:1.5;" x1="375" x2="375" y1="155.9992" y2="166.8741"/><line style="stroke:#181818;stroke-width:1.5;" x1="375" x2="383" y1="166.8741" y2="166.8741"/><polygon fill="#181818" points="379,162.8741,379,166.8741,379,170.8741,383,166.8741" style="stroke:#181818;stroke-width:1.5;"/><line style="stroke:#181818;stroke-width:1.5;" x1="623" x2="623" y1="173.7491" y2="184.624"/><line style="stroke:#181818;stroke-width:1.5;" x1="623" x2="631" y1="184.624" y2="184.624"/><polygon fill="#181818" points="627,180.624,627,184.624,627,188.624,631,184.624" style="stroke:#181818;stroke-width:1.5;"/><line style="stroke:#181818;stroke-width:1.5;" x1="631" x2="631" y1="191.499" y2="202.3739"/><line style="stroke:#181818;stroke-width:1.5;" x1="631" x2="639" y1="202.3739" y2="202.3739"/><polygon fill="#181818" points="635,198.3739,635,202.3739,635,206.3739,639,202.3739" style="stroke:#181818;stroke-width:1.5;"/><line style="stroke:#181818;stroke-width:1.5;" x1="631" x2="631" y1="191.499" y2="220.1238"/><line style="stroke:#181818;stroke-width:1.5;" x1="631" x2="639" y1="220.1238" y2="220.1238"/><polygon fill="#181818" points="635,216.1238,635,220.1238,635,224.1238,639,220.1238" style="stroke:#181818;stroke-width:1.5;"/><rect fill="#E2E2F0" height="13.7499" style="stroke:none;stroke-width:1.0;" width="4" x="2" y="18"/><line style="stroke:#181818;stroke-width:1.0;" x1="2" x2="6" y1="18" y2="18"/><line style="stroke:#181818;stroke-width:1.0;" x1="2" x2="6" y1="31.7499" y2="31.7499"/><line style="stroke:#181818;stroke-width:1.0;" x1="2" x2="2" y1="18" y2="31.7499"/><line style="stroke:#181818;stroke-width:1.0;" x1="6" x2="6" y1="18" y2="31.7499"/><rect fill="#E2E2F0" height="13.7499" style="stroke:none;stroke-width:1.0;" width="116" x="10" y="35.7499"/><line style="stroke:#181818;stroke-width:1.0;" x1="10" x2="126" y1="35.7499" y2="35.7499"/><line style="stroke:#181818;stroke-width:1.0;" x1="10" x2="126" y1="49.4998" y2="49.4998"/><line style="stroke:#181818;stroke-width:1.0;" x1="10" x2="10" y1="35.7499" y2="49.4998"/><line style="stroke:#181818;stroke-width:1.0;" x1="126" x2="126" y1="35.7499" y2="49.4998"/><rect fill="#E2E2F0" height="13.7499" style="stroke:none;stroke-width:1.0;" width="52" x="130" y="53.4998"/><line style="stroke:#181818;stroke-width:1.0;" x1="130" x2="182" y1="53.4998" y2="53.4998"/><line style="stroke:#181818;stroke-width:1.0;" x1="130" x2="182" y1="67.2497" y2="67.2497"/><line style="stroke:#181818;stroke-width:1.0;" x1="130" x2="130" y1="53.4998" y2="67.2497"/><line style="stroke:#181818;stroke-width:1.0;" x1="182" x2="182" y1="53.4998" y2="67.2497"/><rect fill="#E2E2F0" height="13.7499" style="stroke:none;stroke-width:1.0;" width="4" x="186" y="71.2497"/><line style="stroke:#181818;stroke-width:1.0;" x1="186" x2="190" y1="71.2497" y2="71.2497"/><line style="stroke:#181818;stroke-width:1.0;" x1="186" x2="190" y1="84.9996" y2="84.9996"/><line style="stroke:#181818;stroke-width:1.0;" x1="186" x2="186" y1="71.2497" y2="84.9996"/><line style="stroke:#181818;stroke-width:1.0;" x1="190" x2="190" y1="71.2497" y2="84.9996"/><rect fill="#E2E2F0" height="13.7499" style="stroke:none;stroke-width:1.0;" width="116" x="194" y="88.9996"/><line style="stroke:#181818;stroke-width:1.0;" x1="194" x2="310" y1="88.9996" y2="88.9996"/><line style="stroke:#181818;stroke-width:1.0;" x1="194" x2="310" y1="102.7495" y2="102.7495"/><line style="stroke:#181818;stroke-width:1.0;" x1="194" x2="194" y1="88.9996" y2="102.7495"/><line style="stroke:#181818;stroke-width:1.0;" x1="310" x2="310" y1="88.9996" y2="102.7495"/><rect fill="#E2E2F0" height="13.7499" style="stroke:none;stroke-width:1.0;" width="4" x="314" y="106.7495"/><line style="stroke:#181818;stroke-width:1.0;" x1="314" x2="318" y1="106.7495" y2="106.7495"/><line style="stroke:#181818;stroke-width:1.0;" x1="314" x2="318" y1="120.4994" y2="120.4994"/><line style="stroke:#181818;stroke-width:1.0;" x1="314" x2="314" y1="106.7495" y2="120.4994"/><line style="stroke:#181818;stroke-width:1.0;" x1="318" x2="318" y1="106.7495" y2="120.4994"/><rect fill="#E2E2F0" height="13.7499" style="stroke:none;stroke-width:1.0;" width="52" x="322" y="124.4994"/><line style="stroke:#181818;stroke-width:1.0;" x1="322" x2="374" y1="124.4994" y2="124.4994"/><line style="stroke:#181818;stroke-width:1.0;" x1="322" x2="374" y1="138.2493" y2="138.2493"/><line style="stroke:#181818;stroke-width:1.0;" x1="322" x2="322" y1="124.4994" y2="138.2493"/><line style="stroke:#181818;stroke-width:1.0;" x1="374" x2="374" y1="124.4994" y2="138.2493"/><rect fill="#E2E2F0" height="13.7499" style="stroke:none;stroke-width:1.0;" width="4" x="378" y="142.2493"/><line style="stroke:#181818;stroke-width:1.0;" x1="378" x2="382" y1="142.2493" y2="142.2493"/><line style="stroke:#181818;stroke-width:1.0;" x1="378" x2="382" y1="155.9992" y2="155.9992"/><line style="stroke:#181818;stroke-width:1.0;" x1="378" x2="378" y1="142.2493" y2="155.9992"/><line style="stroke:#181818;stroke-width:1.0;" x1="382" x2="382" y1="142.2493" y2="155.9992"/><rect fill="#E2E2F0" height="13.7499" style="stroke:none;stroke-width:1.0;" width="244" x="386" y="159.9992"/><line style="stroke:#181818;stroke-width:1.0;" x1="386" x2="630" y1="159.9992" y2="159.9992"/><line style="stroke:#181818;stroke-width:1.0;" x1="386" x2="630" y1="173.7491" y2="173.7491"/><line style="stroke:#181818;stroke-width:1.0;" x1="386" x2="386" y1="159.9992" y2="173.7491"/><line style="stroke:#181818;stroke-width:1.0;" x1="630" x2="630" y1="159.9992" y2="173.7491"/><rect fill="#E2E2F0" height="13.7499" style="stroke:none;stroke-width:1.0;" width="4" x="634" y="177.7491"/><line style="stroke:#181818;stroke-width:1.0;" x1="634" x2="638" y1="177.7491" y2="177.7491"/><line style="stroke:#181818;stroke-width:1.0;" x1="634" x2="638" y1="191.499" y2="191.499"/><line style="stroke:#181818;stroke-width:1.0;" x1="634" x2="634" y1="177.7491" y2="191.499"/><line style="stroke:#181818;stroke-width:1.0;" x1="638" x2="638" y1="177.7491" y2="191.499"/><rect fill="#E2E2F0" height="13.7499" style="stroke:none;stroke-width:1.0;" width="36" x="642" y="195.499"/><line style="stroke:#181818;stroke-width:1.0;" x1="642" x2="678" y1="195.499" y2="195.499"/><line style="stroke:#181818;stroke-width:1.0;" x1="642" x2="678" y1="209.2489" y2="209.2489"/><line style="stroke:#181818;stroke-width:1.0;" x1="642" x2="642" y1="195.499" y2="209.2489"/><line style="stroke:#181818;stroke-width:1.0;" x1="678" x2="678" y1="195.499" y2="209.2489"/><rect fill="#E2E2F0" height="13.7499" style="stroke:none;stroke-width:1.0;" width="236" x="642" y="213.2489"/><line style="stroke:#181818;stroke-width:1.0;" x1="642" x2="878" y1="213.2489" y2="213.2489"/><line style="stroke:#181818;stroke-width:1.0;" x1="642" x2="878" y1="226.9988" y2="226.9988"/><line style="stroke:#181818;stroke-width:1.0;" x1="642" x2="642" y1="213.2489" y2="226.9988"/><line style="stroke:#181818;stroke-width:1.0;" x1="878" x2="878" y1="213.2489" y2="226.9988"/><text fill="#000000" font-family="sans-serif" font-size="11" lengthAdjust="spacing" textLength="105.5992" x="10" y="28.6149">&#1044;&#1086;&#1082;&#1091;&#1084;&#1077;&#1085;&#1090;&#1099; &#1074; &#1044;&#1040;&#1053;&#1050;</text><text fill="#000000" font-family="sans-serif" font-size="11" lengthAdjust="spacing" textLength="147.3988" x="130" y="46.3648">&#1054;&#1078;&#1080;&#1076;&#1072;&#1085;&#1080;&#1077; &#1087;&#1086;&#1076;&#1090;&#1074;&#1077;&#1088;&#1078;&#1076;&#1077;&#1085;&#1080;&#1103;</text><text fill="#000000" font-family="sans-serif" font-size="11" lengthAdjust="spacing" textLength="112.1991" x="186" y="64.1147">&#1044;&#1086;&#1082;&#1091;&#1084;&#1077;&#1085;&#1090;&#1099; &#1074; &#1057;&#1086;&#1074;&#1077;&#1090;</text><text fill="#000000" font-family="sans-serif" font-size="11" lengthAdjust="spacing" textLength="151.7988" x="194" y="81.8646">&#1055;&#1088;&#1080;&#1085;&#1103;&#1090;&#1080;&#1077; &#1082; &#1088;&#1072;&#1089;&#1089;&#1084;&#1086;&#1090;&#1088;&#1077;&#1085;&#1080;&#1102;</text><text fill="#000000" font-family="sans-serif" font-size="11" lengthAdjust="spacing" textLength="215.5982" x="314" y="99.6145">&#1069;&#1082;&#1089;&#1087;&#1077;&#1088;&#1090;&#1085;&#1086;&#1077; &#1079;&#1072;&#1082;&#1083;&#1102;&#1095;&#1077;&#1085;&#1080;&#1077; + &#1086;&#1087;&#1087;&#1086;&#1085;&#1077;&#1085;&#1090;&#1099;</text><text fill="#000000" font-family="sans-serif" font-size="11" lengthAdjust="spacing" textLength="109.9991" x="322" y="117.3644">&#1055;&#1088;&#1080;&#1085;&#1103;&#1090;&#1080;&#1077; &#1082; &#1079;&#1072;&#1097;&#1080;&#1090;&#1077;</text><text fill="#000000" font-family="sans-serif" font-size="11" lengthAdjust="spacing" textLength="131.9989" x="378" y="135.1143">&#1055;&#1077;&#1095;&#1072;&#1090;&#1100; &#1072;&#1074;&#1090;&#1086;&#1088;&#1077;&#1092;&#1077;&#1088;&#1072;&#1090;&#1086;&#1074;</text><text fill="#000000" font-family="sans-serif" font-size="11" lengthAdjust="spacing" textLength="147.3988" x="386" y="152.8642">&#1056;&#1072;&#1089;&#1089;&#1099;&#1083;&#1082;&#1072; &#1072;&#1074;&#1090;&#1086;&#1088;&#1077;&#1092;&#1077;&#1088;&#1072;&#1090;&#1086;&#1074;</text><text fill="#000000" font-family="sans-serif" font-size="11" lengthAdjust="spacing" textLength="103.3992" x="390" y="170.6141">&#1054;&#1078;&#1080;&#1076;&#1072;&#1085;&#1080;&#1077; &#1079;&#1072;&#1097;&#1080;&#1090;&#1099;</text><text fill="#000000" font-family="sans-serif" font-size="11" lengthAdjust="spacing" textLength="41.7997" x="642" y="188.364">&#1047;&#1072;&#1097;&#1080;&#1090;&#1072;</text><text fill="#000000" font-family="sans-serif" font-size="11" lengthAdjust="spacing" textLength="197.9984" x="682" y="206.1139">&#1055;&#1086;&#1076;&#1075;&#1086;&#1090;&#1086;&#1074;&#1082;&#1072; &#1086;&#1089;&#1085;&#1086;&#1074;&#1085;&#1099;&#1093; &#1076;&#1086;&#1082;&#1091;&#1084;&#1077;&#1085;&#1090;&#1086;&#1074;</text><text fill="#000000" font-family="sans-serif" font-size="11" lengthAdjust="spacing" textLength="138.5989" x="646" y="223.8638">&#1055;&#1086;&#1076;&#1075;&#1086;&#1090;&#1086;&#1074;&#1082;&#1072; &#1076;&#1086;&#1082;&#1091;&#1084;&#1077;&#1085;&#1090;&#1086;&#1074;</text><text fill="#000000" font-family="sans-serif" font-size="10" lengthAdjust="spacing" textLength="6" x="25" y="241.6488">1</text><text fill="#000000" font-family="sans-serif" font-size="10" lengthAdjust="spacing" textLength="6" x="81" y="241.6488">2</text><text fill="#000000" font-family="sans-serif" font-size="10" lengthAdjust="spacing" textLength="6" x="137" y="241.6488">3</text><text fill="#000000" font-family="sans-serif" font-size="10" lengthAdjust="spacing" textLength="6" x="193" y="241.6488">4</text><text fill="#000000" font-family="sans-serif" font-size="10" lengthAdjust="spacing" textLength="6" x="249" y="241.6488">5</text><text fill="#000000" font-family="sans-serif" font-size="10" lengthAdjust="spacing" textLength="6" x="305" y="241.6488">6</text><text fill="#000000" font-family="sans-serif" font-size="10" lengthAdjust="spacing" textLength="6" x="361" y="241.6488">7</text><text fill="#000000" font-family="sans-serif" font-size="10" lengthAdjust="spacing" textLength="6" x="417" y="241.6488">8</text><text fill="#000000" font-family="sans-serif" font-size="10" lengthAdjust="spacing" textLength="6" x="473" y="241.6488">9</text><text fill="#000000" font-family="sans-serif" font-size="10" lengthAdjust="spacing" textLength="12" x="526" y="241.6488">10</text><text fill="#000000" font-family="sans-serif" font-size="10" lengthAdjust="spacing" textLength="12" x="582" y="241.6488">11</text><text fill="#000000" font-family="sans-serif" font-size="10" lengthAdjust="spacing" textLength="12" x="638" y="241.6488">12</text><text fill="#000000" font-family="sans-serif" font-size="10" lengthAdjust="spacing" textLength="12" x="694" y="241.6488">13</text><text fill="#000000" font-family="sans-serif" font-size="10" lengthAdjust="spacing" textLength="12" x="750" y="241.6488">14</text><text fill="#000000" font-family="sans-serif" font-size="10" lengthAdjust="spacing" textLength="12" x="806" y="241.6488">15</text><text fill="#000000" font-family="sans-serif" font-size="10" lengthAdjust="spacing" textLength="12" x="862" y="241.6488">16</text><!--SRC=[fLLFRn915B_FftWtsvWsGAaq74oZLHCAiIdIY_4mmaWsmYpEp6BmL53J64phmSJ4HAiVm8GWAA4k_GeptyYtIq4WMxfhJvjvytv_tipyijjIKQ7Ab2j5QiBYIXPfXS5BnfvN6l3AjgkG898gHvHe0wXWKApOafM8TFX2XJpM7_L83yrh_KVtjMjQfWsw2rZzeB_epqz0i1UE9PY4E21M8k2h_gK7kgSxsiLl7_GvClHCItTrtnpYPizZqWDpCelUdC23zRvZrSEtPZ2f2UGKQGVOV88Ylk8GiD8nJTD4cX6I75v87WSP_e5wJNI9xf30HIMa-8t-X_hC79kZCHQBDm7tplrvt8cxm1a237c4vXrQQEb-a8bJb3_2bfPv3oZTnRwHPzkyyK-juwrrDsZwR-D9JLkVeUDEEFJbjpNrEJVRnXJmQJf79tWEl6pzqpjr_yfyHoCyNzTVkgPjtW9sp5toWhdDfMJBiHknCJZYG_GZ8u4gkEh5tv30U2dCGvtbZE0blC3QROZs-ADcnHUuNZokdw_BffnBL9ZGZOd2vIn28dtQ226C65cVVcbAhqonJp6RsyKONvpC_oOtF5qWUXkV-_XlHVOg-2taib1dGbesX_Xw8fP8hgTMyXYZFAj1B0NnP3g-bOwd89VV1MzxbQmysCk2j1rHP52of1BMKqSXVfLaQ9t2liELLMLfU5XZFBEpEod0FLwtXCshZ2kIESZzQxYLNBjZUOe2dS11ZkomPzIfA4GKxPB5osaeFBg_jaMob9STMaPkuP2xDlAAHXhs2ty1]--></g></svg>